<?xml version="1.0" encoding="utf-8"?>
<svg width="16" height="16" viewBox="0 0 16 16" fill="none" xmlns="http://www.w3.org/2000/svg">
<path fill-rule="evenodd" clip-rule="evenodd" d="M7.98315 11.3335C7.77815 11.3325 7.59565 11.239 7.47415 11.093L7.47315 11.092L4.15665 7.092C4.06815 6.98 4.01465 6.8365 4.01465 6.6805C4.01465 6.3125 4.31315 6.014 4.68115 6.014C4.88115 6.014 5.06065 6.102 5.18265 6.2415L5.18315 6.2425L7.98815 9.626L10.8216 6.2395C10.9446 6.093 11.1281 6.0005 11.3331 6.0005C11.7016 6.0005 12.0006 6.2995 12.0006 6.668C12.0006 6.8315 11.9416 6.9815 11.8441 7.0975L11.8451 7.0965L8.50015 11.0965C8.37715 11.2425 8.19415 11.335 7.98915 11.335C7.98715 11.335 7.98515 11.335 7.98315 11.335H7.98365L7.98315 11.3335Z" fill="#AE1164"/>
</svg>

