<?xml version="1.0" encoding="utf-8"?>
<svg width="16" height="16" viewBox="0 0 16 16" fill="none" xmlns="http://www.w3.org/2000/svg">
<path fill-rule="evenodd" clip-rule="evenodd" d="M14.583 15.3335H1.4165C1.412 15.3335 1.407 15.3335 1.4015 15.3335C0.631 15.3335 0.0055 14.7115 0 13.9425V6.00047C0 5.63247 0.2985 5.33397 0.6665 5.33397H15.333C15.701 5.33397 15.9995 5.63247 15.9995 6.00047V13.934C15.9995 13.935 15.9995 13.936 15.9995 13.9365C15.9995 14.3215 15.842 14.6695 15.588 14.9205C15.332 15.176 14.9785 15.334 14.5885 15.334C14.5865 15.334 14.5845 15.334 14.5825 15.334H14.583V15.3335ZM1.333 6.66666V13.9417C1.338 13.9752 1.3665 14.0002 1.4005 14.0002C1.403 14.0002 1.4055 14.0002 1.408 13.9997H1.4075H14.574C14.5755 13.9997 14.577 13.9997 14.5785 13.9997C14.603 13.9997 14.6255 13.9902 14.6425 13.9747C14.656 13.9652 14.6645 13.9502 14.666 13.9332V6.66666H1.333ZM15.9995 4.33366V3.60016C15.992 2.80716 15.347 2.16666 14.553 2.16666C14.5495 2.16666 14.546 2.16666 14.5425 2.16666H6.368L5.778 1.29516C5.516 0.913656 5.082 0.666656 4.5905 0.666656C4.589 0.666656 4.5875 0.666656 4.5865 0.666656H1.4415C1.4385 0.666656 1.435 0.666656 1.4315 0.666656C0.645 0.666656 0.0065 1.30116 0 2.08616V4.33366C0 4.70166 0.2985 5.00016 0.6665 5.00016C1.0345 5.00016 1.333 4.70166 1.333 4.33366V2.08716C1.3405 2.03766 1.3825 2.00016 1.4335 2.00016C1.436 2.00016 1.439 2.00016 1.4415 2.00066H1.441H4.586C4.587 2.00066 4.588 2.00066 4.589 2.00066C4.623 2.00066 4.6535 2.01716 4.6725 2.04216L5.461 3.20866C5.5825 3.38566 5.784 3.50016 6.012 3.50016C6.013 3.50016 6.0135 3.50016 6.0145 3.50016H14.5425C14.545 3.50016 14.5475 3.49966 14.5505 3.49966C14.609 3.49966 14.6575 3.54316 14.666 3.59916V3.59966V4.33316C14.666 4.70116 14.9645 4.99966 15.3325 4.99966C15.7005 4.99966 15.999 4.70116 15.999 4.33316L15.9995 4.33366Z" fill="#A0A4A8"/>
</svg>

