<?xml version="1.0" encoding="utf-8"?>
<svg width="16" height="16" viewBox="0 0 16 16" fill="none" xmlns="http://www.w3.org/2000/svg">
    <path d="M15.5 7.5H8.5V0.5C8.5 0.367392 8.44732 0.240215 8.35355 0.146447C8.25979 0.0526784 8.13261 0 8 0C7.86739 0 7.74021 0.0526784 7.64645 0.146447C7.55268 0.240215 7.5 0.367392 7.5 0.5V7.5H0.5C0.367392 7.5 0.240215 7.55268 0.146447 7.64645C0.0526784 7.74021 0 7.86739 0 8C0 8.13261 0.0526784 8.25979 0.146447 8.35355C0.240215 8.44732 0.367392 8.5 0.5 8.5H7.5V15.5C7.5 15.6326 7.55268 15.7598 7.64645 15.8536C7.74021 15.9473 7.86739 16 8 16C8.13261 16 8.25979 15.9473 8.35355 15.8536C8.44732 15.7598 8.5 15.6326 8.5 15.5V8.5H15.5C15.6326 8.5 15.7598 8.44732 15.8536 8.35355C15.9473 8.25979 16 8.13261 16 8C16 7.86739 15.9473 7.74021 15.8536 7.64645C15.7598 7.55268 15.6326 7.5 15.5 7.5Z" fill="#FFFFFF"/>
</svg>
