<?xml version="1.0" encoding="utf-8"?>
<svg width="16" height="16" viewBox="0 0 16 16" fill="none" xmlns="http://www.w3.org/2000/svg">
<path d="M8.00007 0C10.4483 0 12.447 1.92454 12.5659 4.34327L12.5715 4.57143V5.71429C13.5183 5.71429 14.2858 6.4818 14.2858 7.42857V14.2857C14.2858 15.2325 13.5183 16 12.5715 16H3.42864C2.48187 16 1.71436 15.2325 1.71436 14.2857V7.42857C1.71436 6.4818 2.48187 5.71429 3.42864 5.71429V4.57143C3.42864 2.0467 5.47534 0 8.00007 0ZM12.5715 6.85714H3.42864C3.11305 6.85714 2.85721 7.11298 2.85721 7.42857V14.2857C2.85721 14.6013 3.11305 14.8571 3.42864 14.8571H12.5715C12.8871 14.8571 13.1429 14.6013 13.1429 14.2857V7.42857C13.1429 7.11298 12.8871 6.85714 12.5715 6.85714ZM8.00007 9.71429C8.63125 9.71429 9.14293 10.226 9.14293 10.8571C9.14293 11.4883 8.63125 12 8.00007 12C7.36889 12 6.85721 11.4883 6.85721 10.8571C6.85721 10.226 7.36889 9.71429 8.00007 9.71429ZM8.00007 1.14286C6.17415 1.14286 4.6816 2.57019 4.57732 4.36997L4.5715 4.57143L4.57136 5.714H11.4284L11.4286 4.57143C11.4286 2.67788 9.89362 1.14286 8.00007 1.14286Z" fill="#131C26"/>
</svg>
