<svg width="16" height="16" viewBox="0 0 32 32" fill="none" xmlns="http://www.w3.org/2000/svg">
<g clip-path="url(#clip0_3629_645565)">
<path fill-rule="evenodd" clip-rule="evenodd" d="M21.38 3.00239C19.677 2.30413 17.8526 1.94979 16.0121 1.95978L16.0068 1.95979C15.799 1.95979 15.5961 1.9635 15.395 1.97198L15.3747 1.97263C11.7926 2.04943 8.38285 3.52589 5.87554 6.08591C3.36823 8.64594 1.96261 12.0861 1.95961 15.6698L1.95961 15.6766C1.93041 19.4353 3.38666 23.0535 6.01145 25.7437C8.6343 28.4318 12.2118 29.9759 15.9663 30.0404C17.8138 30.0384 19.6429 29.6729 21.3495 28.9648C23.0586 28.2557 24.6114 27.2168 25.9191 25.9074C27.2268 24.5981 28.2639 23.0439 28.9711 21.3337C29.6783 19.6234 30.0418 17.7906 30.0408 15.9399L30.0408 15.9378C30.0438 14.0968 29.6825 12.2735 28.9779 10.5728C28.2732 8.87204 27.2391 7.32757 25.9351 6.0283C24.6312 4.72903 23.0831 3.70065 21.38 3.00239ZM16.0041 0.000219968C18.1022 -0.0108128 20.1817 0.393278 22.1231 1.18925C24.0653 1.98555 25.8307 3.15833 27.3178 4.64002C28.8049 6.12172 29.9842 7.88305 30.7878 9.82257C31.5912 11.7618 32.0032 13.8408 32 15.9399C32.0009 18.0476 31.5869 20.1349 30.7815 22.0826C29.9759 24.0307 28.7947 25.8009 27.3051 27.2923C25.8156 28.7838 24.0469 29.9671 22.1001 30.7749C20.1534 31.5826 18.0666 31.9989 15.9589 32L15.9422 31.9999C11.668 31.9289 7.59495 30.1722 4.60934 27.1123C1.62452 24.0532 -0.0318444 19.939 0.000463917 15.6647C0.0047774 11.5701 1.61118 7.6397 4.47602 4.71463C7.33929 1.79116 11.2322 0.104065 15.3226 0.0137289C15.5508 0.00426421 15.7773 0.000251037 16.0041 0.000219968ZM32 15.9399C32 15.9402 32 15.9406 32 15.9409L31.0204 15.9394L32 15.9389C32 15.9392 32 15.9395 32 15.9399Z" fill="#131C26"/>
<path fill-rule="evenodd" clip-rule="evenodd" d="M16.0181 0.273119C16.4157 0.64015 16.4405 1.26002 16.0735 1.65764C12.3072 5.73864 10.4558 10.3988 10.4558 15.2685C10.4558 20.1501 12.3172 25.3311 16.1374 30.4258C16.462 30.8587 16.3743 31.4728 15.9414 31.7975C15.5086 32.1222 14.8946 32.0345 14.57 31.6016C10.5536 26.2452 8.49666 20.6617 8.49666 15.2685C8.49666 9.86362 10.5636 4.73896 14.6339 0.3285C15.0009 -0.0691172 15.6206 -0.093912 16.0181 0.273119Z" fill="#131C26"/>
<path fill-rule="evenodd" clip-rule="evenodd" d="M15.9954 0.273119C16.3929 -0.093912 17.0126 -0.0691172 17.3796 0.3285C21.4499 4.73891 23.5168 9.86257 23.5168 15.2666C23.5168 20.6588 21.4598 26.2413 17.4435 31.5976C17.1189 32.0305 16.5049 32.1183 16.0721 31.7936C15.6393 31.4689 15.5515 30.8548 15.8761 30.4219C19.6964 25.3272 21.5577 20.1471 21.5577 15.2666C21.5577 10.3979 19.7063 5.7387 15.94 1.65764C15.5731 1.26002 15.5978 0.64015 15.9954 0.273119Z" fill="#131C26"/>
<path fill-rule="evenodd" clip-rule="evenodd" d="M2.46377 7.50435C2.46377 6.96323 2.90234 6.52456 3.44335 6.52456H28.4343C28.9753 6.52456 29.4139 6.96323 29.4139 7.50435C29.4139 8.04547 28.9753 8.48413 28.4343 8.48413H3.44335C2.90234 8.48413 2.46377 8.04547 2.46377 7.50435Z" fill="#131C26"/>
<path fill-rule="evenodd" clip-rule="evenodd" d="M0.00430478 15.3426C0.00430478 14.8015 0.442876 14.3628 0.983882 14.3628H31.0203C31.5613 14.3628 31.9999 14.8015 31.9999 15.3426C31.9999 15.8837 31.5613 16.3224 31.0203 16.3224H0.983882C0.442876 16.3224 0.00430478 15.8837 0.00430478 15.3426Z" fill="#131C26"/>
<path fill-rule="evenodd" clip-rule="evenodd" d="M1.94002 23.1809C1.94002 22.6398 2.37859 22.2011 2.9196 22.2011H29.1723C29.7133 22.2011 30.1518 22.6398 30.1518 23.1809C30.1518 23.722 29.7133 24.1607 29.1723 24.1607H2.9196C2.37859 24.1607 1.94002 23.722 1.94002 23.1809Z" fill="#131C26"/>
</g>
<defs>
<clipPath id="clip0_3629_645565">
<rect width="32" height="32" fill="white"/>
</clipPath>
</defs>
</svg>
