<?xml version="1.0" encoding="utf-8"?>
<svg viewBox="0 0 16 16" xmlns="http://www.w3.org/2000/svg">
    <path d="M15.805 14.861L11.2585 10.3145C12.1355 9.23652 12.6665 7.84652 12.6665 6.33252C12.6665 2.83452 9.83101 -0.000976562 6.33301 -0.000976562C2.83501 -0.000976562 -0.000488281 2.83452 -0.000488281 6.33252C-0.000488281 9.83052 2.83501 12.666 6.33301 12.666C7.84701 12.666 9.23701 12.135 10.3265 11.2485L10.315 11.2575L14.8615 15.804C14.982 15.9245 15.149 15.9995 15.333 15.9995C15.7015 15.9995 16 15.701 16 15.3325C16 15.1485 15.9255 14.9815 15.8045 14.861V14.861H15.805ZM1.33351 6.33302C1.33351 6.33252 1.33351 6.33202 1.33351 6.33102C1.33351 3.56952 3.57201 1.33102 6.33351 1.33102C9.09501 1.33102 11.3335 3.56952 11.3335 6.33102C11.3335 7.68452 10.796 8.91202 9.92251 9.81252L9.92351 9.81102C9.90351 9.82752 9.88201 9.84252 9.86201 9.86102C9.84501 9.87952 9.82851 9.89952 9.81351 9.92102L9.81201 9.92302C8.91301 10.794 7.68601 11.331 6.33351 11.331C3.57251 11.331 1.33451 9.09352 1.33351 6.33302V6.33302V6.33302Z" fill="white" />
</svg>
