<?xml version="1.0" encoding="utf-8"?>
<svg width="12" height="12" viewBox="0 0 12 12" fill="none" xmlns="http://www.w3.org/2000/svg">
<path d="M8.625 12H1.875C1.57663 12 1.29048 11.8815 1.0795 11.6705C0.868526 11.4595 0.75 11.1734 0.75 10.875V2.625C0.75 2.52554 0.789509 2.43016 0.859835 2.35984C0.930161 2.28951 1.02554 2.25 1.125 2.25C1.22446 2.25 1.31984 2.28951 1.39017 2.35984C1.46049 2.43016 1.5 2.52554 1.5 2.625V10.875C1.5 10.9745 1.53951 11.0698 1.60984 11.1402C1.68016 11.2105 1.77554 11.25 1.875 11.25H8.625C8.72446 11.25 8.81984 11.2895 8.89017 11.3598C8.96049 11.4302 9 11.5255 9 11.625C9 11.7245 8.96049 11.8198 8.89017 11.8902C8.81984 11.9605 8.72446 12 8.625 12ZM11.25 10.125V0.375C11.25 0.275544 11.2105 0.180161 11.1402 0.109835C11.0698 0.0395088 10.9745 0 10.875 0L2.625 0C2.52554 0 2.43016 0.0395088 2.35984 0.109835C2.28951 0.180161 2.25 0.275544 2.25 0.375V10.125C2.25 10.2245 2.28951 10.3198 2.35984 10.3902C2.43016 10.4605 2.52554 10.5 2.625 10.5H10.875C10.9745 10.5 11.0698 10.4605 11.1402 10.3902C11.2105 10.3198 11.25 10.2245 11.25 10.125ZM3 0.75H10.5V9.75H3V0.75Z" fill="#71767C"/>
</svg>
