<?xml version="1.0" encoding="utf-8"?>
<svg width="16" height="16" viewBox="0 0 16 16" fill="none" xmlns="http://www.w3.org/2000/svg">
<path fill-rule="evenodd" clip-rule="evenodd" d="M13.334 16H2.66748C2.29948 16 2.00098 15.7015 2.00098 15.3335V0.666988C2.00098 0.298988 2.29948 0.000488281 2.66748 0.000488281H9.23098H9.23148C9.42998 0.000488281 9.60798 0.0869883 9.73048 0.224988L9.73098 0.225488L13.8345 4.86699C13.938 4.98399 14.001 5.13849 14.001 5.30799C14.001 5.30849 14.001 5.30849 14.001 5.30899V15.334C14.001 15.702 13.7025 16.0005 13.3345 16.0005L13.334 16ZM3.33398 14.6662H12.6675V6.66617H10.6675C8.97248 6.66617 8.00098 5.69117 8.00098 3.98967V1.33317H3.33448L3.33398 14.6662ZM9.33398 1.79149V3.98999C9.33398 4.95649 9.70898 5.33349 10.6675 5.33349H12.466L9.33398 1.79149Z" fill="#A0A4A8"/>
</svg>
