<?xml version="1.0" encoding="utf-8"?>
<svg width="16" height="16" viewBox="0 0 16 16" fill="none" xmlns="http://www.w3.org/2000/svg">
<g clip-path="url(#clip0_1629_6752)">
<path fill-rule="evenodd" clip-rule="evenodd" d="M8 0.979408C6.6115 0.979408 5.25417 1.39115 4.09967 2.16256C2.94517 2.93397 2.04535 4.03041 1.51399 5.31322C0.982634 6.59603 0.843606 8.0076 1.11449 9.36943C1.38537 10.7313 2.054 11.9822 3.03582 12.964C4.01765 13.9458 5.26856 14.6144 6.63039 14.8853C7.99221 15.1562 9.40378 15.0172 10.6866 14.4858C11.9694 13.9545 13.0658 13.0546 13.8373 11.9001C14.6087 10.7456 15.0204 9.38832 15.0204 7.99981C15.0204 6.13789 14.2808 4.35222 12.9642 3.03564C11.6476 1.71906 9.86193 0.979408 8 0.979408ZM3.55544 1.34806C4.87103 0.469009 6.41775 -0.000183105 8 -0.000183105C10.1217 -0.000183105 12.1566 0.842672 13.6569 2.34296C15.1571 3.84325 16 5.87808 16 7.99981C16 9.58207 15.5308 11.1288 14.6518 12.4444C13.7727 13.76 12.5233 14.7853 11.0615 15.3908C9.59966 15.9963 7.99113 16.1548 6.43928 15.8461C4.88743 15.5374 3.46197 14.7755 2.34315 13.6567C1.22433 12.5378 0.462403 11.1124 0.153721 9.56054C-0.15496 8.00869 0.00346631 6.40016 0.608967 4.93835C1.21447 3.47654 2.23985 2.22711 3.55544 1.34806Z" fill="#131C26"/>
<path fill-rule="evenodd" clip-rule="evenodd" d="M10.1727 0.503681C10.3071 0.738474 10.2256 1.03771 9.99083 1.17205L8.46278 2.04632C8.74367 2.18375 8.98455 2.39254 9.1607 2.65278C9.36189 2.94999 9.46941 3.30067 9.46939 3.65957V4.40798C9.46939 4.62448 9.38338 4.83212 9.23029 4.98521C9.0772 5.1383 8.86956 5.22431 8.65306 5.22431H6.39632C6.34472 5.22385 6.29327 5.21868 6.24261 5.20891L6.23929 5.20827L5.39045 5.0385C5.24804 5.01008 5.10049 5.02014 4.96327 5.0677C4.82601 5.11527 4.70394 5.19861 4.60964 5.30911L3.5397 6.56377L3.94914 7.90749C3.99976 8.07549 4.10316 8.22271 4.24403 8.32733C4.38489 8.43195 4.55571 8.4884 4.73118 8.4883H5.84214C5.99378 8.48846 6.14239 8.53086 6.27129 8.61073C6.40012 8.69056 6.50417 8.80468 6.57181 8.94029L7.08026 9.95654C7.16749 10.1308 7.18953 10.3307 7.1423 10.5198L7.00578 11.0659L7.00559 11.0667C6.97425 11.1911 6.97271 11.3212 7.00107 11.4464C7.0294 11.5714 7.08674 11.6879 7.16846 11.7866L7.16885 11.7871L8.06175 12.8585L9.17551 11.9324C9.26743 11.8558 9.34144 11.7599 9.39221 11.6516C9.44297 11.5433 9.46932 11.4252 9.46939 11.3056V9.70524C9.47014 9.58115 9.49919 9.45887 9.55429 9.34769L9.55503 9.34621L10.4719 7.51184C10.3253 7.50909 10.182 7.46689 10.0572 7.38955C9.92839 7.30973 9.82435 7.19563 9.75671 7.06004L9.39995 6.34717C9.34182 6.23047 9.31249 6.10154 9.31441 5.97117C9.31633 5.84081 9.34945 5.7128 9.411 5.59786C9.47254 5.48292 9.56072 5.3844 9.66816 5.31053C9.77556 5.23669 9.89909 5.18964 10.0284 5.17331L11.4194 4.99756C11.5642 4.97946 11.7015 4.92289 11.817 4.83373C11.9325 4.74458 12.022 4.6261 12.0762 4.49062L12.8658 2.51819C12.9663 2.26706 13.2514 2.14498 13.5025 2.24551C13.7537 2.34605 13.8757 2.63113 13.7752 2.88226L12.9857 4.85432C12.8665 5.15237 12.6697 5.41304 12.4156 5.60918C12.1615 5.80527 11.8596 5.92971 11.5411 5.96956L10.3798 6.11629L10.5881 6.53239H10.7368C10.8758 6.53253 11.0125 6.56815 11.1338 6.63589C11.2552 6.70362 11.3572 6.80122 11.4303 6.91943C11.5034 7.03765 11.5451 7.17256 11.5515 7.3114C11.5578 7.45024 11.5286 7.5884 11.4666 7.71279L10.449 9.74873V11.3056C10.4489 11.5688 10.3909 11.829 10.2792 12.0674C10.1675 12.3057 10.0047 12.5166 9.80245 12.6851L8.55931 13.7188C8.39338 13.8553 8.18035 13.9209 7.96641 13.9013C7.75247 13.8817 7.55486 13.7786 7.41644 13.6143L7.41474 13.6123L6.41482 12.4124C6.23458 12.1951 6.10812 11.9383 6.04571 11.6629C5.98333 11.3877 5.9867 11.1016 6.05553 10.8279L6.17726 10.341L5.74042 9.4679H4.73169C4.34576 9.46804 3.96979 9.34386 3.65996 9.11375C3.35027 8.88375 3.12288 8.56016 3.01143 8.19088L3.0112 8.1901L2.57523 6.75933C2.5361 6.62824 2.53056 6.48942 2.55908 6.35562C2.58752 6.22225 2.64892 6.09814 2.73765 5.99461L2.7385 5.99362L3.86438 4.67335C4.07184 4.43025 4.34052 4.24678 4.64249 4.14212C4.94446 4.03747 5.26888 4.01529 5.58229 4.07787L6.4165 4.24471H8.4898V3.65957C8.48981 3.49643 8.44094 3.33699 8.34949 3.20189C8.25806 3.06683 8.12829 2.96225 7.97688 2.90164L7.794 2.82861L7.79295 2.82819C7.6501 2.77156 7.52613 2.67575 7.4353 2.55179C7.34425 2.42751 7.29022 2.28001 7.27947 2.12633C7.26871 1.97265 7.30166 1.81906 7.37451 1.68332C7.44718 1.5479 7.5566 1.43576 7.69016 1.35978L7.69114 1.35922L9.50435 0.321789C9.73915 0.187452 10.0384 0.268889 10.1727 0.503681Z" fill="#131C26"/>
</g>
<defs>
<clipPath id="clip0_1629_6752">
<rect width="16" height="16" fill="white"/>
</clipPath>
</defs>
</svg>
