<?xml version="1.0" encoding="utf-8"?>
<svg width="12" height="12" viewBox="0 0 12 12" fill="none" xmlns="http://www.w3.org/2000/svg">
<path fill-rule="evenodd" clip-rule="evenodd" d="M11 5.99965C11 6.18072 10.8532 6.32752 10.6721 6.32752L1.31228 6.32752C1.1312 6.32752 1 6.18072 1 5.99965C1 5.81857 1.1312 5.67178 1.31228 5.67178L10.6721 5.67178C10.8532 5.67178 11 5.81857 11 5.99965Z" fill="#131C26"/>
<path fill-rule="evenodd" clip-rule="evenodd" d="M10.904 5.76781C11.032 5.89585 11.032 6.10345 10.904 6.23149L8.28102 8.85444C8.15298 8.98248 7.94538 8.98248 7.81734 8.85444C7.6893 8.7264 7.6893 8.5188 7.81734 8.39076L10.2085 5.99965L7.81734 3.60854C7.6893 3.48049 7.6893 3.2729 7.81734 3.14486C7.94538 3.01682 8.15298 3.01682 8.28102 3.14486L10.904 5.76781Z" fill="#131C26"/>
</svg>
