<?xml version="1.0" encoding="utf-8"?>
<svg width="16" height="16" viewBox="0 0 16 16" fill="none" xmlns="http://www.w3.org/2000/svg">
<path fill-rule="evenodd" clip-rule="evenodd" d="M6.66652 12C6.66602 12 6.66602 12 6.66552 12C6.29752 12 5.99902 11.7015 5.99902 11.3335C5.99902 11.1285 6.09152 10.945 6.23752 10.8225L6.23852 10.8215L9.62502 7.988L6.24152 5.1795C6.10152 5.0565 6.01352 4.8775 6.01352 4.6775C6.01352 4.3095 6.31202 4.011 6.68002 4.011C6.83602 4.011 6.97952 4.0645 7.09302 4.154L7.09152 4.153L11.0915 7.4695C11.239 7.592 11.3325 7.7755 11.333 7.981C11.333 7.983 11.333 7.986 11.333 7.9885C11.333 8.193 11.241 8.3765 11.0955 8.4985L11.0945 8.4995L7.09452 11.851C6.98102 11.9435 6.83452 11.9995 6.67502 11.9995C6.67202 11.9995 6.66852 11.9995 6.66552 11.9995H6.66602L6.66652 12Z" fill="#AE1164"/>
</svg>
