<?xml version="1.0" encoding="utf-8"?>
<svg width="16" height="16" viewBox="0 0 16 16" fill="none" xmlns="http://www.w3.org/2000/svg">
<path d="M11.2327 1.33924C11.4559 1.56241 11.4559 1.92422 11.2327 2.14736C11.0095 2.37051 10.6477 2.37049 10.4246 2.14732C9.44399 1.16665 7.96921 0.873269 6.68798 1.40399C5.47418 1.90678 4.66056 3.05539 4.57837 4.35409L4.5715 4.57185L4.57136 5.7145L12.5715 5.71471C13.4867 5.71471 14.2344 6.43191 14.2832 7.33494L14.2858 7.42899V14.2861C14.2858 15.2329 13.5183 16.0004 12.5715 16.0004H3.42864C2.48187 16.0004 1.71436 15.2329 1.71436 14.2861V7.42899C1.71436 6.48222 2.48187 5.71471 3.42864 5.71471V4.57189C3.42851 2.72282 4.5423 1.05576 6.25062 0.348131C7.95893 -0.359496 9.9253 0.0316805 11.2327 1.33924ZM12.5715 6.85757H3.42864C3.11305 6.85757 2.85721 7.1134 2.85721 7.42899V14.2861C2.85721 14.6017 3.11305 14.8576 3.42864 14.8576H12.5715C12.8871 14.8576 13.1429 14.6017 13.1429 14.2861V7.42899C13.1429 7.1134 12.8871 6.85757 12.5715 6.85757ZM8.00007 9.71471C8.63125 9.71471 9.14293 10.2264 9.14293 10.8576C9.14293 11.4887 8.63125 12.0004 8.00007 12.0004C7.36889 12.0004 6.85721 11.4887 6.85721 10.8576C6.85721 10.2264 7.36889 9.71471 8.00007 9.71471Z" fill="#131C26"/>
</svg>
