<?xml version="1.0" ?><!DOCTYPE svg  PUBLIC '-//W3C//DTD SVG 1.1//EN'  'http://www.w3.org/Graphics/SVG/1.1/DTD/svg11.dtd'><svg enable-background="new 0 0 512 512" height="512px" id="Layer_1" version="1.1" viewBox="0 0 512 512" width="512px" xml:space="preserve" xmlns="http://www.w3.org/2000/svg" xmlns:xlink="http://www.w3.org/1999/xlink"><path d="M171.806,211.395c0-14.659,11.862-26.502,26.5-26.502c4.686,0,9.096,1.222,12.909,3.349l68.264-68.272V25.462  c0-13.184-10.665-23.848-23.869-23.848H23.87C10.689,1.614,0,12.278,0,25.462v231.783c0,13.159,10.688,23.846,23.87,23.846h94.516  c0.092-0.069,0.136-0.136,0.204-0.234l56.563-56.557C173.052,220.469,171.806,216.085,171.806,211.395 M81.15,237.896  c-14.639,0-26.529-11.842-26.529-26.5c0-14.659,11.89-26.502,26.529-26.502c14.635,0,26.526,11.843,26.526,26.502  C107.676,226.053,95.784,237.896,81.15,237.896 M54.621,141.348c0-14.66,11.89-26.522,26.529-26.522  c14.635,0,26.526,11.863,26.526,26.522c0,14.638-11.891,26.509-26.526,26.509C66.51,167.857,54.621,155.985,54.621,141.348   M81.15,97.811C66.51,97.788,54.621,85.926,54.621,71.289c0-14.638,11.89-26.508,26.529-26.508  c14.635,0,26.526,11.871,26.526,26.508C107.676,85.946,95.784,97.788,81.15,97.811 M198.306,44.78  c14.638,0,26.527,11.871,26.527,26.508c0,14.637-11.89,26.522-26.527,26.522c-14.638-0.023-26.5-11.885-26.5-26.522  C171.806,56.651,183.668,44.78,198.306,44.78 M198.306,114.825c14.686,0,26.504,11.863,26.527,26.522  c-0.023,14.638-11.841,26.509-26.527,26.509c-14.638,0-26.5-11.872-26.5-26.509C171.806,126.688,183.668,114.825,198.306,114.825   M505.01,305.748L341.119,141.885c-9.326-9.327-24.427-9.327-33.729-0.021l-163.91,163.885c-9.306,9.328-9.306,24.428,0,33.755  L307.392,503.39c9.302,9.327,24.401,9.327,33.75,0L505.01,339.506C514.33,330.176,514.33,315.076,505.01,305.748 M252.031,341.411  c-5.148,5.175-11.983,7.763-18.701,7.763h-0.022c-6.788,0-13.597-2.588-18.745-7.763c-5.197-5.143-7.807-11.974-7.758-18.746  c-0.048-6.738,2.562-13.567,7.758-18.722c5.148-5.167,11.958-7.775,18.745-7.775c6.74,0,13.553,2.585,18.723,7.775l-4.966,4.967  l4.987-4.967c5.127,5.151,7.734,11.981,7.734,18.722C259.785,329.438,257.179,336.245,252.031,341.411 M342.988,432.351  c-5.148,5.099-11.955,7.731-18.696,7.731h-0.025c-6.788,0-13.598-2.609-18.769-7.778c-5.171-5.173-7.783-11.957-7.735-18.743  c-0.048-6.738,2.563-13.602,7.735-18.724c5.171-5.149,11.98-7.776,18.769-7.776c6.738,0,13.572,2.602,18.722,7.776  c5.147,5.145,7.781,11.983,7.761,18.724C350.767,420.347,348.135,427.131,342.988,432.351 M297.577,322.665  c0-6.738,2.591-13.59,7.76-18.722c5.121-5.167,11.977-7.775,18.722-7.775c6.764,0,13.599,2.608,18.77,7.775  c5.17,5.151,7.756,11.981,7.756,18.752c0,6.739-2.586,13.573-7.756,18.716c-5.171,5.175-11.961,7.763-18.7,7.763h-0.069  c-6.767,0-13.601-2.588-18.722-7.763C300.168,336.269,297.577,329.438,297.577,322.665 M342.988,250.413  c-5.148,5.145-11.955,7.778-18.696,7.778h-0.025c-6.788,0-13.598-2.612-18.769-7.778c-5.171-5.173-7.783-11.983-7.783-18.753  c0-6.762,2.612-13.59,7.783-18.743c5.171-5.146,11.98-7.777,18.769-7.756c6.738-0.021,13.572,2.564,18.742,7.756  c5.174,5.173,7.759,11.981,7.738,18.743C350.767,238.43,348.135,245.218,342.988,250.413 M433.927,341.411  c-5.128,5.175-11.938,7.763-18.679,7.763h-0.046c-6.767,0.022-13.598-2.588-18.745-7.763c-5.173-5.143-7.78-11.974-7.78-18.716  c0-6.771,2.607-13.601,7.78-18.752c5.147-5.19,11.979-7.775,18.745-7.775c6.762,0,13.575,2.608,18.725,7.753l-4.941,4.986  l4.941-4.966c5.169,5.153,7.776,11.981,7.776,18.724S439.096,336.245,433.927,341.411"/></svg>