<svg xmlns="http://www.w3.org/2000/svg" viewBox="0 0 96 96"><path d="M62 56h-4V30a4 4 0 0 0-4-4H34a4 4 0 0 0 0 8h4v22h-4a4 4 0 0 0 0 8h28a4 4 0 0 0 0-8zM46 34h4v22h-4zm8-16a6 6 0 1 1-6-6 6 6 0 0 1 6 6zM20 96a4.07 4.07 0 0 1-1.89-.47A4 4 0 0 1 16 92V76H9a8.71 8.71 0 0 1-9-9V9a8.71 8.71 0 0 1 9-9h78.08A8.77 8.77 0 0 1 96 9v58a8.71 8.71 0 0 1-9 9H51.21l-29 19.33A4 4 0 0 1 20 96zM9 8c-.79 0-1 .21-1 1v58c0 .79.21 1 1 1h11a4 4 0 0 1 4 4v12.53l23.78-15.86A4 4 0 0 1 50 68h37c.76 0 1-.24 1-1V9c0-.92-.42-1-.92-1z" fill="#333"/></svg>