<svg xmlns="http://www.w3.org/2000/svg" viewBox="0 0 96 96"><path d="M66.88 58.05a4 4 0 0 1-2.83-6.82 23 23 0 0 0 0-32.32 4 4 0 1 1 5.67-5.64 31 31 0 0 1 0 43.6 4 4 0 0 1-2.84 1.18zM32.05 57a4 4 0 0 0 0-5.66A22.95 22.95 0 0 1 31.87 19a4 4 0 0 0-5.71-5.61A31 31 0 0 0 26.4 57a4 4 0 0 0 5.65 0zm49.66 12.18a47.86 47.86 0 0 0 .22-68 4 4 0 1 0-5.65 5.66 39.86 39.86 0 0 1-.19 56.65 4 4 0 0 0 0 5.66 4 4 0 0 0 5.66 0zM20 69.14a4 4 0 0 0-.05-5.66 39.87 39.87 0 0 1-.18-56.65 4 4 0 0 0-5.65-5.66 47.86 47.86 0 0 0 .22 68 4 4 0 0 0 5.66 0zm40-34.08a12 12 0 1 0-16 11.3V92a4 4 0 0 0 8 0V46.36a12 12 0 0 0 8-11.3z" fill="#333"/></svg>