<svg xmlns="http://www.w3.org/2000/svg" viewBox="0 0 96 96"><path d="M32 48a24 24 0 1 1 24-24 24 24 0 0 1-24 24zm0-40a16 16 0 1 0 16 16A16 16 0 0 0 32 8zm4 84a4 4 0 0 0-4-4H8a.52.52 0 0 1 0-.31 3.78 3.78 0 0 0 .12-.75 11.36 11.36 0 0 1 .26-1.66v-.12c2.12-8.62 5.83-20.09 7.62-22.55 3.52-4.74 9.89-4.61 9.93-4.61h9.31a22.88 22.88 0 0 1 3.12.25 4 4 0 1 0 1.16-7.92 32.76 32.76 0 0 0-4.35-.33h-9c-1.23 0-10.8 0-16.56 7.89C5.74 63.16 1 82 .68 83.2A18.59 18.59 0 0 0 .19 86a8.51 8.51 0 0 0 1.54 6.92A7.77 7.77 0 0 0 7.91 96H32a4 4 0 0 0 4-4zm12.79 3.65l18.07-8.11a4.1 4.1 0 0 0 1.85-1.69l17.63-31.28a4 4 0 1 0-7-3.93l-17 30.14-11.81 5.32-1.47-13.44 16.72-29.82a4 4 0 1 0-7-3.92l-17.35 31a4 4 0 0 0-.43 2.34l2.21 20.18a4 4 0 0 0 2 3 4 4 0 0 0 3.63.18zm11.77-19.38l16.85-30a4 4 0 0 0-7-3.92L53.58 72.36a4 4 0 0 0 1.53 5.45 4 4 0 0 0 5.45-1.54zm31.35-47.52l-14.57-7.91a7.79 7.79 0 0 0-5.92-.66 6.56 6.56 0 0 0-4 3.24l-2.32 4.52a4 4 0 0 0 1.63 5.37l20.71 11.24a4 4 0 0 0 1.91.48 4.17 4.17 0 0 0 1.16-.17 4 4 0 0 0 2.38-2l2.37-4.52c1.74-3.34.26-7.64-3.35-9.59z" fill="#333"/></svg>