<svg xmlns="http://www.w3.org/2000/svg" viewBox="0 0 96 96"><path d="M60 96H4a4 4 0 0 1 0-8h56a4 4 0 0 1 0 8zm36.12-82.53a4 4 0 0 1-1.19 2.85L53.06 57.53c-.1.1-.22.17-.32.26a4.14 4.14 0 0 1 .26 2.07l-2.4 14.4a4 4 0 0 1-3 3.22L14 85.88A4 4 0 0 1 9.12 81l8.4-33.6a4 4 0 0 1 3.22-3l14.4-2.4a4.1 4.1 0 0 1 2.4.35l.15-.17L79.56 1a4 4 0 0 1 5.61 0l9.76 9.59a4 4 0 0 1 1.19 2.88zm-51.4 47.1L34.43 50.28l-9.79 1.63L20.38 69 27 62.37A4 4 0 0 1 32.63 68L26 74.62l17.05-4.26zm41.7-47.1l-4.06-4-39 38.41 4 4a.73.73 0 0 1 .08-.09z" fill="#333"/></svg>