<svg xmlns="http://www.w3.org/2000/svg" viewBox="0 0 96 96"><path d="M92 68a4 4 0 0 1-4-4A56.06 56.06 0 0 0 32 8a4 4 0 0 1 0-8 64.07 64.07 0 0 1 64 64 4 4 0 0 1-4 4zm-13.16-4.64a40.37 40.37 0 0 0-10.9-31.24A47.75 47.75 0 0 0 33.3 17H33a4 4 0 0 0 0 8h.31a39.66 39.66 0 0 1 28.75 12.54 32.45 32.45 0 0 1 8.81 25.1A4 4 0 0 0 74.5 67a2.17 2.17 0 0 0 .36 0 4 4 0 0 0 3.98-3.64zm-15.92-2c.56-6.36-2-13.14-7-18.6C50.31 36.65 42.5 33 35 33a4 4 0 0 0 0 8c5.29 0 10.91 2.68 15 7.16 3.51 3.84 5.31 8.37 5 12.49A4 4 0 0 0 58.59 65h.35a4 4 0 0 0 3.98-3.65zm-12.55 4.43l-2.83 17a4 4 0 0 1-3 3.22L5 95.88A4 4 0 0 1 .12 91L10 51.43a4 4 0 0 1 3.22-3l17-2.83a4 4 0 0 1 3.49 1.12L49.25 62.3a4 4 0 0 1 1.12 3.49zm-8.23.71L29.5 53.86l-12.36 2.06L11.38 79 21 69.37A4 4 0 0 1 26.63 75L17 84.62l23-5.76z" fill="#333"/></svg>