<svg xmlns="http://www.w3.org/2000/svg" viewBox="0 0 96 96"><path d="M81.34 50.47a19.73 19.73 0 0 0-5.93-5.16A20.16 20.16 0 0 0 79 41.64c3.1-4.07 4.68-9.24 4.68-15.37 0-9.2-3.62-16.06-10.75-20.37C66.36 1.93 56.42 0 42.54 0H14a4 4 0 0 0-4 4v88a4 4 0 0 0 4 4h34.31c11.21 0 20.29-2.53 27-7.53C82.41 83.2 86 75.8 86 66.48c0-6.48-1.57-11.91-4.66-16.01zM42.54 8c12.21 0 21 1.6 26.26 4.75 4.69 2.84 6.88 7.13 6.88 13.52 0 4.4-1 7.84-3 10.52a11.49 11.49 0 0 1-7.46 4.5H18V8zm28 74.05c-5.31 4-12.79 6-22.24 6H18V49.29h45.45a3.86 3.86 0 0 0 1.28.51c4.82 1 8.25 2.88 10.22 5.48s3 6.46 3 11.2c.05 6.75-2.39 11.84-7.4 15.57z" fill="#333"/></svg>