<svg xmlns="http://www.w3.org/2000/svg" viewBox="0 0 96 96"><path d="M87.5 88H83a4 4 0 0 1 0-8h4.47a.79.79 0 0 0 .42-.15.33.33 0 0 0 .11-.25V36H8v43.65a.41.41 0 0 0 .45.35h4.47a4 4 0 1 1 0 8H8.45A8.41 8.41 0 0 1 0 79.65V32a4 4 0 0 1 4-4h88a4 4 0 0 1 4 4v47.6a8.29 8.29 0 0 1-2.47 5.92A8.49 8.49 0 0 1 87.5 88zM96 22v-4.4A8.68 8.68 0 0 0 87.26 9H38.21l-3.54-5.23A8.62 8.62 0 0 0 27.52 0H8.65A8.59 8.59 0 0 0 0 8.52V22a4 4 0 0 0 8 0V8.52A.61.61 0 0 1 8.65 8h18.87a.63.63 0 0 1 .52.25l4.73 7A4 4 0 0 0 36.09 17h51.17a.7.7 0 0 1 .74.6V22a4 4 0 0 0 8 0zM71.82 89.16l-10.3-10.23A20.79 20.79 0 0 0 65.25 67a21.08 21.08 0 1 0-9.45 17.53l10.38 10.31a4 4 0 0 0 5.64-5.68zM31 67a13.13 13.13 0 0 1 26.25 0 12.91 12.91 0 0 1-3.8 9.17A13.15 13.15 0 0 1 31 67z" fill="#333"/></svg>