<svg xmlns="http://www.w3.org/2000/svg" viewBox="0 0 96 96"><path d="M88.13 26.38a1.71 1.71 0 0 0-.2-.18c.37-1.24.61-2.05.66-2.23a7.88 7.88 0 0 0-1.7-7.9C85.74 14.82 75.7 3.78 74.55 2.51a7.41 7.41 0 0 0-8.3-2c-1 .38-18 6.17-29.2 10a3.92 3.92 0 0 0-1.68 1.09L6.76 43.11C-.42 51-1 62.73 5.46 69.89l19.39 21A15.14 15.14 0 0 0 36.16 96h.05a18.72 18.72 0 0 0 13.59-6.42L67 70.69a4 4 0 0 0-6-5.38L43.89 84.19A10.78 10.78 0 0 1 36.21 88a7.21 7.21 0 0 1-5.43-2.49l-19.39-21c-3.58-4-3-11.3 1.3-16L40.6 17.73c6-2 25.16-8.55 28.22-9.63 1.8 2 11.06 12.17 12.15 13.35a.62.62 0 0 0 0 .1c-.29.9-4.23 14.41-6.8 23.31a4 4 0 1 0 7.68 2.22l3.21-11c2.73 5.58 2.63 12.11-.69 16A8.41 8.41 0 0 1 77.9 55c-3.5 0-7.17-1.85-10.06-5.08a18.59 18.59 0 0 1-4.66-14.72 3.81 3.81 0 0 0 3.6-.45 8.44 8.44 0 0 0 3.59-7 8 8 0 1 0-16 0 9.42 9.42 0 0 0 .12 1.51 4 4 0 0 0 1.33 2.32c-2 7.6.07 16.89 6.06 23.59C66.29 60.13 72.13 63 77.9 63a16.23 16.23 0 0 0 12.51-5.7c6.97-8.12 5.97-21.68-2.28-30.92z" fill="#333"/></svg>