<svg xmlns="http://www.w3.org/2000/svg" viewBox="0 0 96 96"><path d="M78 35a8 8 0 1 1-8-8 8 8 0 0 1 8 8zm-30-8a8 8 0 1 0 8 8 8 8 0 0 0-8-8zm-22 0a8 8 0 1 0 8 8 8 8 0 0 0-8-8zM96 9v51.88A8.86 8.86 0 0 1 87 70H52.49L23.62 95A4 4 0 0 1 21 96a4 4 0 0 1-1.66-.36A4 4 0 0 1 17 92V70H9a8.76 8.76 0 0 1-9-9.12V9a9 9 0 0 1 2.54-6.44A9.2 9.2 0 0 1 9.08 0h78.83C92.82 0 96 3.53 96 9zm-8 0a4.24 4.24 0 0 0-.1-1H9.07a1.33 1.33 0 0 0-.87.21A1.22 1.22 0 0 0 8 9v51.88C8 62 8.36 62 9 62h12a4 4 0 0 1 4 4v17.24L48.38 63A4 4 0 0 1 51 62h36a1 1 0 0 0 1-1.12z" fill="#333"/></svg>