<svg xmlns="http://www.w3.org/2000/svg" viewBox="0 0 96 96"><path d="M48.75 39.9a4 4 0 0 1-5.65-.15L31.49 27.53a4 4 0 0 1-.77-4.34c2-4.5 1.27-9.36-1.73-12.36a9.65 9.65 0 0 0-5.48-2.7l4 4a4 4 0 0 1 .93 4.21l-2.63 7.11a4 4 0 0 1-2.36 2.37l-7.15 2.63a4 4 0 0 1-4.22-.92l-3.95-4a9.79 9.79 0 0 0 2.69 5.48c3 3 7.84 3.68 12.33 1.73a4 4 0 0 1 4.33.76l12.26 11.59a4 4 0 1 1-5.48 5.82L23.78 39a18.67 18.67 0 0 1-18.62-4.3c-5.29-5.3-6.64-13.58-3.45-21.09a4 4 0 0 1 6.51-1.27l7.71 7.72 3-1.11L20 16l-7.69-7.78a4 4 0 0 1 1.26-6.5C21.08-1.5 29.35-.14 34.66 5.18A18.7 18.7 0 0 1 39 23.81l9.9 10.44a4 4 0 0 1-.15 5.65zm42.09 21.4A18.67 18.67 0 0 0 72.22 57l-10.48-9.91a4 4 0 1 0-5.48 5.82l12.26 11.55a4 4 0 0 0 4.33.76C77.34 63.27 82.18 64 85.18 67a9.79 9.79 0 0 1 2.69 5.48l-4-4a4 4 0 0 0-4.22-.92l-7.13 2.64a4 4 0 0 0-2.36 2.37l-2.63 7.11a4 4 0 0 0 .93 4.21l4 4A9.65 9.65 0 0 1 67 85.17c-3-3-3.68-7.86-1.73-12.36a4 4 0 0 0-.77-4.34L52.9 56.25a4 4 0 0 0-5.8 5.5L57 72.19a18.7 18.7 0 0 0 4.33 18.63A18 18 0 0 0 74.19 96a20.9 20.9 0 0 0 8.24-1.72 4 4 0 0 0 1.26-6.5L76 80l1.1-3 3-1.11 7.71 7.72a4 4 0 0 0 6.51-1.27c3.16-7.46 1.81-15.74-3.48-21.04zm4-56.2L90.9 1.19a4 4 0 0 0-5.52-.13l-10.09 9.19a4 4 0 0 0-.52 5.32L33 57.34l-4.17-4.17a4 4 0 0 0-5.65 0L3.3 73.08a11.32 11.32 0 0 0 0 16l3.64 3.64a11.24 11.24 0 0 0 8 3.31 11.23 11.23 0 0 0 8-3.31l19.9-19.9a4 4 0 0 0 0-5.66L38.67 63l41.76-41.78a4 4 0 0 0 2.37.8h.1a4 4 0 0 0 2.86-1.31L95 10.62a4 4 0 0 0-.18-5.52zm-77.55 82a3.28 3.28 0 0 1-2.34 1 3.25 3.25 0 0 1-2.34-1L9 83.42a3.28 3.28 0 0 1-1-2.34 3.32 3.32 0 0 1 1-2.35l17-17.07 3.57 3.57a4 4 0 0 0 1.18 1.19L34.34 70z" fill="#333"/></svg>