<svg xmlns="http://www.w3.org/2000/svg" viewBox="0 0 96 96"><path d="M66 40.15L46 17.36A4 4 0 0 0 43 16H11a4 4 0 0 0-4 4v72a4 4 0 0 0 4 4h52a4 4 0 0 0 4-4V42.79a4 4 0 0 0-1-2.64zm-8.94 1.94h-7.3c-3.52 0-5.43-.92-5.43-5.8v-8.71zM15 88V24h21.32v12.3c0 8.76 4.89 13.79 13.43 13.79H59V88zm73-63.85L68 1.36A4 4 0 0 0 65 0H33a4 4 0 0 0-4 4v4a4 4 0 0 0 8 0h21.32v12.3c0 8.76 4.89 13.79 13.43 13.79H81V72h-5a4 4 0 0 0 0 8h9a4 4 0 0 0 4-4V26.79a4 4 0 0 0-1-2.64zm-21.66-3.86v-8.71l12.73 14.51h-7.3c-3.52 0-5.43-.92-5.43-5.8z" fill="#333"/></svg>