<svg xmlns="http://www.w3.org/2000/svg" viewBox="0 0 96 96"><path d="M83 29.2L58.37 1.35a4 4 0 0 0-3-1.35H16a4 4 0 0 0-4 4v88a4 4 0 0 0 4 4h64a4 4 0 0 0 4-4V31.85a4 4 0 0 0-1-2.65zM74.79 32H64c-5.76 0-8-2.26-8-8.06V10.75zM20 88V8h28v15.94C48 34.15 53.86 40 64 40h12v48zm50-26.37v10.75c0 3.19-1.58 4.55-2.53 5.07a4.21 4.21 0 0 1-2.09.55 4.37 4.37 0 0 1-2.29-.65l-2.26-1.44c-2-1.27-2.83-3.91-2.83-6V74a5.87 5.87 0 0 1-5.75 6H31.76A5.88 5.88 0 0 1 26 74V60a5.92 5.92 0 0 1 5.8-6h20.38A5.94 5.94 0 0 1 58 60v4c0-2.07.86-4.72 2.77-5.95l.11-.08 2.31-1.37a4.31 4.31 0 0 1 4.31-.13c1.14.67 2.5 2.07 2.5 5.16z" fill="#333"/></svg>