<svg xmlns="http://www.w3.org/2000/svg" viewBox="0 0 96 96"><path d="M16 64a16 16 0 1 1 16-16 16 16 0 0 1-16 16zm0-24a8 8 0 1 0 8 8 8 8 0 0 0-8-8zm4-16V4a4 4 0 0 0-8 0v20a4 4 0 0 0 8 0zm0 68V72a4 4 0 0 0-8 0v20a4 4 0 0 0 8 0zm28-41.89a16 16 0 1 1 16-16 16 16 0 0 1-16 16zm0-24a8 8 0 1 0 8 8 8 8 0 0 0-8-8zM52 10V4a4 4 0 0 0-8 0v6a4 4 0 0 0 8 0zm0 82V58a4 4 0 0 0-8 0v34a4 4 0 0 0 8 0zm28-14.11a16 16 0 1 1 16-16 16 16 0 0 1-16 16zm0-24a8 8 0 1 0 8 8 8 8 0 0 0-8-8zM84 38V4a4 4 0 0 0-8 0v34a4 4 0 0 0 8 0zm0 54v-6a4 4 0 0 0-8 0v6a4 4 0 0 0 8 0z" fill="#333"/></svg>