<svg xmlns="http://www.w3.org/2000/svg" viewBox="0 0 96 96"><path d="M94.83 94.83a4.92 4.92 0 0 1-.61.5l-.31.17c-.13.06-.25.14-.38.19a2.8 2.8 0 0 1-.41.13 3.37 3.37 0 0 1-.34.1A4 4 0 0 1 92 96H72a4 4 0 0 1 0-8h10.34L57.17 62.83a4 4 0 0 1 5.66-5.66L88 82.34V72a4 4 0 0 1 8 0v20a4.13 4.13 0 0 1-.08.78 1.8 1.8 0 0 1-.1.33 3.38 3.38 0 0 1-.13.42 2.58 2.58 0 0 1-.19.37c-.06.11-.11.22-.17.32a3.62 3.62 0 0 1-.5.6zm1.09-91.61a1.8 1.8 0 0 0-.1-.33 3.38 3.38 0 0 0-.13-.42 2.58 2.58 0 0 0-.19-.37c-.06-.11-.11-.22-.17-.32a3.62 3.62 0 0 0-.5-.6 4.92 4.92 0 0 0-.61-.5l-.31-.17a2.75 2.75 0 0 0-.38-.2 2.8 2.8 0 0 0-.41-.13 3.37 3.37 0 0 0-.34-.1A4.13 4.13 0 0 0 92 0H72a4 4 0 0 0 0 8h10.34L57.17 33.17a4 4 0 0 0 5.66 5.66L88 13.66V24a4 4 0 0 0 8 0V4a4.13 4.13 0 0 0-.08-.78zm-57.09 54a4 4 0 0 0-5.66 0L8 82.34V72a4 4 0 0 0-8 0v20a4.13 4.13 0 0 0 .08.78 1.8 1.8 0 0 0 .1.33 3.38 3.38 0 0 0 .13.42 2.58 2.58 0 0 0 .19.37c.06.11.11.22.17.32a3.62 3.62 0 0 0 .5.6 4.92 4.92 0 0 0 .61.5l.31.17c.13.06.25.14.38.19a2.8 2.8 0 0 0 .41.13 3.37 3.37 0 0 0 .34.1A4 4 0 0 0 4 96h20a4 4 0 0 0 0-8H13.66l25.17-25.17a4 4 0 0 0 0-5.66zm0-24L13.66 8H24a4 4 0 0 0 0-8H4a4.13 4.13 0 0 0-.78.08 3.37 3.37 0 0 0-.34.1 2.8 2.8 0 0 0-.41.13 2.75 2.75 0 0 0-.38.2l-.31.16a4.92 4.92 0 0 0-.61.5 3.62 3.62 0 0 0-.5.6C.61 1.88.56 2 .5 2.1a2.58 2.58 0 0 0-.19.37 3.38 3.38 0 0 0-.13.42 1.8 1.8 0 0 0-.1.33A4.13 4.13 0 0 0 0 4v20a4 4 0 0 0 8 0V13.66l25.17 25.17a4 4 0 0 0 5.66-5.66z" fill="#333"/></svg>