<svg xmlns="http://www.w3.org/2000/svg" viewBox="0 0 96 96"><path d="M87.5 92h-79A8.41 8.41 0 0 1 0 83.65V36a4 4 0 0 1 4-4h88a4 4 0 0 1 4 4v47.6a8.29 8.29 0 0 1-2.47 5.92A8.49 8.49 0 0 1 87.5 92zM8 40v43.65a.41.41 0 0 0 .45.35h79a.56.56 0 0 0 .41-.15.33.33 0 0 0 .14-.25V40zm88-14v-4.4a8.68 8.68 0 0 0-8.74-8.6H38.21l-3.54-5.23A8.62 8.62 0 0 0 27.52 4H8.65A8.59 8.59 0 0 0 0 12.52V26a4 4 0 0 0 8 0V12.52a.61.61 0 0 1 .65-.52h18.87a.63.63 0 0 1 .52.25l4.73 7A4 4 0 0 0 36.09 21h51.17a.7.7 0 0 1 .74.6V26a4 4 0 0 0 8 0z" fill="#333"/></svg>