<svg xmlns="http://www.w3.org/2000/svg" viewBox="0 0 96 96"><path d="M70 96a26 26 0 1 1 26-26 26 26 0 0 1-26 26zm0-44a18 18 0 1 0 18 18 18 18 0 0 0-18-18zm8.83 22.17L74 69.35V60a4 4 0 0 0-8 0v10.44a4 4 0 0 0 1.13 3.39l6 6a4 4 0 0 0 5.66-5.66zM58 7.64a4 4 0 0 0-4-4H34a4 4 0 0 0 0 8h20a4 4 0 0 0 4-4zm21.79-4h-4a4 4 0 0 0 0 8h4a.23.23 0 0 1 .21.24v19H8v-19a.2.2 0 0 1 .19-.22h4a4 4 0 0 0 0-8h-4A8.21 8.21 0 0 0 0 11.86v67.89A8.24 8.24 0 0 0 8.21 88H39a4 4 0 0 0 0-8H8.21a.24.24 0 0 1-.21-.25V38.91h72V39a4 4 0 0 0 8 0V11.88a8.24 8.24 0 0 0-8.21-8.24zm-52.7 10.23V4a4 4 0 0 0-8 0v9.87a7.64 7.64 0 1 0 8 0zm41.82 0V4a4 4 0 0 0-8 0v9.87a7.64 7.64 0 1 0 8 0z" fill="#333"/></svg>