<svg xmlns="http://www.w3.org/2000/svg" viewBox="0 0 96 96"><path d="M80 69a4 4 0 0 1-4-4V29H20a4 4 0 0 1 0-8h56a8 8 0 0 1 8 8v36a4 4 0 0 1-4 4zm16-17V16a8 8 0 0 0-8-8H32a4 4 0 0 0 0 8h56v36a4 4 0 0 0 8 0zM64 86H8a8 8 0 0 1-8-8V42a8 8 0 0 1 8-8h56a8 8 0 0 1 8 8v36a8 8 0 0 1-8 8zM8 42v36h56V42zm36 9a4 4 0 1 1-4-4 4 4 0 0 1 4 4zm14.59 14l-9.42-8a4 4 0 0 0-5.23 0L39 61.32l-8-8.14A4 4 0 0 0 28.13 52a4 4 0 0 0-2.83 1.18L13.16 65.4a4 4 0 0 0 5.68 5.6l9.28-9.35 11 11.14a4 4 0 1 0 5.68-5.64l-.13-.15 2-1.72 6.78 5.76A4 4 0 0 0 58.59 65z" fill="#333"/></svg>