<svg xmlns="http://www.w3.org/2000/svg" viewBox="0 0 96 96"><path d="M64.48 61.74a4 4 0 0 1-5.66 0l-6-6A7.64 7.64 0 0 1 51 56a8 8 0 0 1-4-14.92V22.23a4 4 0 0 1 8 0v18.85A8 8 0 0 1 59 48a8.09 8.09 0 0 1-.33 2.27l5.81 5.81a4 4 0 0 1 0 5.66zM50.69 3a45.6 45.6 0 0 0-40.56 25l-2.34-7a4 4 0 1 0-7.58 2.5l5.48 16.4a4 4 0 0 0 3.8 2.73 4.08 4.08 0 0 0 1.18-.18L28.34 37A4 4 0 0 0 26 29.34l-9 2.78A37.37 37.37 0 0 1 88 48a37.36 37.36 0 0 1-73.21 10.12 4 4 0 1 0-7.69 2.2A45.35 45.35 0 0 0 96 48 45.21 45.21 0 0 0 50.69 3z" fill="#333"/></svg>