<svg xmlns="http://www.w3.org/2000/svg" viewBox="0 0 96 96"><path d="M71.16 96h-15a4 4 0 0 1-4-4V77H44v15a4 4 0 0 1-4 4H25c-6.21 0-10.89-5.57-10.89-13L14 56a4 4 0 0 1 4-4 4 4 0 0 1 4 4l.05 27c0 2.07.9 5 2.89 5H36V73a4 4 0 0 1 4-4h16.12a4 4 0 0 1 4 4v15h11c2.13 0 2.88-3 2.88-5V56a4 4 0 0 1 4-4 4 4 0 0 1 4 4v27c0 7.55-4.55 13-10.84 13zm18.73-46.44l.15-.17 4.21-4.92.25-.33A8.24 8.24 0 0 0 93 33l-8.41-7-.13-.1A8.86 8.86 0 0 1 82 21.74V8.17C82 3.36 79.12 0 75 0h-6c-4.12 0-7 3.36-7 8.17v1.37l-8.33-6.28-2.53-1.94A4.54 4.54 0 0 0 48 0h-.1a4 4 0 0 0-2.48.93l-1 .77-41.2 31.19a8.34 8.34 0 0 0-1.77 11.26l.27.35L6 49.41l.14.15A7.9 7.9 0 0 0 11.85 52a8.7 8.7 0 0 0 5.8-2.2L48 25.77l31.32 24A7.54 7.54 0 0 0 84.54 52a7.29 7.29 0 0 0 5.35-2.44zM12.11 44zm-4.06-4.73L47.16 9.65 48 9l.83.64 14.76 11.12a4 4 0 0 0 4.22.38C70 20 70 18.53 70 14.93V8h4v13.74c0 3.65 2.88 8.39 5.5 10.43l8.41 7h.07a.48.48 0 0 1 0 .33l-3.52 4.11-34-26.09a4 4 0 0 0-4.92 0l-33 26.1a3.22 3.22 0 0 0-.28.24c-.12.06-.31.11-.35.13L8 39.53a.31.31 0 0 1 .05-.26zm4.23 4.61zm78.92-2z" fill="#333"/></svg>