<svg xmlns="http://www.w3.org/2000/svg" viewBox="0 0 96 96"><path d="M83.88 16.16l-.1-.15a2.72 2.72 0 0 0-.24-.24 47.93 47.93 0 0 0-71.08 0 2.72 2.72 0 0 0-.24.24s-.06.1-.1.15a47.87 47.87 0 0 0-1.89 61.41 4 4 0 0 0 .83 1.9A4 4 0 0 0 13 80.76a48 48 0 0 0 70.92-64.6zm-4.07 56.05a36.8 36.8 0 0 0-6.44-3.45A61.76 61.76 0 0 0 77.21 52H87.8a39.76 39.76 0 0 1-7.99 20.21zM8.2 52h10.59a61.46 61.46 0 0 0 3.54 16 39.35 39.35 0 0 0-6.88 3.24A39.78 39.78 0 0 1 8.2 52zm7.86-28a38.47 38.47 0 0 0 6.59 3.24A61.29 61.29 0 0 0 18.79 44H8.2a39.83 39.83 0 0 1 7.86-20zM44 23.07a72.53 72.53 0 0 1-9.76-1A37.36 37.36 0 0 1 44 11.92zm0 8V44H26.83a52.87 52.87 0 0 1 3.53-14.54A79.09 79.09 0 0 0 44 31.08zM44 52v12.36a81 81 0 0 0-13.92 1.48A53.24 53.24 0 0 1 26.83 52zm0 20.37v11.71A37.45 37.45 0 0 1 33.84 73.3 75.76 75.76 0 0 1 44 72.37zm8 .1a69.89 69.89 0 0 1 9.92 1.21A37.6 37.6 0 0 1 52 84.08zm0-8V52h17.16a52.9 52.9 0 0 1-3.43 14.31A75.06 75.06 0 0 0 52 64.45zM52 44V31.08a79.09 79.09 0 0 0 13.63-1.62A52.86 52.86 0 0 1 69.17 44zm0-20.93V11.92a37.36 37.36 0 0 1 9.75 10.14A72.19 72.19 0 0 1 52 23.07zM63.07 11a40 40 0 0 1 11.27 7 31.89 31.89 0 0 1-4.49 2 47.58 47.58 0 0 0-6.78-9zm-36.92 9a33.08 33.08 0 0 1-4.49-2 40 40 0 0 1 11.26-7 47.56 47.56 0 0 0-6.77 8.94zm-.44 55.35A47.27 47.27 0 0 0 32.92 85a40.07 40.07 0 0 1-12.06-7.69 34.15 34.15 0 0 1 4.85-2.02zm44.17.65a30.72 30.72 0 0 1 4.37 2.15A40.25 40.25 0 0 1 63.07 85a47.54 47.54 0 0 0 6.81-9zm7.33-32a61.29 61.29 0 0 0-3.86-16.81A38.84 38.84 0 0 0 79.94 24a39.83 39.83 0 0 1 7.86 20z" fill="#333"/></svg>