<svg xmlns="http://www.w3.org/2000/svg" viewBox="0 0 96 96"><path d="M22.57 96a15.93 15.93 0 0 1-11.3-4.67l-6.6-6.6a16 16 0 0 1 0-22.59l17.49-17.49a4 4 0 1 1 5.66 5.65L10.33 67.79a8 8 0 0 0 0 11.28l6.6 6.6a8 8 0 0 0 11.29 0l17.47-17.49a4 4 0 0 1 5.66 5.66L33.87 91.33A16 16 0 0 1 22.57 96zm51.27-44.65l17.49-17.49a16 16 0 0 0 0-22.59l-6.6-6.6a16 16 0 0 0-22.6 0L44.65 22.16a4 4 0 0 0 5.66 5.66l17.48-17.49a8 8 0 0 1 11.29 0l6.6 6.6a8 8 0 0 1 0 11.28L68.18 45.7A4 4 0 0 0 71 52.53a4 4 0 0 0 2.84-1.18zM24 35a4 4 0 0 0-4-4H4a4 4 0 0 0 0 8h16a4 4 0 0 0 4-4zm15-15V4a4 4 0 0 0-8 0v16a4 4 0 0 0 8 0zm57 41a4 4 0 0 0-4-4H76a4 4 0 0 0 0 8h16a4 4 0 0 0 4-4zM65 92V76a4 4 0 0 0-8 0v16a4 4 0 0 0 8 0z" fill="#333"/></svg>