<svg xmlns="http://www.w3.org/2000/svg" viewBox="0 0 96 96"><path d="M22.57 96a15.93 15.93 0 0 1-11.3-4.67l-6.6-6.6a16 16 0 0 1 0-22.59l17.49-17.49a15.93 15.93 0 0 1 16.92-3.6 4 4 0 1 1-2.84 7.47 7.93 7.93 0 0 0-8.42 1.78L10.33 67.79a8 8 0 0 0 0 11.28l6.6 6.6a8 8 0 0 0 11.29 0l17.47-17.49a7.9 7.9 0 0 0 1.74-8.54 4 4 0 0 1 7.43-3 15.88 15.88 0 0 1-3.51 17.16L33.87 91.33A16 16 0 0 1 22.57 96zM28 72a4 4 0 0 1-2.83-6.83l40-40a4 4 0 0 1 5.66 5.66l-40 40A4 4 0 0 1 28 72zm34.6-16a15.82 15.82 0 0 1-5.68-1 4 4 0 1 1 2.84-7.47 7.93 7.93 0 0 0 8.42-1.78l17.49-17.54a8 8 0 0 0 0-11.28l-6.6-6.6a8 8 0 0 0-11.29 0L50.31 27.82a7.9 7.9 0 0 0-1.74 8.54 4 4 0 0 1-7.43 3 15.88 15.88 0 0 1 3.51-17.16L62.13 4.67a16 16 0 0 1 22.6 0l6.6 6.6a16 16 0 0 1 0 22.59L73.84 51.35A15.87 15.87 0 0 1 62.6 56z" fill="#333"/></svg>