<svg xmlns="http://www.w3.org/2000/svg" viewBox="0 0 96 96"><path d="M93.07 28a5.78 5.78 0 0 0-5.37-.62l-9.53 3.39C74.65 32.07 72 36.4 72 40.84v-8.29A8.72 8.72 0 0 0 63.14 24H8.79A8.65 8.65 0 0 0 0 32.49V63.6A8.56 8.56 0 0 0 8.69 72h54.65A8.53 8.53 0 0 0 72 63.63v-8.5c0 4.32 2.82 8.74 6.39 10.06l9.17 3.44a6.26 6.26 0 0 0 2.11.37A5.77 5.77 0 0 0 93 67.94c1.92-1.37 3-3.81 3-6.88V35c0-4.09-1.6-6.06-2.93-7zM64 63.63c0 .11-.22.37-.66.37H8.69c-.43 0-.69-.26-.69-.4V32.49c0-.2.31-.49.79-.49h54.35c.53 0 .86.33.86.55zm24-3.38l-6.74-2.53A3.65 3.65 0 0 1 80 55.13V40.84a4 4 0 0 1 1-2.58l7-2.48z" fill="#333"/></svg>