<svg xmlns="http://www.w3.org/2000/svg" viewBox="0 0 96 96"><path d="M87.5 88H69a4 4 0 0 1 0-8h18.47a.79.79 0 0 0 .42-.15.33.33 0 0 0 .11-.25V36H8v43.65a.41.41 0 0 0 .45.35H27a4 4 0 0 1 0 8H8.45A8.41 8.41 0 0 1 0 79.65V32a4 4 0 0 1 4-4h88a4 4 0 0 1 4 4v47.6a8.29 8.29 0 0 1-2.47 5.92A8.49 8.49 0 0 1 87.5 88zM96 22v-4.4A8.68 8.68 0 0 0 87.26 9H38.21l-3.54-5.23A8.62 8.62 0 0 0 27.52 0H8.65A8.59 8.59 0 0 0 0 8.52V22a4 4 0 0 0 8 0V8.52A.61.61 0 0 1 8.65 8h18.87a.63.63 0 0 1 .52.25l4.73 7A4 4 0 0 0 36.09 17h51.17a.7.7 0 0 1 .74.6V22a4 4 0 0 0 8 0zM63.84 65.18L52.69 54a6.6 6.6 0 0 0-9.37 0L32.16 65.18a4 4 0 0 0 5.68 5.64l6.16-6.2V92a4 4 0 0 0 8 0V64.61l6.16 6.21a4 4 0 1 0 5.68-5.64z" fill="#333"/></svg>