<svg xmlns="http://www.w3.org/2000/svg" viewBox="0 0 96 96"><path d="M92.53 57.1l-6.86 5.6a5.84 5.84 0 0 1-3.61 1.3H82a5.74 5.74 0 0 1-3.59-1.23l-6.85-5.4a4 4 0 1 1 4.94-6.28l1.5 1.2V45h-6a4 4 0 0 1 0-8h10a4 4 0 0 1 4 4v11.1l1.47-1.2a4 4 0 0 1 5.06 6.2zM24 45a4 4 0 0 0 0-8H14a4 4 0 0 0-4 4v11.29l-1.53-1.2a4 4 0 0 0-4.94 6.28l6.85 5.4A5.74 5.74 0 0 0 14 64h.09a5.84 5.84 0 0 0 3.61-1.3l6.86-5.6a4 4 0 0 0-5.06-6.2L18 52.1V45zm36-8h-8v-7a4 4 0 0 0-8 0v7h-8a4 4 0 0 0 0 8h8v7.29l-1.53-1.2a4 4 0 0 0-4.94 6.28l6.85 5.4A5.74 5.74 0 0 0 48 64h.09a5.84 5.84 0 0 0 3.61-1.3l6.86-5.6a4 4 0 1 0-5.06-6.2L52 52.1V45h8a4 4 0 0 0 0-8zm32 59H72a4 4 0 0 1-3.58-5.79l10-20a4 4 0 0 1 7.16 0l10 20A4 4 0 0 1 92 96zm-13.53-8h7.06L82 80.94zM14 96a14 14 0 1 1 14-14 14 14 0 0 1-14 14zm0-20a6 6 0 1 0 6 6 6 6 0 0 0-6-6zm42 20H40a6 6 0 0 1-6-6V74a6 6 0 0 1 6-6h16a6 6 0 0 1 6 6v16a6 6 0 0 1-6 6zm-14-8h12V76H42zm22-66H32a4 4 0 0 1-4-4V4a4 4 0 0 1 4-4h32a4 4 0 0 1 4 4v14a4 4 0 0 1-4 4zm-28-8h24V8H36z" fill="#333"/></svg>