<svg xmlns="http://www.w3.org/2000/svg" viewBox="0 0 96 96"><path d="M38 60.24a6.09 6.09 0 0 1-2 4.94 8.86 8.86 0 0 1-5.82 1.71H28.3V74H24V54h6.47a8.66 8.66 0 0 1 5.61 1.57A5.67 5.67 0 0 1 38 60.24zm-9.7 3.17h1.41a4.81 4.81 0 0 0 3-.77 3.21 3.21 0 0 0 .16-4.45 3.89 3.89 0 0 0-2.59-.72H28.3zm28.7.4q0 4.93-2.71 7.56T46.46 74H41V54h6q4.73 0 7.34 2.59A9.7 9.7 0 0 1 57 63.81zm-4.25.11q0-6.45-5.48-6.45h-2.18v13h1.75q5.91.03 5.91-6.55zM64.37 74H60V54h12v3.47h-7.63v5.16h7.1v3.46h-7.1zM83 29.2L58.37 1.35a4 4 0 0 0-3-1.35H16a4 4 0 0 0-4 4v88a4 4 0 0 0 4 4h64a4 4 0 0 0 4-4V31.85a4 4 0 0 0-1-2.65zM74.79 32H64c-5.76 0-8-2.26-8-8.06V10.75zM20 88V8h28v15.94C48 34.15 53.86 40 64 40h12v48z" fill="#333"/></svg>