<svg xmlns="http://www.w3.org/2000/svg" viewBox="0 0 96 96"><path d="M64.37 96h-.45a6.67 6.67 0 0 1-4.78-2.6L39.85 68.78A4 4 0 0 1 39 66.3l.07-19.49a6.81 6.81 0 0 1 2.42-5.28 6.33 6.33 0 0 1 5.24-1.43l17.07 3.13a4 4 0 0 1 2.43 1.47L85.5 69.29a7.4 7.4 0 0 1-.65 9.71l-16 15.27A6.39 6.39 0 0 1 64.37 96zm1.09-7.53zm-2.18 0zM47 64.94l17.5 22.32 14.28-13.58-17.91-22.85-13.8-2.53zM45.28 48zm1.79-1.21zm10.65 9.73a4 4 0 0 0-4-4 4 4 0 1 0 4 4zm14.33-29.79L50.5 1.41a4 4 0 0 0-3-1.41H13a4 4 0 0 0-4 4v80a4 4 0 0 0 4 4h21a4 4 0 0 0 0-8H17V8h23.5v14.13c0 9.51 5.29 15 14.51 15h10.16A4 4 0 0 0 73 36v-6.68a4 4 0 0 0-.95-2.59zm-23.53-4.6V11.41l15 17.68H55c-5.41 0-6.48-2.55-6.48-6.96z" fill="#333"/></svg>