<svg xmlns="http://www.w3.org/2000/svg" viewBox="0 0 96 96"><path d="M74.29 96h-8.58A4 4 0 0 1 62 93.4l-1.49-4a22.85 22.85 0 0 1-2.77-1.56l-4.74.85a4 4 0 0 1-4.12-1.91l-4.28-7.23a4 4 0 0 1 .4-4.65l3-3.56V70v-1.32l-3-3.57a4 4 0 0 1-.41-4.65l4.28-7.23A4 4 0 0 1 53 51.32l4.74.82a23 23 0 0 1 2.78-1.57l1.49-4a4 4 0 0 1 3.7-2.57h8.58A4 4 0 0 1 78 46.6l1.49 4a23 23 0 0 1 2.78 1.57l4.73-.85a4 4 0 0 1 4.12 1.91l4.28 7.23a4 4 0 0 1-.4 4.65l-3 3.57v2.67l3 3.56a4 4 0 0 1 .41 4.65l-4.25 7.24A4 4 0 0 1 87 88.7l-4.77-.82a22.53 22.53 0 0 1-2.75 1.55L78 93.4a4 4 0 0 1-3.71 2.6zm-5.8-8h3l1.11-3a4 4 0 0 1 2.4-2.34 14.14 14.14 0 0 0 3.83-2.15 4 4 0 0 1 3.16-.8l3.7.64 1.4-2.35-2.32-2.71a4 4 0 0 1-.93-3.29 12.54 12.54 0 0 0 .16-2 13.5 13.5 0 0 0-.15-2 4 4 0 0 1 .92-3.22l2.32-2.7-1.41-2.39-3.68.62a4 4 0 0 1-3.16-.81A14.44 14.44 0 0 0 75 57.34 4 4 0 0 1 72.62 55l-1.11-3h-3l-1.11 3a4 4 0 0 1-2.4 2.34 14.44 14.44 0 0 0-3.85 2.16 4 4 0 0 1-3.16.81l-3.68-.63-1.41 2.39 2.32 2.7a4 4 0 0 1 .93 3.23 13.5 13.5 0 0 0-.15 2 12.62 12.62 0 0 0 .16 2 4 4 0 0 1-.93 3.22l-2.31 2.69 1.41 2.4L58 79.7a4 4 0 0 1 3.16.8A14.11 14.11 0 0 0 65 82.66 4 4 0 0 1 67.38 85zM70 81a11 11 0 1 1 11-11 11 11 0 0 1-11 11zm0-14a3 3 0 1 0 3 3 3 3 0 0 0-3-3zM14 10.82a4 4 0 1 0 4 4 4 4 0 0 0-4-4zm10 0a4 4 0 1 0 4 4 4 4 0 0 0-4-4zm10 0a4 4 0 1 0 4 4 4 4 0 0 0-4-4zM74 0H6a6 6 0 0 0-6 6v68a6 6 0 0 0 6 6h30a4 4 0 0 0 0-8H8V29h64v7a4 4 0 0 0 8 0V6a6 6 0 0 0-6-6zM8 21V8h64v13z" fill="#333"/></svg>