<svg xmlns="http://www.w3.org/2000/svg" viewBox="0 0 96 96"><path d="M94.68 89.12A4 4 0 0 1 89 94.77l-24.5-24.5L40 94.83A4 4 0 0 1 37.13 96a3.9 3.9 0 0 1-1.6-.34C20.86 89.22 23.6 71.59 27.1 63.17a4 4 0 0 1 7.39 3.06c-.27.67-5.92 14.76 2 20.78L87 36.47c-6.11-7.94-20.62-2-20.77-2a4 4 0 1 1-3.07-7.39c8.42-3.5 26.05-6.24 32.49 8.43a4 4 0 0 1-.82 4.49L70.18 64.61zM6.89 80.77l70.92-74A4 4 0 1 0 72 1.23l-70.92 74a4 4 0 0 0 5.78 5.53zM21.36 48a4 4 0 0 0 1.51-5.45 12.72 12.72 0 0 0-9.72-6.1c-2.61-.22-4.46-.91-4.94-1.84s.1-3.17.68-4.35L30.25 8.88c1-.5 3.2-1.26 4.34-.67.94.47 1.63 2.32 1.85 4.94a12.72 12.72 0 0 0 6.1 9.72A4 4 0 0 0 48 21.38a4 4 0 0 0-1.49-5.44 4.83 4.83 0 0 1-2.12-3.48c-.49-5.7-2.57-9.53-6.16-11.37-5.52-2.83-11.76.7-12.46 1.11a3.9 3.9 0 0 0-.78.61L2.82 25a3.82 3.82 0 0 0-.61.78c-.42.69-3.95 6.94-1.12 12.46 1.84 3.59 5.67 5.67 11.37 6.16a4.87 4.87 0 0 1 3.45 2.06A4 4 0 0 0 21.36 48z" fill="#333"/></svg>