<svg xmlns="http://www.w3.org/2000/svg" viewBox="0 0 96 96"><path d="M71.62 37.48l-4.49-16.64a3.49 3.49 0 0 1 .65-2.75c3.13-3.84 4.15-7.52 3-10.94C69.13 2 63.27.31 62.61.13a3.86 3.86 0 0 0-1-.13H49a4.09 4.09 0 0 0-1 .14A4.09 4.09 0 0 0 47 0H34.41a3.86 3.86 0 0 0-1 .13c-.66.18-6.52 1.85-8.21 7-1.11 3.42-.09 7.1 3 10.94a3.53 3.53 0 0 1 .67 2.67l-4.49 16.74c-7 3.63-16.69 12.18-12.26 23.93A4 4 0 0 0 15.86 64H44v28a4 4 0 0 0 8 0V64h28.14a4 4 0 0 0 3.74-2.59c4.43-11.75-5.24-20.3-12.26-23.93zM77 56H49a4.75 4.75 0 0 0-.53 0 4.36 4.36 0 0 0-.47 0 3.91 3.91 0 0 0-.48 0 3.56 3.56 0 0 0-.52 0H19.05c-.36-7.32 9.8-11.81 10.27-12a4 4 0 0 0 2.3-2.64l5-18.5a11.44 11.44 0 0 0-2.2-9.86c-1.54-1.9-1.75-3-1.63-3.41C33 9 34.13 8.34 35 8h12a4.09 4.09 0 0 0 1-.14A4.09 4.09 0 0 0 49 8h12c.92.35 2.07 1 2.25 1.63.12.38-.09 1.51-1.63 3.41a11.44 11.44 0 0 0-2.19 9.81l5 18.5A4 4 0 0 0 66.67 44c.48.19 10.64 4.68 10.33 12z" fill="#333"/></svg>