<svg xmlns="http://www.w3.org/2000/svg" viewBox="0 0 96 96"><path d="M74 73a4 4 0 0 1-3.48-2s-.52-.92-1.39-2.51A4 4 0 0 1 70.72 63a4 4 0 0 1 2.28-.43c12.22-22.34 15-34 15-36.76C88 16.54 81.72 9 74 9a12.85 12.85 0 0 0-9.89 4.93A4 4 0 0 1 58 8.81 21 21 0 0 1 74 1c12.13 0 22 11.13 22 24.81C96 38 79.37 67.64 77.48 71A4 4 0 0 1 74 73zm-48.52-2s.52-.92 1.39-2.51A4 4 0 0 0 25.28 63a4 4 0 0 0-2.28-.43C10.77 40.23 8 28.54 8 25.81 8 16.54 14.28 9 22 9a12.85 12.85 0 0 1 9.89 4.93A4 4 0 0 0 38 8.81 21 21 0 0 0 22 1C9.87 1 0 12.13 0 25.81 0 38 16.63 67.64 18.52 71A4 4 0 0 0 22 73a4 4 0 0 0 3.48-2zm32.44-29.26a10 10 0 1 0-10 10 10 10 0 0 0 10-10zm-8 0a2 2 0 1 1-2-2 2 2 0 0 1 2 2zm34-15a10 10 0 0 1-10 10h-.4a26.65 26.65 0 0 1 .4 4.59c0 13-20.24 47.8-22.55 51.72a4 4 0 0 1-6.89 0c-2.31-3.92-22.56-38.68-22.56-51.72a26.83 26.83 0 0 1 .41-4.59h-.25a10 10 0 1 1 8.59-15.09 25.7 25.7 0 0 1 34.6.09 10 10 0 0 1 18.65 5zm-61.84 2a2 2 0 1 0-2-2 2 2 0 0 0 2 2zm43.84 12.57a18 18 0 1 0-36 0c0 7.12 9.95 27.26 18 41.65 8.08-14.39 18-34.53 18-41.65zm10-14.57a2 2 0 1 0-2 2 2 2 0 0 0 2-2z" fill="#333"/></svg>