<svg xmlns="http://www.w3.org/2000/svg" viewBox="0 0 96 96"><path d="M43 67.68a4 4 0 0 1-2.83-1.18L29.5 55.84a4 4 0 0 1 5.65-5.66l10.67 10.67A4 4 0 0 1 43 67.68zm-6.5 8.16a4 4 0 0 0 0-5.66L25.82 59.51a4 4 0 0 0-5.66 5.66l10.67 10.67a4 4 0 0 0 5.66 0zM94 7.49c-5.59 3.14-11.11 8-15.84 13l12.67 12.68a4 4 0 0 1 0 5.66l-56 56a4 4 0 0 1-5.66 0l-28-28a4 4 0 0 1 0-5.66l56-56a4 4 0 0 1 5.66 0l9.62 9.63C77.62 9.45 83.72 4.07 90 .51a4 4 0 0 1 3.92 7zM72.75 26.4c-1.48 1.74-2.82 3.38-4 4.83a10 10 0 0 1-1.72 11.84A10 10 0 1 1 60 26a10.06 10.06 0 0 1 2.46.32c1.31-1.67 2.87-3.58 4.61-5.6L60 13.66 9.66 64 32 86.34 82.34 36z" fill="#333"/></svg>