<svg xmlns="http://www.w3.org/2000/svg" viewBox="0 0 96 96"><path d="M95.84 30a4 4 0 0 0-.07-2.41L89.3 9.17a6.32 6.32 0 0 0-6-4.17H12.65a6.32 6.32 0 0 0-6 4.17L.23 27.45a3.94 3.94 0 0 0-.06 2.47A3.87 3.87 0 0 0 0 31v53.67A6.33 6.33 0 0 0 6.31 91h83.37A6.33 6.33 0 0 0 96 84.67V31a3.71 3.71 0 0 0-.16-1zm-9.46-5h-23.2l-2.4-12h21.38zM56 43.31l-6.36-2.87a4 4 0 0 0-3.27 0L40 43.27V33h16zM52.62 13L55 25H41l2.4-12zm-38.8 0h21.4l-2.39 12c-9.56 0-18 0-23.21-.09zM8 83V32.86c2.24 0 5.37 0 9.81.06L32 33v16.43a4 4 0 0 0 5.63 3.66L48 48.47l10.36 4.68a4.14 4.14 0 0 0 1.64.35 4 4 0 0 0 4-4V33h24v50z" fill="#333"/></svg>