<svg xmlns="http://www.w3.org/2000/svg" viewBox="0 0 96 96"><path d="M66 52H42.07a4 4 0 1 1 0-8H66a4 4 0 0 1 0 8zm3.93 10a4 4 0 0 0-4-4H42a4 4 0 0 0 0 8h23.93a4 4 0 0 0 4-4zm0 14a4 4 0 0 0-4-4H42a4 4 0 0 0 0 8h23.93a4 4 0 0 0 4-4zM86 8v80a8 8 0 0 1-8 8H18a8 8 0 0 1-8-8V8a8 8 0 0 1 8-8h60a8 8 0 0 1 8 8zM33.36 8l2.25 8h24.83l2.31-8zM78 88V8h-6.92l-3.79 13.11A4 4 0 0 1 63.44 24H32.58a4 4 0 0 1-3.85-2.92L25.05 8H18v80zM30 72a4 4 0 1 0 4 4 4 4 0 0 0-4-4zm4-10a4 4 0 1 1-4-4 4 4 0 0 1 4 4zm0-14a4 4 0 1 1-4-4 4 4 0 0 1 4 4z" fill="#333"/></svg>