<svg xmlns="http://www.w3.org/2000/svg" viewBox="0 0 96 96"><path d="M87.36 4H83a4 4 0 0 0 0 8h4.36a.66.66 0 0 1 .64.67V34H8V12.64a.63.63 0 0 1 .61-.64H13a4 4 0 0 0 0-8H8.61A8.64 8.64 0 0 0 0 12.64v74.69A8.66 8.66 0 0 0 8.64 96h78.73A8.66 8.66 0 0 0 96 87.33V12.67A8.66 8.66 0 0 0 87.36 4zm0 84H8.64a.66.66 0 0 1-.64-.67V42h80v45.33a.65.65 0 0 1-.63.67zM59 12H37a4 4 0 0 1 0-8h22a4 4 0 0 1 0 8zm1.82 65.83a4 4 0 0 1-5.65 0L48 70.63l-7.17 7.19a4 4 0 0 1-5.66-5.64L42.35 65l-7.11-7.14a4 4 0 0 1 5.67-5.64L48 59.29l7.09-7.11a4 4 0 0 1 5.67 5.64L53.65 65l7.18 7.22a4 4 0 0 1-.01 5.61zM33 22a8 8 0 1 1-12-6.92V4a4 4 0 0 1 8 0v11.08A8 8 0 0 1 33 22zm46 0a8 8 0 1 1-12-6.92V4a4 4 0 0 1 8 0v11.08A8 8 0 0 1 79 22z" fill="#333"/></svg>