<svg xmlns="http://www.w3.org/2000/svg" viewBox="0 0 96 96"><path d="M59 12H37a4 4 0 0 1 0-8h22a4 4 0 0 1 0 8zm37 .67v74.66A8.66 8.66 0 0 1 87.37 96H8.64A8.66 8.66 0 0 1 0 87.33V12.64A8.64 8.64 0 0 1 8.61 4H13a4 4 0 0 1 0 8H8.61a.63.63 0 0 0-.61.64V34h80V12.67a.66.66 0 0 0-.64-.67H83a4 4 0 0 1 0-8h4.36A8.66 8.66 0 0 1 96 12.67zm-8 74.66V42H8v45.33a.66.66 0 0 0 .64.67h78.73a.65.65 0 0 0 .63-.67zM58 58.5A10.42 10.42 0 0 0 47.19 48a10.4 10.4 0 0 0-8.3 3.83 4 4 0 1 0 6.23 5A2.87 2.87 0 0 1 50 58.5c0 1.64-1.56 2.5-3.1 2.5h-1.09a4 4 0 0 0 0 8h.86c1.53 0 3.18.78 3.18 2.5A2.53 2.53 0 0 1 47 74a2.49 2.49 0 0 1-2-.75 4 4 0 1 0-6 5.23A10.44 10.44 0 0 0 47 82c6.17 0 10.83-4.51 10.83-10.5a10 10 0 0 0-2.27-6.39A10.15 10.15 0 0 0 58 58.5zM29 15.08V4a4 4 0 0 0-8 0v11.08a8 8 0 1 0 8 0zm46 0V4a4 4 0 0 0-8 0v11.08a8 8 0 1 0 8 0z" fill="#333"/></svg>