<svg xmlns="http://www.w3.org/2000/svg" viewBox="0 0 96 96"><path d="M96 3.67A4 4 0 0 0 92.17 0c-.46 0-11.52-.45-29.35 8.11-11.88 5.71-25 19.1-34.94 30.68l-15.09.86a4 4 0 0 0-3.48 2.49l-9 22.23a4 4 0 0 0 3.71 5.49 3.86 3.86 0 0 0 1.41-.26l9.43-3.56 15 14.86-3.64 9.68A4 4 0 0 0 30 96a4.08 4.08 0 0 0 1.5-.29l22.36-9.06a4 4 0 0 0 2.49-3.51l.77-15.43C68.63 57.61 82 44.34 87.8 32.78 96.78 14.9 96 4.12 96 3.67zM15.78 47.5l5.22-.29c-4.48 5.64-7.57 9.93-8.46 11.2l-1.32.5zM48.5 80.19L37 84.87l.45-1.2c.53-.39 5.09-3.75 11.32-8.85zm32.15-51c-8.49 16.9-36.36 39.15-45.21 46L20.78 60.62c6.57-8.9 28.19-37 45.51-45.28 9.76-4.69 17.16-6.39 21.42-7-.58 4.12-2.25 11.28-7.06 20.85zM26.56 84.88c-.56 1.05-2.12 3.12-6.83 5.51A71.78 71.78 0 0 1 4.88 95.9 3.83 3.83 0 0 1 4 96a4 4 0 0 1-3.66-5.59A65.84 65.84 0 0 1 6 76.83c2.57-4.64 4.89-6.07 5.76-6.47l3.32 7.28a1.11 1.11 0 0 0 .32-.17A10.12 10.12 0 0 0 13 80.7c-1 1.77-1.79 3.47-2.46 5 1.73-.67 3.64-1.49 5.64-2.48a11 11 0 0 0 3.46-2.3 1 1 0 0 0-.21.36zm34.08-38.25A7.93 7.93 0 0 1 55 49a7.9 7.9 0 0 1-5.63-2.32A8 8 0 0 1 54.94 33a8 8 0 0 1 5.67 13.63z" fill="#333"/></svg>