<svg xmlns="http://www.w3.org/2000/svg" viewBox="0 0 96 96"><path d="M95.87 24.24L90.94 43a4 4 0 0 1-3.86 3 3.92 3.92 0 0 1-1.47-.28l-15.87-6.25A4 4 0 0 1 72.68 32l7.68 3C75 21.37 62.29 12 48.11 12c-15.89 0-29.8 11.53-33.84 28.05a4 4 0 0 1-7.77-1.9C11.41 18 28.52 4 48.11 4c16.34 0 31.05 10 38.27 24.88l1.75-6.67a4 4 0 1 1 7.74 2zm-9.33 28.92a4 4 0 0 0-4.85 2.92C77.62 72.52 63.72 84 47.89 84 33.71 84 21 74.63 15.64 61l7.68 3a4 4 0 0 0 2.94-7.45l-15.87-6.27A4 4 0 0 0 5.06 53L.13 71.76A4 4 0 0 0 3 76.65a3.94 3.94 0 0 0 1 .13 4 4 0 0 0 3.87-3l1.75-6.67C16.84 82 31.55 92 47.89 92c19.52 0 36.61-14 41.57-34a4 4 0 0 0-2.92-4.84z" fill="#333"/></svg>