<svg xmlns="http://www.w3.org/2000/svg" viewBox="0 0 96 96"><path d="M32 48a24 24 0 1 1 24-24 24 24 0 0 1-24 24zm0-40a16 16 0 1 0 16 16A16 16 0 0 0 32 8zm14 84a4 4 0 0 0-4-4H8a.52.52 0 0 1 0-.31 3.8 3.8 0 0 0 .13-.75 10.17 10.17 0 0 1 .26-1.66v-.12c2.11-8.62 5.82-20.09 7.62-22.54 3.5-4.75 9.88-4.62 9.91-4.62h9.31a25 25 0 0 1 3.13.25 4 4 0 0 0 1.15-7.92 30.69 30.69 0 0 0-4.35-.33h-9c-1.23 0-10.81 0-16.56 7.89C5.74 63.16 1 82 .67 83.2A18.35 18.35 0 0 0 .19 86a8.47 8.47 0 0 0 1.54 6.92A7.76 7.76 0 0 0 7.91 96H42a4 4 0 0 0 4-4zm24 4a26 26 0 1 1 26-26 26 26 0 0 1-26 26zm0-44a18 18 0 1 0 18 18 18 18 0 0 0-18-18zm-1.71 28h.3a5.71 5.71 0 0 0 4-2.09l.12-.15 8.47-11.35a4 4 0 1 0-6.41-4.78l-7 9.31-3.18-2.84a4 4 0 0 0-5.32 6l5.1 4.53A5.69 5.69 0 0 0 68.14 80z" fill="#333"/></svg>