<svg xmlns="http://www.w3.org/2000/svg" viewBox="0 0 96 96"><path d="M24.07 82a10 10 0 1 1-10-10 10 10 0 0 1 10 10zM92 88c0-24.77-7.38-44.71-22-59.25C45.45 4.21 9.54 4 8 4a4 4 0 0 0 0 8 96.23 96.23 0 0 1 38.46 9.63C71.37 34.17 84 56.5 84 88a4 4 0 0 0 4 4 4 4 0 0 0 4-4zm-15.91 0c0-35.1-18.61-51.78-34.22-59.58A83.31 83.31 0 0 0 8.08 20a4 4 0 0 0 0 8 76.42 76.42 0 0 1 30.46 7.7c19.6 9.91 29.55 27.5 29.55 52.3a4 4 0 0 0 8 0zm-16-.08c0-26.84-14.26-39.6-26.22-45.58a63.51 63.51 0 0 0-25.79-6.42 4 4 0 1 0 0 8 55.76 55.76 0 0 1 22.22 5.57c14.45 7.23 21.79 20.16 21.79 38.43a4 4 0 0 0 8 0zm-16 .08c0-11.64-3.43-20.73-10.2-27-10.62-9.93-25.46-9-26.09-9a4 4 0 0 0 .55 8c.13 0 12.11-.69 20.14 6.84 5 4.73 7.6 11.84 7.6 21.14a4 4 0 0 0 8 0z" fill="#333"/></svg>