<svg xmlns="http://www.w3.org/2000/svg" viewBox="0 0 96 96"><path d="M94.11 16.49L79.23 1.82A6.31 6.31 0 0 0 74.79 0H8.65A8.66 8.66 0 0 0 0 8.65v78.7A8.66 8.66 0 0 0 8.65 96h78.7A8.66 8.66 0 0 0 96 87.35V21a6.36 6.36 0 0 0-1.89-4.51zM32 8h32v19c0 .05 0 .14-.18.31a2.43 2.43 0 0 1-1.67.57H62L34 28c-1.14 0-2-.65-2-1zm42 80H22V56.44a.56.56 0 0 1 .61-.44h50.72a.62.62 0 0 1 .67.5zm14-.65a.65.65 0 0 1-.65.65H82V56.5a8.59 8.59 0 0 0-8.67-8.5H22.61A8.54 8.54 0 0 0 14 56.44V88H8.65a.65.65 0 0 1-.65-.65V8.65A.65.65 0 0 1 8.65 8H24v19c0 4.95 4.49 9 10 9l28-.1a10.21 10.21 0 0 0 7.42-2.81A8.39 8.39 0 0 0 72 27V8h2.1L88 21.7zm-28-61.3h-8v-16h8z" fill="#333"/></svg>