<svg xmlns="http://www.w3.org/2000/svg" viewBox="0 0 96 96"><path d="M59 12H37a4 4 0 0 1 0-8h22a4 4 0 0 1 0 8zm37 .67v74.66A8.66 8.66 0 0 1 87.37 96H8.64A8.66 8.66 0 0 1 0 87.33V12.64A8.64 8.64 0 0 1 8.61 4H13a4 4 0 0 1 0 8H8.61a.63.63 0 0 0-.61.64V34h80V12.67a.66.66 0 0 0-.64-.67H83a4 4 0 0 1 0-8h4.36A8.66 8.66 0 0 1 96 12.67zm-8 74.66V42H8v45.33a.66.66 0 0 0 .64.67h78.73a.65.65 0 0 0 .63-.67zM33 22a8 8 0 1 1-12-6.92V4a4 4 0 0 1 8 0v11.08A8 8 0 0 1 33 22zm42-6.92V4a4 4 0 0 0-8 0v11.08a8 8 0 1 0 8 0zM24 52a4 4 0 1 1-4-4 4 4 0 0 1 4 4zm10-4a4 4 0 1 0 4 4 4 4 0 0 0-4-4zm14 0a4 4 0 1 0 4 4 4 4 0 0 0-4-4zm14 0a4 4 0 1 0 4 4 4 4 0 0 0-4-4zm14 0a4 4 0 1 0 4 4 4 4 0 0 0-4-4zM20 61a4 4 0 1 0 4 4 4 4 0 0 0-4-4zm14 0a4 4 0 1 0 4 4 4 4 0 0 0-4-4zm14 0a4 4 0 1 0 4 4 4 4 0 0 0-4-4zm14 0a4 4 0 1 0 4 4 4 4 0 0 0-4-4zm14 0a4 4 0 1 0 4 4 4 4 0 0 0-4-4zM20 74a4 4 0 1 0 4 4 4 4 0 0 0-4-4zm14 0a4 4 0 1 0 4 4 4 4 0 0 0-4-4z" fill="#333"/></svg>