<svg xmlns="http://www.w3.org/2000/svg" viewBox="0 0 96 96"><path d="M95.86 29.24L96 12.58v-.53a3.93 3.93 0 0 0-.91-2.54C93.24 6.8 88.42 5 79.74 3.62A213.13 213.13 0 0 0 48 1.52a213.13 213.13 0 0 0-31.74 2.1C4.71 5.46 0 8 0 12.52V29.1a4 4 0 0 0 2.53 3.72c.22.09 1.06.41 2.46.88-3.47 1.5-5 3.42-5 6H0v17.17a4 4 0 0 0 2.59 3.74c.22.09 1.13.42 2.64.9C1.58 63 0 64.93 0 67.52v16.54a4 4 0 0 0 2.62 3.76c1.1.4 18.78 6.7 44.91 6.7A161.42 161.42 0 0 0 93 88a4 4 0 0 0 2.87-3.81L96 68v-.24-.27c0-2.6-1.61-4.53-5.31-6 .77-.22 1.55-.44 2.33-.68A4 4 0 0 0 95.86 57L96 39.8v-.13-.11-.1c-.09-2.44-1.64-4.3-5-5.76l2.07-.7a4 4 0 0 0 2.79-3.76zM8 26.24v-6.61a63.52 63.52 0 0 0 8.26 1.78A211.79 211.79 0 0 0 48 23.51a211.79 211.79 0 0 0 31.74-2.1 63.28 63.28 0 0 0 8.2-1.77l-.06 6.6c-38.47 11.3-70.81 2.88-79.88 0zM48 9.52c17.31 0 29.35 1.52 35.69 3-6.34 1.48-18.38 3-35.69 3s-29.35-1.52-35.69-3c6.34-1.52 18.38-3 35.69-3zM8 54v-7.27a66.86 66.86 0 0 0 8.27 1.72 218 218 0 0 0 31.73 2 218 218 0 0 0 31.73-2 66.76 66.76 0 0 0 8.21-1.7L87.88 54C49.45 64.78 17.15 56.75 8 54zm0 27.14v-6.65a69.68 69.68 0 0 0 8.29 1.68 224.16 224.16 0 0 0 31.71 2 224.16 224.16 0 0 0 31.71-2 69.19 69.19 0 0 0 8.23-1.66v6.62C49.48 91.59 17.2 83.84 8 81.14zm68.25-14.68c2.67.35 4.8.71 6.48 1.06-6.58 1.34-18.29 2.64-34.73 2.64s-28.15-1.3-34.73-2.64c1.57-.33 3.54-.67 6-1a3.94 3.94 0 0 0 2.3-1.16 154.09 154.09 0 0 0 26 2.17 157.33 157.33 0 0 0 26.37-2.23 3.94 3.94 0 0 0 2.31 1.16zm0-28c3 .4 5.25.82 7 1.21C76.77 41.09 64.89 42.5 48 42.5s-28.77-1.41-35.23-2.82c1.65-.37 3.77-.76 6.49-1.14a3.89 3.89 0 0 0 1.91-.83 148.2 148.2 0 0 0 26.36 2.34 151 151 0 0 0 26.79-2.4 3.88 3.88 0 0 0 1.91.82z" fill="#333"/></svg>