<svg xmlns="http://www.w3.org/2000/svg" viewBox="0 0 96 96"><path d="M32 20A12 12 0 1 1 20 8a12 12 0 0 1 12 12zM12 36a12 12 0 1 0 12 12 12 12 0 0 0-12-12zm8 28a12 12 0 1 0 12 12 12 12 0 0 0-12-12zm28 8a12 12 0 1 0 12 12 12 12 0 0 0-12-12zm28-8a12 12 0 1 0 12 12 12 12 0 0 0-12-12zm20-16a12 12 0 1 0-12 12 12 12 0 0 0 12-12zm-8 0a4 4 0 1 1-4-4 4 4 0 0 1 4 4zm0-28a12 12 0 1 0-12 12 12 12 0 0 0 12-12zm-8 0a4 4 0 1 1-4-4 4 4 0 0 1 4 4zm-20-8a12 12 0 1 0-12 12 12 12 0 0 0 12-12zm-8 0a4 4 0 1 1-4-4 4 4 0 0 1 4 4z" fill="#333"/></svg>