<svg xmlns="http://www.w3.org/2000/svg" viewBox="0 0 96 96"><path d="M80 44H50.94c-23.75-7.93-19.65-22.51-19.46-23.12 1.72-5.38 4.74-9 9.23-11C53 4.39 71.84 12.64 72 12.72a4 4 0 1 0 3.26-7.3C74.4 5 53.07-4.38 37.47 2.59c-6.61 2.94-11.19 8.28-13.61 15.83a22.69 22.69 0 0 0 1.84 16.32A28.11 28.11 0 0 0 33.56 44H16a4 4 0 0 0 0 8h33.63c11.35 3.62 18.7 8.47 21.28 14 1.51 3.26 1.44 6.91-.19 10.86C70 78.4 59.5 96.79 21.38 82.77a4 4 0 0 0-2.76 7.51C30 94.44 39.27 96 46.88 96 70.25 96 77.59 81.11 78 80.27l.06-.14c2.56-6.07 2.6-12.09.13-17.43-1.85-4-5.08-7.58-9.64-10.7H80a4 4 0 0 0 0-8z" fill="#333"/></svg>