<svg xmlns="http://www.w3.org/2000/svg" viewBox="0 0 96 96"><path d="M75.64 18.22C65.94 11.29 55.47 4 51.42 1.14a6.32 6.32 0 0 0-7.19 0C0 31.7 0 32.28 0 35.08v54.59A6.33 6.33 0 0 0 6.31 96h83.37A6.33 6.33 0 0 0 96 89.67v-54c0-2.62 0-2.89-20.36-17.45zM8 40.92l24.45 24.77L8 83.3zm39.62 23.7a.65.65 0 0 1 .75 0L80.82 88H15.17zm15.93 1.08L88 41v42.31zM47.81 8.37C63.93 19.62 76.86 28.86 83.7 34L57 61l-4-2.87a8.63 8.63 0 0 0-10.09 0L39 61 12 33.68c6.79-5.03 19.7-14.16 35.81-25.31zM44.66 47a4 4 0 0 1-2.81-1.15l-8.66-8.52a4 4 0 1 1 5.62-5.7l5.77 5.68 12.53-13.08a4 4 0 0 1 5.78 5.54l-15.35 16A4 4 0 0 1 44.71 47z" fill="#333"/></svg>