<svg xmlns="http://www.w3.org/2000/svg" viewBox="0 0 96 96"><path d="M96 52v17.34c0 6-3.93 10.66-9 10.66H11.36l7.74 9.47a4 4 0 0 1-6.2 5.06L1.68 80.8A7.57 7.57 0 0 1 0 76a7.58 7.58 0 0 1 1.68-4.8L12.9 57.47a4 4 0 1 1 6.2 5.06L11.35 72h75.7a3.43 3.43 0 0 0 1-2.66V52a4 4 0 0 1 8 0zm0-32a7.57 7.57 0 0 0-1.68-4.77L83.1 1.47a4 4 0 0 0-6.2 5.06L84.64 16H9c-5.07 0-9 4.68-9 10.66V44a4 4 0 0 0 8 0V26.66A3.43 3.43 0 0 1 9 24h75.7l-7.8 9.47a4 4 0 0 0 6.2 5.06l11.22-13.72A7.58 7.58 0 0 0 96 20z" fill="#333"/></svg>