<svg xmlns="http://www.w3.org/2000/svg" viewBox="0 0 96 96"><path d="M92 0H4a4 4 0 0 0-4 4v88a4 4 0 0 0 4 4h42.84a3.68 3.68 0 0 0 .58-.06A3.68 3.68 0 0 0 48 96a4 4 0 0 0 4-4V52h40a4 4 0 0 0 4-4V4a4 4 0 0 0-4-4zM44 88H30V74h14zm-22 0H8V74h14zM8 8h14v14H8zm0 58V52h14v14zm0-22V30h14v14zm22-14h14v14H30zm0-8V8h14v14zM52 8h14v14H52zm22 0h14v14H74zm14 22v14H74V30zM44 66H30V52h14zm8-36h14v14H52zm38 44a4 4 0 0 1-4 4h-8v8a4 4 0 0 1-8 0v-8h-8a4 4 0 0 1 0-8h8v-8a4 4 0 0 1 8 0v8h8a4 4 0 0 1 4 4z" fill="#333"/></svg>