<svg xmlns="http://www.w3.org/2000/svg" viewBox="0 0 96 96"><path d="M76 70.9a4 4 0 0 0-4-4H4a4 4 0 0 0-4 4v20a3.31 3.31 0 0 0 .06.55A3.31 3.31 0 0 0 0 92a4 4 0 0 0 4 4h68a4 4 0 0 0 4-4 3.31 3.31 0 0 0-.06-.55 3.31 3.31 0 0 0 .06-.55zM30 87.61V74.9h16V88H30v-.39zM22 88H8V74.9h14V88zm32-.36V74.9h14V88H54v-.36zM96 39v18a2 2 0 0 1-2 2H26a2 2 0 0 1-2-2V39a2 2 0 0 1 2-2h68a2 2 0 0 1 2 2zM76 4a4 4 0 0 0-4-4H4a4 4 0 0 0-4 4v20a3.31 3.31 0 0 0 .06.55 3.31 3.31 0 0 0-.06.55 4 4 0 0 0 4 4h68a4 4 0 0 0 4-4 3.31 3.31 0 0 0-.06-.55A3.31 3.31 0 0 0 76 24zM30 20.71V8h16v13.1H30v-.39zm-8 .39H8V8h14V21.1zm32-.35V8h14v13.1H54v-.35z" fill="#333"/></svg>