<svg xmlns="http://www.w3.org/2000/svg" viewBox="0 0 96 96"><path d="M92 20a3.31 3.31 0 0 0-.55.06 3.31 3.31 0 0 0-.55-.06h-20a4 4 0 0 0-4 4v68a4 4 0 0 0 4 4h20a3.31 3.31 0 0 0 .55-.06A3.31 3.31 0 0 0 92 96a4 4 0 0 0 4-4V24a4 4 0 0 0-4-4zm-4 46H74.9V50H88zm0-24H74.9V28H88zM74.9 74H88v14H74.9zM59 2v68a2 2 0 0 1-2 2H39a2 2 0 0 1-2-2V2a2 2 0 0 1 2-2h18a2 2 0 0 1 2 2zM25.1 20a3.31 3.31 0 0 0-.55.06A3.31 3.31 0 0 0 24 20H4a4 4 0 0 0-4 4v68a4 4 0 0 0 4 4h20a3.31 3.31 0 0 0 .55-.06 3.31 3.31 0 0 0 .55.06 4 4 0 0 0 4-4V24a4 4 0 0 0-4-4zm-4 46H8V50h13.1zm0-24H8V28h13.1zM8 74H21.1v14H8z" fill="#333"/></svg>