<svg xmlns="http://www.w3.org/2000/svg" viewBox="0 0 96 96"><path d="M42.66 90.72h-.65a9 9 0 0 1-6.17-3.14L1 47.21a4 4 0 0 1-1-2.63l.13-32a8.48 8.48 0 0 1 3-6.52 8.49 8.49 0 0 1 7-2L41 9.25a4 4 0 0 1 2.37 1.33l34.79 40.33a9.2 9.2 0 0 1-.89 12.69l-29 25a8.46 8.46 0 0 1-5.61 2.12zM8 43.11l33.9 39.24a1 1 0 0 0 .67.36.57.57 0 0 0 .43-.11l29-25a1.19 1.19 0 0 0 .07-1.45L38.21 16.9 8.77 12a.55.55 0 0 0-.42.16.53.53 0 0 0-.22.4zM63.42 91l29.35-25.61a9.74 9.74 0 0 0 .93-13.53L62.65 14.8a4 4 0 0 0-6.14 5.14L87.57 57a1.76 1.76 0 0 1-.06 2.38L58.15 85a4 4 0 0 0 5.27 6zM23.35 38.12a8 8 0 1 0-5.66-2.34 7.94 7.94 0 0 0 5.66 2.34z" fill="#333"/></svg>