<svg xmlns="http://www.w3.org/2000/svg" viewBox="0 0 96 96"><path d="M27 74a4 4 0 0 1-3.55-2.16l-10-19.28a3.94 3.94 0 0 1-.45-1.84V6a4 4 0 0 1 4-4h20a4 4 0 0 1 4 4v44.72a3.94 3.94 0 0 1-.45 1.84l-10 19.28A4 4 0 0 1 27 74zm-6-24.26l6 11.57 6-11.57V10H21zm16 1zM69 74a4 4 0 0 1-3.55-2.16l-10-19.28a3.94 3.94 0 0 1-.45-1.84V6a4 4 0 0 1 4-4h20a4 4 0 0 1 4 4v44.72a3.94 3.94 0 0 1-.45 1.84l-10 19.28A4 4 0 0 1 69 74zm-6-24.26l6 11.57 6-11.57V10H63zm16 1zM92 81H76.89a9 9 0 0 0-16.1 0H35.21a9 9 0 0 0-16.1 0H4a4 4 0 0 0 0 8h15.11a9 9 0 0 0 16.1 0h25.58a9 9 0 0 0 16.1 0H92a4 4 0 0 0 0-8z" fill="#333"/></svg>