<svg xmlns="http://www.w3.org/2000/svg" viewBox="0 0 96 96"><path d="M87 16H71V8.08C71 3.47 68.25 0 64.6 0H29.34C25.72 0 23 3.43 23 8v8H7a4 4 0 0 0 0 8h6v63.45A8.62 8.62 0 0 0 21.67 96h50.85A8.44 8.44 0 0 0 81 87.63V24h6a4 4 0 0 0 0-8zM31 8h32v8H31zm42 79.63a.44.44 0 0 1-.48.37H21.67a.63.63 0 0 1-.67-.55V24h52zm-12.18-18.8a4 4 0 0 1-5.65 0L48 61.63l-7.17 7.19a4 4 0 0 1-5.66-5.64L42.35 56l-7.11-7.14a4 4 0 0 1 5.67-5.64L48 50.29l7.09-7.11a4 4 0 0 1 5.67 5.64L53.65 56l7.18 7.22a4 4 0 0 1-.01 5.61z" fill="#333"/></svg>