<svg xmlns="http://www.w3.org/2000/svg" viewBox="0 0 96 96"><path d="M73.52 96H22.67A8.62 8.62 0 0 1 14 87.45V38a4 4 0 0 1 8 0v49.45a.63.63 0 0 0 .67.55h50.85a.44.44 0 0 0 .48-.37V38a4 4 0 0 1 8 0v49.63A8.44 8.44 0 0 1 73.52 96zM92 20a4 4 0 0 1-4 4H8a4 4 0 0 1 0-8h16V8c0-4.54 2.72-8 6.34-8H65.6C69.25 0 72 3.47 72 8.08V16h16a4 4 0 0 1 4 4zm-60-4h32V8H32zm31.84 43.43a4 4 0 0 0-5.66-.14L52 65.18V43.37a4 4 0 0 0-8 0v21.8l-6.19-5.88a4 4 0 0 0-5.51 5.8l11.1 10.55a6.62 6.62 0 0 0 4.6 1.83 6.66 6.66 0 0 0 4.59-1.82L63.7 65.09a4 4 0 0 0 .14-5.66z" fill="#333"/></svg>