<svg xmlns="http://www.w3.org/2000/svg" viewBox="0 0 96 96"><path d="M94 9.81A6 6 0 0 0 89.71 8l-83.4.19A6.55 6.55 0 0 0 0 14.93V33.3a6.93 6.93 0 0 0 2 4.9A6.13 6.13 0 0 0 6 40v41.77A6.24 6.24 0 0 0 12.23 88h71.54A6.24 6.24 0 0 0 90 81.77V39.71A6.53 6.53 0 0 0 96 33V14.7a6.9 6.9 0 0 0-2-4.89zM8 16.19L88 16v15.73L8 32zM14 80V40l68-.22V80zm46.82-7.17a4 4 0 0 1-5.65 0L48 65.63l-7.17 7.19a4 4 0 0 1-5.66-5.64L42.35 60l-7.11-7.14a4 4 0 0 1 5.67-5.64L48 54.29l7.09-7.11a4 4 0 0 1 5.67 5.64L53.65 60l7.18 7.22a4 4 0 0 1-.01 5.61z" fill="#333"/></svg>