<svg xmlns="http://www.w3.org/2000/svg" viewBox="0 0 96 96"><path d="M48 48a24 24 0 1 1 24-24 24 24 0 0 1-24 24zm0-40a16 16 0 1 0 16 16A16 16 0 0 0 48 8zm24.14 88H23.91a7.76 7.76 0 0 1-6.18-3.06A8.47 8.47 0 0 1 16.19 86a18.35 18.35 0 0 1 .48-2.82c.3-1.21 5.07-20 8.92-25.31C31.34 50 40.91 50 42.15 50h9c.49 0 13.51-.16 18.75 8.5 4 5.28 8.82 22.6 9.62 25.86 0 .13 0 .25.07.37l.16 1.13a8.42 8.42 0 0 1-1.45 7A7.68 7.68 0 0 1 72.14 96zM24 88h48a.44.44 0 0 0 0-.26 3.1 3.1 0 0 1-.11-.51l-.17-1.16c-1.79-7.28-6.06-20.19-8.19-22.74a4.42 4.42 0 0 1-.39-.57c-2.3-4-9.4-4.82-11.9-4.76h-9.32s-6.41-.13-9.87 4.61c-1.8 2.46-5.51 13.93-7.62 22.55v.12a10.17 10.17 0 0 0-.26 1.66 3.8 3.8 0 0 1-.13.75.51.51 0 0 0-.04.31z" fill="#333"/></svg>