<svg xmlns="http://www.w3.org/2000/svg" viewBox="0 0 96 96"><path d="M88.87 82.5h-6.65a4 4 0 0 1 0-8h5.68a.22.22 0 0 1 0-.08 9 9 0 0 0-.18-1.22v-.12C86 66.26 83.06 56.85 81.69 55c-2.52-3.51-7.06-3.45-7.25-3.44h-3.33a4 4 0 0 1 0-8h3.14c1.15 0 9.13.07 13.94 6.76 3.15 4.39 7 19.8 7.25 20.87a15.1 15.1 0 0 1 .4 2.37 7.7 7.7 0 0 1-1.42 6.23 7 7 0 0 1-5.55 2.71zM77.5 41.67A20.45 20.45 0 0 0 69.57 2.5a20.72 20.72 0 0 0-3.24.26 4 4 0 0 0 1.29 7.9 11.57 11.57 0 0 1 1.95-.16 12.45 12.45 0 0 1 4.75 23.83 4 4 0 1 0 3.18 7.34zM20.09 42a4 4 0 0 1-1.59-.33A20.45 20.45 0 0 1 26.43 2.5a20.72 20.72 0 0 1 3.24.26 4 4 0 0 1-1.29 7.9 11.57 11.57 0 0 0-1.95-.16 12.45 12.45 0 0 0-4.75 23.83A4 4 0 0 1 20.09 42zm-2.31 36.5a4 4 0 0 0-4-4H8.1a.22.22 0 0 0 0-.08 9 9 0 0 1 .18-1.22v-.12c1.65-6.82 4.62-16.23 6-18.13 2.52-3.51 7-3.44 7.21-3.44h3.37a4 4 0 0 0 0-8h-3.11c-1.17 0-9.13.07-13.93 6.76-3.16 4.4-7 19.81-7.26 20.88a15.1 15.1 0 0 0-.4 2.37 7.7 7.7 0 0 0 1.42 6.23 7 7 0 0 0 5.55 2.75h6.65a4 4 0 0 0 4-4zm51.77 15H26.49a7.32 7.32 0 0 1-5.85-2.9 8 8 0 0 1-1.47-6.51 17.46 17.46 0 0 1 .44-2.57c.29-1.13 4.55-18 8-22.78 5.25-7.19 14-7.26 15.14-7.24h8c1.2 0 12.37 0 17.09 7.8 3.62 4.77 7.79 19.74 8.65 23.27 0 .12.05.25.07.37l.14 1a8 8 0 0 1-1.37 6.64 7.31 7.31 0 0 1-5.78 2.92zm-42.49-8h41.87v-.21l-.14-1c-1.79-7.17-5.58-18.16-7.26-20.18a4.49 4.49 0 0 1-.4-.57c-1.93-3.38-8.19-4.07-10.24-4h-8.34s-5.49-.1-8.44 4c-1.55 2.13-4.9 12.51-6.74 20v.12a9 9 0 0 0-.22 1.4 4 4 0 0 1-.09.44zM48 50.5a22 22 0 1 1 22-22 22 22 0 0 1-22 22zm0-36a14 14 0 1 0 14 14 14 14 0 0 0-14-14z" fill="#333"/></svg>