<svg xmlns="http://www.w3.org/2000/svg" viewBox="0 0 96 96"><path d="M54 47.82a6 6 0 1 1-6-6 6 6 0 0 1 6 6zm12 0a18 18 0 1 1-18-18 18 18 0 0 1 18 18zm-8 0a10 10 0 1 0-10 10 10 10 0 0 0 10-10zm37.34-2.21C80.26 22.76 64 11.47 47 12 19.57 12.92 1.29 44.49.52 45.84A4.09 4.09 0 0 0 0 48a4 4 0 0 0 .52 2.16 90.23 90.23 0 0 0 12.61 16.39C23.8 77.58 35.52 83.6 47 84h1.2c16.56 0 32.42-11.3 47.14-33.61a4.66 4.66 0 0 0 0-4.78zM47.29 76c-19.57-.63-34.6-21.64-38.7-28 4.1-6.35 19.13-27.36 38.7-28 13.52-.45 27 9 40 28-13 19-26.46 28.43-40 28z" fill="#333"/></svg>