<svg xmlns="http://www.w3.org/2000/svg" viewBox="0 0 96 96"><path d="M92 16H32a4 4 0 0 1 0-8h60a4 4 0 0 1 0 8zm-30 8a4 4 0 0 0-4-4H32a4 4 0 0 0 0 8h26a4 4 0 0 0 4-4zm34 18a4 4 0 0 0-4-4H32a4 4 0 0 0 0 8h60a4 4 0 0 0 4-4zM62 54a4 4 0 0 0-4-4H32a4 4 0 0 0 0 8h26a4 4 0 0 0 4-4zm34 18a4 4 0 0 0-4-4H32a4 4 0 0 0 0 8h60a4 4 0 0 0 4-4zM62 84a4 4 0 0 0-4-4H32a4 4 0 0 0 0 8h26a4 4 0 0 0 4-4zM24 22v-8a8 8 0 0 0-8-8H8a8 8 0 0 0-8 8v8a8 8 0 0 0 8 8h8a8 8 0 0 0 8-8zm-8-8v8H8v-8zm8 38v-8a8 8 0 0 0-8-8H8a8 8 0 0 0-8 8v8a8 8 0 0 0 8 8h8a8 8 0 0 0 8-8zm-8-8v8H8v-8zm8 38v-8a8 8 0 0 0-8-8H8a8 8 0 0 0-8 8v8a8 8 0 0 0 8 8h8a8 8 0 0 0 8-8zm-8-8v8H8v-8z" fill="#333"/></svg>