<svg xmlns="http://www.w3.org/2000/svg" viewBox="0 0 96 96"><path d="M95.35 50.2C84.62 66.53 68.39 84 48.09 84a38.18 38.18 0 0 1-13.51-2.56A4 4 0 0 1 37.41 74c17 6.42 33.82-2.46 50.05-26.36a106.36 106.36 0 0 0-10.25-11.78 4 4 0 1 1 5.59-5.72 118 118 0 0 1 12.43 14.49 4 4 0 0 1 .77 2.92 4 4 0 0 1-.65 2.65zm-34-35.93C46.68 9 31.41 13 17.21 25.7A91.33 91.33 0 0 0 .51 46 3.93 3.93 0 0 0 0 48.51a3.92 3.92 0 0 0 .59 2.66 89.2 89.2 0 0 0 12.65 14.74 4 4 0 1 0 5.5-5.82A86 86 0 0 1 8.44 48.4c4.61-7.15 24.89-35.67 50.21-26.6a4 4 0 0 0 2.7-7.53zM34 50a4.71 4.71 0 0 1-.53 0A4 4 0 0 1 30 45.48 18.08 18.08 0 0 1 45.43 30a4 4 0 1 1 1.13 8A10.08 10.08 0 0 0 38 46.52 4 4 0 0 1 34 50zm16.51 16a17.78 17.78 0 0 0 15.33-14.52c.06-.36.1-.73.14-1.09a4 4 0 1 0-8-.78c0 .2-.05.39-.08.58A9.72 9.72 0 0 1 49.48 58a4 4 0 0 0 .52 8 4.53 4.53 0 0 0 .51 0zm34.32-54.8a4 4 0 0 0-5.66 0L48.32 42H48a6 6 0 0 0-6 6v.33L11.16 79.17a4 4 0 0 0 5.66 5.66L47.67 54H48a6 6 0 0 0 6-6v-.33l30.83-30.84a4 4 0 0 0 0-5.66z" fill="#333"/></svg>