<svg xmlns="http://www.w3.org/2000/svg" viewBox="0 0 96 96"><path d="M16 90H8a8 8 0 0 1-8-8v-8a8 8 0 0 1 8-8h8a8 8 0 0 1 8 8v8a8 8 0 0 1-8 8zM8 74v8h8v-8zm8-14H8a8 8 0 0 1-8-8v-8a8 8 0 0 1 8-8h8a8 8 0 0 1 8 8v8a8 8 0 0 1-8 8zM8 44v8h8v-8zm8-14H8a8 8 0 0 1-8-8v-8a8 8 0 0 1 8-8h8a8 8 0 0 1 8 8v8a8 8 0 0 1-8 8zM8 14v8h8v-8zm82 76H34a6 6 0 0 1-6-6V72a6 6 0 0 1 6-6h56a6 6 0 0 1 6 6v12a6 6 0 0 1-6 6zm-54-8h52v-8H36zm54-22H34a6 6 0 0 1-6-6V42a6 6 0 0 1 6-6h56a6 6 0 0 1 6 6v12a6 6 0 0 1-6 6zm-54-8h52v-8H36zm54-22H34a6 6 0 0 1-6-6V12a6 6 0 0 1 6-6h56a6 6 0 0 1 6 6v12a6 6 0 0 1-6 6zm-54-8h52v-8H36z" fill="#333"/></svg>