<svg xmlns="http://www.w3.org/2000/svg" viewBox="0 0 96 96"><path d="M77.5 22a4.12 4.12 0 0 1-1.79-.42 4 4 0 0 1-1.79-5.37l6-12a4 4 0 0 1 7.16 3.58l-6 12A4 4 0 0 1 77.5 22zm16.79 21.27a4 4 0 0 0-2.52-5.06l-12-4a4 4 0 0 0-2.54 7.58l12 4a4 4 0 0 0 5.06-2.52zM54.88 30A4 4 0 0 0 52 25.12l-16-4a4 4 0 1 0-2 7.76l16 4a4.09 4.09 0 0 0 1 .12 4 4 0 0 0 3.88-3zm16.59 38.88A4 4 0 0 0 74.38 64l-4-16a4 4 0 0 0-7.76 2l4 16a4 4 0 0 0 3.88 3 4.09 4.09 0 0 0 .97-.12zm-10-45A4 4 0 0 0 64.38 19l-4-16a4 4 0 1 0-7.76 2l4 16a4 4 0 0 0 3.88 3 4.09 4.09 0 0 0 .97-.12zm-7.14 25l16-16a4 4 0 0 0-5.66-5.66l-16 16a4 4 0 0 0 5.66 5.66zm-46 46l38-38a4 4 0 0 0-5.66-5.66l-38 38a4 4 0 0 0 5.66 5.66z" fill="#333"/></svg>