<svg xmlns="http://www.w3.org/2000/svg" viewBox="0 0 96 96"><path d="M48 51a4 4 0 0 1-4-4V23a4 4 0 0 1 8 0v24a4 4 0 0 1-4 4zm0 6a10 10 0 1 0 10 10 10 10 0 0 0-10-10zm45.59 28.82A17.13 17.13 0 0 0 94.44 70a1.62 1.62 0 0 1-.1-.18L62 13.38a15.81 15.81 0 0 0-27.92 0L1.67 69.77c0 .06-.07.11-.1.18a17 17 0 0 0 .84 15.86c2 3.3 5.07 5.19 8.37 5.19h74.44c3.29 0 6.34-1.89 8.37-5.18zM41 17.37a7.82 7.82 0 0 1 14 0l32.34 56.28a9.14 9.14 0 0 1-.57 8c-.51.83-1.12 1.37-1.55 1.37H10.78c-.43 0-1-.54-1.55-1.37a9.11 9.11 0 0 1-.56-8z" fill="#333"/></svg>