<svg xmlns="http://www.w3.org/2000/svg" viewBox="0 0 96 96"><path d="M42.24 50h-3.56l-2-7.35c-.08-.27-.2-.81-.38-1.63s-.3-1.37-.3-1.65c0 .35-.14.9-.3 1.66s-.29 1.31-.38 1.63l-2 7.34h-3.55L26 36h3.08L31 43.64c.33 1.41.57 2.63.72 3.67 0-.36.13-.93.27-1.69s.29-1.36.41-1.78L34.53 36h2.95l2.16 7.84c.09.35.21.89.35 1.61s.25 1.34.32 1.86q.11-.75.33-1.86c.14-.75.28-1.35.4-1.81L42.92 36H46zM48 35.53c0-1 .67-1.53 2-1.53s2 .51 2 1.53a1.39 1.39 0 0 1-.5 1.14 2.34 2.34 0 0 1-1.5.4c-1.33 0-2-.51-2-1.54zM51.83 50h-3.67V38.5h3.67zm4.81-6.25l1.2-1.75 2.82-3.5h3.1l-4 5L64 50h-3.17l-2.9-4.66-1.18 1.08V50H54V34h2.75v7.14l-.15 2.61zM66 35.53c0-1 .67-1.53 2-1.53s2 .51 2 1.53a1.39 1.39 0 0 1-.5 1.14 2.34 2.34 0 0 1-1.5.4c-1.33 0-2-.51-2-1.54zM69.83 50h-3.67V38.5h3.67zM92 64h-4V19.76A7.67 7.67 0 0 0 80.43 12H16.25A8.38 8.38 0 0 0 8 20.49V64H4a4 4 0 0 0-4 4v3.09A12.92 12.92 0 0 0 12.91 84H84a12 12 0 0 0 12-12v-4a4 4 0 0 0-4-4zM16 20.49a.51.51 0 0 1 .25-.49H80v44H16zM88 72a4 4 0 0 1-4 4H12.91a4.93 4.93 0 0 1-4.83-4z" fill="#333"/></svg>