<svg xmlns="http://www.w3.org/2000/svg" viewBox="0 0 96 96"><path d="M42.24 72h-3.56l-2-7.35c-.08-.27-.2-.81-.38-1.63s-.3-1.37-.3-1.65c0 .35-.14.9-.3 1.66s-.29 1.31-.38 1.63l-2 7.34h-3.55L26 58h3.08L31 65.64c.33 1.41.57 2.63.72 3.67 0-.36.13-.93.27-1.69s.29-1.36.41-1.78L34.53 58h2.95l2.16 7.84c.09.35.21.89.35 1.61s.25 1.34.32 1.86q.11-.75.33-1.86c.14-.75.28-1.35.4-1.81L42.92 58H46zM48 57.53c0-1 .67-1.53 2-1.53s2 .51 2 1.53a1.39 1.39 0 0 1-.5 1.14 2.34 2.34 0 0 1-1.5.4c-1.33 0-2-.51-2-1.54zM51.83 72h-3.67V60.5h3.67zm4.81-6.25l1.2-1.75 2.82-3.5h3.1l-4 5L64 72h-3.17l-2.9-4.66-1.18 1.08V72H54V56h2.75v7.14l-.15 2.61zM66 57.53c0-1 .67-1.53 2-1.53s2 .51 2 1.53a1.39 1.39 0 0 1-.5 1.14 2.34 2.34 0 0 1-1.5.4c-1.33 0-2-.51-2-1.54zM69.83 72h-3.67V60.5h3.67zM83 29.2L58.37 1.35a4 4 0 0 0-3-1.35H16a4 4 0 0 0-4 4v88a4 4 0 0 0 4 4h64a4 4 0 0 0 4-4V31.85a4 4 0 0 0-1-2.65zM74.79 32H64c-5.76 0-8-2.26-8-8.06V10.75zM20 88V8h28v15.94C48 34.15 53.86 40 64 40h12v48z" fill="#333"/></svg>