<svg xmlns="http://www.w3.org/2000/svg" xmlns:xlink="http://www.w3.org/1999/xlink" width="16px" height="64px" viewBox="0 0 16 64" version="1.1">
    <g id="Symbols" stroke="none" stroke-width="1" fill="none" fill-rule="evenodd">
        <g id="strategy/level2/empty" transform="translate(-441.000000, 0.000000)">
            <g id="Group" transform="translate(441.000000, 0.000000)">
                <line x1="8" y1="6.8191286e-13" x2="7.57633366" y2="55.500291" id="Line-3" stroke="#E0E0E8"/>
                <path d="M9.78885438,51.5777088 L14.5527864,61.1055728 C15.0467649,62.0935298 14.6463162,63.2948759 13.6583592,63.7888544 C13.3806483,63.9277098 13.0744222,64 12.763932,64 L3.23606798,64 C2.13149848,64 1.23606798,63.1045695 1.23606798,62 C1.23606798,61.6895098 1.30835816,61.3832837 1.4472136,61.1055728 L6.21114562,51.5777088 C6.70512412,50.5897518 7.9064702,50.1893031 8.89442719,50.6832816 C9.281482,50.876809 9.59532698,51.190654 9.78885438,51.5777088 Z" id="Triangle" fill="#E0E0E8" transform="translate(8.000000, 56.000000) scale(1, -1) translate(-8.000000, -56.000000) "/>
            </g>
        </g>
    </g>
</svg>
