<?xml version="1.0" encoding="UTF-8"?><svg id="Layer_1" xmlns="http://www.w3.org/2000/svg" viewBox="0 0 48 48"><defs><style>.cls-1{stroke:#db0032;}.cls-1,.cls-2{fill:none;stroke-linecap:round;stroke-linejoin:round;stroke-width:4px;}.cls-2{stroke:#ae1164;}</style></defs><path class="cls-2" d="M42.99,2c0-.55-.45-1-1-1h-14.96c-.55-.02-1.01,.42-1.03,.97,0,.29,.11,.57,.32,.76l14.97,14.95c.4,.39,1.03,.38,1.42-.01,.18-.19,.28-.43,.29-.69V2Z"/><path class="cls-2" d="M28.14,4.54l11.31,11.31h0l-12.73,12.73c-.78,.78-2.05,.78-2.83,0l-8.48-8.48c-.78-.78-.78-2.05,0-2.83L28.14,4.54Z"/><path class="cls-2" d="M17.74,23.41l-12.73,12.74"/><path class="cls-2" d="M21.05,25.77s-5.66,4.24,0,9.9"/><path class="cls-1" d="M26.36,47l2-4,4-2-4-2-2-4-2,4-4,2,4,2,2,4Z"/></svg>