<svg width="32" height="32" viewBox="0 0 32 32" fill="none" xmlns="http://www.w3.org/2000/svg">
<g clip-path="url(#clip0_102_9)">
<path fill-rule="evenodd" clip-rule="evenodd" d="M16.8303 17.5002C16.3017 17.0519 15.9991 16.4062 16 15.7279C16.0007 15.0482 16.3046 14.4015 16.8345 13.9525L28.7014 3.8987C29.2259 3.4332 29.9711 3.2778 30.6487 3.4926C31.3262 3.7074 31.8298 4.2587 31.9646 4.9332C32.0993 5.6078 31.8441 6.2997 31.2976 6.7412L20.9168 15.5352C20.8592 15.5838 20.8261 15.6541 20.8261 15.7279C20.8261 15.8017 20.8592 15.8719 20.9168 15.9206L31.2976 24.7145C32.083 25.4116 32.1468 26.5848 31.4415 27.3571C30.7361 28.1293 29.5195 28.2181 28.7014 27.557L16.8303 17.5002ZM0.8303 17.5002C0.3017 17.0519 -0.000898986 16.4062 1.07286e-06 15.7279C0.000701132 15.0482 0.304602 14.4015 0.834602 13.9525L12.7014 3.8987C13.2259 3.4332 13.9711 3.2778 14.6487 3.4926C15.3262 3.7074 15.8298 4.2587 15.9646 4.9332C16.0993 5.6078 15.8441 6.2997 15.2977 6.7412L4.9168 15.5352C4.8592 15.5838 4.8261 15.6541 4.8261 15.7279C4.8261 15.8017 4.8592 15.8719 4.9168 15.9206L15.2977 24.7145C16.083 25.4116 16.1468 26.5848 15.4415 27.3571C14.7361 28.1293 13.5195 28.2181 12.7014 27.557L0.8303 17.5002Z" fill="#131C26"/>
</g>
<defs>
<clipPath id="clip0_102_9">
<rect width="32" height="32" fill="white" transform="translate(32 32) rotate(-180)"/>
</clipPath>
</defs>
</svg>
