<svg width="32" height="32" viewBox="0 0 32 32" fill="none" xmlns="http://www.w3.org/2000/svg">
<g clip-path="url(#clip0_220_4463)">
<path fill-rule="evenodd" clip-rule="evenodd" d="M15.1697 14.4998C15.6983 14.9481 16.0009 15.5938 16 16.2721C15.9993 16.9518 15.6954 17.5985 15.1655 18.0475L3.29863 28.1013C2.77411 28.5668 2.02889 28.7222 1.35134 28.5074C0.673786 28.2926 0.1702 27.7413 0.0354483 27.0668C-0.0993034 26.3922 0.15592 25.7003 0.702357 25.2588L11.0832 16.4648C11.1408 16.4162 11.1739 16.3459 11.1739 16.2721C11.1739 16.1983 11.1408 16.1281 11.0832 16.0794L0.702357 7.28546C-0.0829722 6.58844 -0.146828 5.41517 0.558536 4.64292C1.2639 3.87066 2.48048 3.78189 3.29863 4.44298L15.1697 14.4998ZM31.1697 14.4998C31.6983 14.9481 32.0009 15.5938 32 16.2721C31.9993 16.9518 31.6954 17.5985 31.1654 18.0475L19.2986 28.1013C18.7741 28.5668 18.0289 28.7222 17.3513 28.5074C16.6738 28.2926 16.1702 27.7413 16.0354 27.0668C15.9007 26.3922 16.1559 25.7003 16.7023 25.2588L27.0832 16.4648C27.1408 16.4162 27.1739 16.3459 27.1739 16.2721C27.1739 16.1983 27.1408 16.1281 27.0832 16.0794L16.7023 7.28546C15.917 6.58844 15.8532 5.41517 16.5585 4.64292C17.2639 3.87066 18.4805 3.78189 19.2986 4.44298L31.1697 14.4998Z" fill="#131C26"/>
</g>
<defs>
<clipPath id="clip0_220_4463">
<rect width="32" height="32" fill="white"/>
</clipPath>
</defs>
</svg>
