<?xml version="1.0" encoding="UTF-8"?><svg id="content_edit" xmlns="http://www.w3.org/2000/svg" viewBox="0 0 48 48"><defs><style>.cls-1{stroke:white;}.cls-1,.cls-2{fill:none;stroke-linecap:round;stroke-linejoin:round;stroke-width:4px;}.cls-2{stroke:white;}</style></defs><path class="cls-2" d="M9.03,17.02H27.95"/><path class="cls-2" d="M9.03,22.99H27.95"/><path class="cls-2" d="M9.03,11.07h13.94"/><path class="cls-2" d="M9.03,28.97h14.92"/><path class="cls-2" d="M9.03,34.94h7.96"/><path class="cls-2" d="M17,46.87H3.06c-1.09,0-1.98-.88-1.99-1.97V3.08c0-1.1,.89-1.99,1.99-1.99H29.53c.53,0,1.03,.21,1.41,.59l7.38,7.38c.38,.37,.59,.88,.59,1.41v6.56"/><path class="cls-1" d="M31.33,44.52l-8.36,2.35,2.39-8.36,14.3-14.27c1.61-1.69,4.29-1.74,5.97-.13,1.69,1.61,1.74,4.29,.13,5.97-.04,.04-.08,.09-.13,.13l-14.3,14.31Z"/><path class="cls-1" d="M37.87,26.02l5.97,5.97"/><path class="cls-1" d="M25.36,38.53l5.97,5.99"/></svg>