<svg width="17" height="16" viewBox="0 0 17 16" fill="none" xmlns="http://www.w3.org/2000/svg">
<path fill-rule="evenodd" clip-rule="evenodd" d="M8.62536 2.79211C8.94573 2.47173 9.38026 2.29175 9.83333 2.29175C10.2864 2.29175 10.7209 2.47173 11.0413 2.79211C11.3617 3.11248 11.5417 3.547 11.5417 4.00008C11.5417 4.45316 11.3617 4.88768 11.0413 5.20806C10.7209 5.52843 10.2864 5.70841 9.83333 5.70841C9.38026 5.70841 8.94573 5.52843 8.62536 5.20806C8.30499 4.88768 8.125 4.45316 8.125 4.00008C8.125 3.547 8.30499 3.11248 8.62536 2.79211ZM9.83333 3.04175C9.57917 3.04175 9.33541 3.14271 9.15569 3.32244C8.97597 3.50216 8.875 3.74592 8.875 4.00008C8.875 4.25425 8.97597 4.498 9.15569 4.67773C9.33541 4.85745 9.57917 4.95841 9.83333 4.95841C10.0875 4.95841 10.3313 4.85745 10.511 4.67773C10.6907 4.498 10.7917 4.25425 10.7917 4.00008C10.7917 3.74592 10.6907 3.50216 10.511 3.32244C10.3313 3.14271 10.0875 3.04175 9.83333 3.04175Z" fill="#131C26"/>
<path fill-rule="evenodd" clip-rule="evenodd" d="M2.79166 4C2.79166 3.79289 2.95956 3.625 3.16666 3.625H8.5C8.7071 3.625 8.875 3.79289 8.875 4C8.875 4.20711 8.7071 4.375 8.5 4.375H3.16666C2.95956 4.375 2.79166 4.20711 2.79166 4Z" fill="#131C26"/>
<path fill-rule="evenodd" clip-rule="evenodd" d="M10.7917 4C10.7917 3.79289 10.9596 3.625 11.1667 3.625H13.8333C14.0404 3.625 14.2083 3.79289 14.2083 4C14.2083 4.20711 14.0404 4.375 13.8333 4.375H11.1667C10.9596 4.375 10.7917 4.20711 10.7917 4Z" fill="#131C26"/>
<path fill-rule="evenodd" clip-rule="evenodd" d="M4.62536 6.79211C4.94573 6.47173 5.38026 6.29175 5.83333 6.29175C6.28641 6.29175 6.72093 6.47173 7.04131 6.79211C7.36168 7.11248 7.54167 7.547 7.54167 8.00008C7.54167 8.45316 7.36168 8.88768 7.04131 9.20806C6.72093 9.52843 6.28641 9.70841 5.83333 9.70841C5.38026 9.70841 4.94573 9.52843 4.62536 9.20806C4.30498 8.88768 4.125 8.45316 4.125 8.00008C4.125 7.547 4.30498 7.11248 4.62536 6.79211ZM5.83333 7.04175C5.57917 7.04175 5.33541 7.14272 5.15569 7.32244C4.97597 7.50216 4.875 7.74592 4.875 8.00008C4.875 8.25425 4.97597 8.498 5.15569 8.67772C5.33541 8.85745 5.57917 8.95841 5.83333 8.95841C6.0875 8.95841 6.33125 8.85745 6.51098 8.67772C6.6907 8.498 6.79167 8.25425 6.79167 8.00008C6.79167 7.74592 6.6907 7.50216 6.51098 7.32244C6.33125 7.14272 6.0875 7.04175 5.83333 7.04175Z" fill="#131C26"/>
<path fill-rule="evenodd" clip-rule="evenodd" d="M2.79166 8C2.79166 7.79289 2.95956 7.625 3.16666 7.625H4.5C4.7071 7.625 4.875 7.79289 4.875 8C4.875 8.20711 4.7071 8.375 4.5 8.375H3.16666C2.95956 8.375 2.79166 8.20711 2.79166 8Z" fill="#131C26"/>
<path fill-rule="evenodd" clip-rule="evenodd" d="M6.79166 8C6.79166 7.79289 6.95956 7.625 7.16666 7.625H13.8333C14.0404 7.625 14.2083 7.79289 14.2083 8C14.2083 8.20711 14.0404 8.375 13.8333 8.375H7.16666C6.95956 8.375 6.79166 8.20711 6.79166 8Z" fill="#131C26"/>
<path fill-rule="evenodd" clip-rule="evenodd" d="M10.6254 10.7921C10.9457 10.4717 11.3803 10.2917 11.8333 10.2917C12.2864 10.2917 12.7209 10.4717 13.0413 10.7921C13.3617 11.1125 13.5417 11.547 13.5417 12.0001C13.5417 12.4532 13.3617 12.8877 13.0413 13.2081C12.7209 13.5284 12.2864 13.7084 11.8333 13.7084C11.3803 13.7084 10.9457 13.5284 10.6254 13.2081C10.305 12.8877 10.125 12.4532 10.125 12.0001C10.125 11.547 10.305 11.1125 10.6254 10.7921ZM11.8333 11.0417C11.5792 11.0417 11.3354 11.1427 11.1557 11.3224C10.976 11.5022 10.875 11.7459 10.875 12.0001C10.875 12.2542 10.976 12.498 11.1557 12.6777C11.3354 12.8574 11.5792 12.9584 11.8333 12.9584C12.0875 12.9584 12.3313 12.8574 12.511 12.6777C12.6907 12.498 12.7917 12.2542 12.7917 12.0001C12.7917 11.7459 12.6907 11.5022 12.511 11.3224C12.3313 11.1427 12.0875 11.0417 11.8333 11.0417Z" fill="#131C26"/>
<path fill-rule="evenodd" clip-rule="evenodd" d="M2.79166 12C2.79166 11.7929 2.95956 11.625 3.16666 11.625H10.5C10.7071 11.625 10.875 11.7929 10.875 12C10.875 12.2071 10.7071 12.375 10.5 12.375H3.16666C2.95956 12.375 2.79166 12.2071 2.79166 12Z" fill="#131C26"/>
<path fill-rule="evenodd" clip-rule="evenodd" d="M12.7917 12C12.7917 11.7929 12.9596 11.625 13.1667 11.625H13.8333C14.0404 11.625 14.2083 11.7929 14.2083 12C14.2083 12.2071 14.0404 12.375 13.8333 12.375H13.1667C12.9596 12.375 12.7917 12.2071 12.7917 12Z" fill="#131C26"/>
</svg>
