<?xml version="1.0" encoding="utf-8"?>
<svg xmlns="http://www.w3.org/2000/svg" xmlns:xlink="http://www.w3.org/1999/xlink">
    <symbol id="check-requirements" viewBox="0 0 20 25" fill="none" xmlns="http://www.w3.org/2000/svg">
        <path d="M17.5 24.9993H2.5C1.90326 24.9993 1.33097 24.7623 0.90901 24.3403C0.487053 23.9184 0.25 23.3461 0.25 22.7493V6.99932C0.25 6.40258 0.487053 5.83029 0.90901 5.40833C1.33097 4.98637 1.90326 4.74932 2.5 4.74932H5.56225C5.93275 2.60582 7.7785 0.99707 10 0.99707C12.2215 0.99707 14.0665 2.60657 14.434 4.72307L14.4377 4.75007H17.5C18.0967 4.75007 18.669 4.98712 19.091 5.40908C19.5129 5.83104 19.75 6.40333 19.75 7.00007V22.7501C19.75 23.3468 19.5129 23.9191 19.091 24.3411C18.669 24.763 18.0967 25.0001 17.5 25.0001V24.9993ZM2.5 6.24932C2.30109 6.24932 2.11032 6.32834 1.96967 6.46899C1.82902 6.60964 1.75 6.80041 1.75 6.99932V22.7493C1.75 22.9482 1.82902 23.139 1.96967 23.2797C2.11032 23.4203 2.30109 23.4993 2.5 23.4993H17.5C17.6989 23.4993 17.8897 23.4203 18.0303 23.2797C18.171 23.139 18.25 22.9482 18.25 22.7493V6.99932C18.25 6.80041 18.171 6.60964 18.0303 6.46899C17.8897 6.32834 17.6989 6.24932 17.5 6.24932H13.75C13.5511 6.24932 13.3603 6.1703 13.2197 6.02965C13.079 5.889 13 5.69823 13 5.49932C13 4.70367 12.6839 3.94061 12.1213 3.378C11.5587 2.81539 10.7956 2.49932 10 2.49932C9.20435 2.49932 8.44129 2.81539 7.87868 3.378C7.31607 3.94061 7 4.70367 7 5.49932C7 5.69823 6.92098 5.889 6.78033 6.02965C6.63968 6.1703 6.44891 6.24932 6.25 6.24932H2.5ZM15.4998 19.7493C15.4998 19.5504 15.4207 19.3596 15.2801 19.219C15.1394 19.0783 14.9487 18.9993 14.7498 18.9993H9.25C9.05109 18.9993 8.86032 19.0783 8.71967 19.219C8.57902 19.3596 8.5 19.5504 8.5 19.7493C8.5 19.9482 8.57902 20.139 8.71967 20.2797C8.86032 20.4203 9.05109 20.4993 9.25 20.4993H14.7498C14.9487 20.4993 15.1394 20.4203 15.2801 20.2797C15.4207 20.139 15.4998 19.9482 15.4998 19.7493ZM15.4998 15.2493C15.4998 15.0504 15.4207 14.8596 15.2801 14.719C15.1394 14.5783 14.9487 14.4993 14.7498 14.4993H9.25C9.05109 14.4993 8.86032 14.5783 8.71967 14.719C8.57902 14.8596 8.5 15.0504 8.5 15.2493C8.5 15.4482 8.57902 15.639 8.71967 15.7797C8.86032 15.9203 9.05109 15.9993 9.25 15.9993H14.7498C14.9487 15.9993 15.1394 15.9203 15.2801 15.7797C15.4207 15.639 15.4998 15.4482 15.4998 15.2493ZM15.4998 10.7493C15.4998 10.5504 15.4207 10.3596 15.2801 10.219C15.1394 10.0783 14.9487 9.99932 14.7498 9.99932H9.25C9.05109 9.99932 8.86032 10.0783 8.71967 10.219C8.57902 10.3596 8.5 10.5504 8.5 10.7493C8.5 10.9482 8.57902 11.139 8.71967 11.2797C8.86032 11.4203 9.05109 11.4993 9.25 11.4993H14.7498C14.9487 11.4993 15.1394 11.4203 15.2801 11.2797C15.4207 11.139 15.4998 10.9482 15.4998 10.7493ZM6.25 9.49907C6.00272 9.49907 5.761 9.5724 5.5554 9.70978C5.3498 9.84715 5.18955 10.0424 5.09492 10.2709C5.00029 10.4993 4.97553 10.7507 5.02377 10.9932C5.07201 11.2358 5.19109 11.4585 5.36594 11.6334C5.54079 11.8082 5.76356 11.9273 6.00609 11.9755C6.24861 12.0238 6.5 11.999 6.72845 11.9044C6.9569 11.8098 7.15217 11.6495 7.28955 11.4439C7.42692 11.2383 7.50025 10.9966 7.50025 10.7493C7.50025 10.0593 6.94075 9.49907 6.25 9.49907ZM6.25 13.9991C6.00272 13.9991 5.761 14.0724 5.5554 14.2098C5.3498 14.3472 5.18955 14.5424 5.09492 14.7709C5.00029 14.9993 4.97553 15.2507 5.02377 15.4932C5.07201 15.7358 5.19109 15.9585 5.36594 16.1334C5.54079 16.3082 5.76356 16.4273 6.00609 16.4755C6.24861 16.5238 6.5 16.499 6.72845 16.4044C6.9569 16.3098 7.15217 16.1495 7.28955 15.9439C7.42692 15.7383 7.50025 15.4966 7.50025 15.2493C7.50025 14.5593 6.94075 13.9991 6.25 13.9991ZM6.25 18.4991C6.00272 18.4991 5.761 18.5724 5.5554 18.7098C5.3498 18.8472 5.18955 19.0424 5.09492 19.2709C5.00029 19.4993 4.97553 19.7507 5.02377 19.9932C5.07201 20.2358 5.19109 20.4585 5.36594 20.6334C5.54079 20.8082 5.76356 20.9273 6.00609 20.9755C6.24861 21.0238 6.5 20.999 6.72845 20.9044C6.9569 20.8098 7.15217 20.6495 7.28955 20.4439C7.42692 20.2383 7.50025 19.9966 7.50025 19.7493C7.50025 19.0593 6.94075 18.4991 6.25 18.4991ZM10 3.74957C9.75272 3.74957 9.511 3.8229 9.3054 3.96028C9.0998 4.09765 8.93955 4.29292 8.84492 4.52137C8.75029 4.74982 8.72553 5.00121 8.77377 5.24373C8.82201 5.48626 8.94109 5.70903 9.11594 5.88388C9.29079 6.05873 9.51356 6.17781 9.75609 6.22605C9.99861 6.27429 10.25 6.24953 10.4785 6.1549C10.7069 6.06027 10.9022 5.90002 11.0395 5.69442C11.1769 5.48882 11.2502 5.2471 11.2502 4.99982C11.2502 4.30982 10.6908 3.74957 10 3.74957Z" fill="#976828"/>
    </symbol>
    <symbol id="install-dxp" viewBox="0 0 25 25" fill="none" xmlns="http://www.w3.org/2000/svg">
        <path d="M21.5497 19.3127L24.4147 17.413C24.5272 17.3382 24.6174 17.2345 24.6759 17.1128C24.7343 16.9911 24.7588 16.8558 24.7467 16.7213C24.7346 16.5868 24.6865 16.4581 24.6073 16.3487C24.5282 16.2393 24.421 16.1533 24.297 16.0997L24.2925 16.0975L14.7922 12.0602C14.6582 12.0036 14.5105 11.9872 14.3672 12.0131C14.224 12.0389 14.0913 12.1059 13.9855 12.2059C13.8797 12.3058 13.8052 12.4344 13.7712 12.5759C13.7372 12.7175 13.7451 12.8659 13.794 13.003L13.7925 12.9977L17.445 23.5C17.5433 23.776 17.7922 23.9747 18.09 23.9995H18.1537C18.288 23.9996 18.4199 23.9636 18.5355 23.8953C18.6511 23.8269 18.7462 23.7287 18.8107 23.611L18.813 23.6072L20.538 20.4295L23.4352 23.7497C23.501 23.8238 23.5807 23.8843 23.6698 23.9276C23.7589 23.9709 23.8557 23.9963 23.9545 24.0022C24.0534 24.0081 24.1525 23.9945 24.2462 23.9621C24.3398 23.9297 24.4261 23.8792 24.5002 23.8135C24.5744 23.7477 24.6348 23.668 24.6781 23.5789C24.7214 23.4898 24.7468 23.3931 24.7527 23.2942C24.7586 23.1953 24.745 23.0962 24.7126 23.0026C24.6802 22.9089 24.6297 22.8226 24.564 22.7485L24.5648 22.7492L21.5497 19.3127ZM18.3 21.4L15.765 14.1025L22.425 16.9322L19.9252 18.5875C19.8227 18.6533 19.7376 18.7428 19.677 18.8485L19.6747 18.8522L18.3 21.4ZM11.4998 15.5005H4.5C2.43225 15.5005 0.75 13.9082 0.75 11.9507V3.55073C0.75 1.59323 2.43225 0.000976562 4.5 0.000976562H21C23.0677 0.000976562 24.75 1.59323 24.75 3.55073V11.9515C24.75 12.4375 24.6472 12.9002 24.4613 13.3172L24.4695 13.2955C24.433 13.3899 24.3778 13.4759 24.3072 13.5484C24.2365 13.6209 24.152 13.6784 24.0586 13.7174C23.9651 13.7563 23.8648 13.7759 23.7636 13.7751C23.6624 13.7742 23.5624 13.7529 23.4696 13.7124C23.3769 13.6719 23.2933 13.613 23.2239 13.5393C23.1545 13.4656 23.1008 13.3786 23.0659 13.2836C23.031 13.1886 23.0157 13.0875 23.0209 12.9864C23.0261 12.8854 23.0518 12.7864 23.0963 12.6955L23.0947 12.7007C23.1922 12.4795 23.2493 12.2222 23.25 11.9507V3.55073C23.25 2.42048 22.2502 1.50098 21 1.50098H4.5C3.24975 1.50098 2.25 2.42123 2.25 3.55073V11.9507C2.25 13.081 3.24975 14.0005 4.5 14.0005H11.4998C11.6987 14.0005 11.8894 14.0795 12.0301 14.2201C12.1707 14.3608 12.2498 14.5516 12.2498 14.7505C12.2498 14.9494 12.1707 15.1402 12.0301 15.2808C11.8894 15.4215 11.6987 15.5005 11.4998 15.5005Z" fill="#8B0E50"/>
    </symbol>
    <symbol id="install-cloud" viewBox="0 0 25 18" fill="none" xmlns="http://www.w3.org/2000/svg">
        <path d="M9.07143 0C4.33756 0 0.5 3.83756 0.5 8.57143C0.5 13.3053 4.33756 17.1429 9.07143 17.1429H19.3571C22.1975 17.1429 24.5 14.8403 24.5 12C24.5 9.15968 22.1975 6.85714 19.3571 6.85714L18.9851 6.87187C18.6148 6.90004 18.2504 6.96828 17.898 7.07447L17.5314 7.2L17.5187 7.10975C16.825 3.07217 13.307 0 9.07143 0ZM9.07143 1.71429C12.7438 1.71429 15.7418 4.60109 15.9202 8.22919L15.9286 8.592C15.9286 9.30271 16.7438 9.70468 17.3076 9.27196C17.8965 8.81997 18.6176 8.57385 19.3599 8.57142C21.2507 8.57143 22.7857 10.1065 22.7857 12C22.7857 13.8935 21.2507 15.4286 19.3571 15.4286H9.07143C5.28433 15.4286 2.21429 12.3585 2.21429 8.57143C2.21429 4.78433 5.28433 1.71429 9.07143 1.71429Z" fill="#2B7283"/>
    </symbol>
    <symbol id="first-steps" viewBox="0 0 25 24" fill="none" xmlns="http://www.w3.org/2000/svg">
        <path d="M5.5 24.0002H5.49475C5.3785 24.0006 5.26393 23.9725 5.161 23.9185L5.16475 23.9207C5.0403 23.8585 4.93561 23.763 4.86236 23.6447C4.78912 23.5264 4.75021 23.3901 4.75 23.251V19.501H2.5C1.90326 19.501 1.33097 19.2639 0.90901 18.842C0.487053 18.42 0.25 17.8477 0.25 17.251L0.25 2.25098C0.25 1.65424 0.487053 1.08194 0.90901 0.659986C1.33097 0.238029 1.90326 0.000976563 2.5 0.000976562H22C22.5967 0.000976563 23.169 0.238029 23.591 0.659986C24.0129 1.08194 24.25 1.65424 24.25 2.25098V17.251C24.25 17.8477 24.0129 18.42 23.591 18.842C23.169 19.2639 22.5967 19.501 22 19.501H11.7498L5.95 23.851C5.82038 23.9487 5.66235 24.0007 5.5 24.0002ZM2.5 1.50023C2.30109 1.50023 2.11032 1.57924 1.96967 1.7199C1.82902 1.86055 1.75 2.05131 1.75 2.25023V17.2502C1.75 17.4491 1.82902 17.6399 1.96967 17.7806C2.11032 17.9212 2.30109 18.0002 2.5 18.0002H5.5C5.69891 18.0002 5.88968 18.0792 6.03033 18.2199C6.17098 18.3605 6.25 18.5513 6.25 18.7502V21.7502L11.05 18.1502C11.1796 18.0525 11.3377 17.9998 11.5 18.0002H22C22.1989 18.0002 22.3897 17.9212 22.5303 17.7806C22.671 17.6399 22.75 17.4491 22.75 17.2502V2.25023C22.75 2.05131 22.671 1.86055 22.5303 1.7199C22.3897 1.57924 22.1989 1.50023 22 1.50023H2.5ZM14.2502 15.25H13.45L13.4042 15.2507C12.8029 15.2507 12.2253 15.0156 11.7949 14.5957C11.3644 14.1757 11.1151 13.6042 11.1003 13.003V9.24998H10.2498C10.0508 9.24998 9.86007 9.17096 9.71942 9.03031C9.57877 8.88965 9.49975 8.69889 9.49975 8.49998C9.49975 8.30106 9.57877 8.1103 9.71942 7.96965C9.86007 7.82899 10.0508 7.74998 10.2498 7.74998H11.0725C11.9065 7.74998 12.5845 8.41823 12.5995 9.24848V13C12.6145 13.2118 12.7123 13.4093 12.8718 13.5496C13.0312 13.69 13.2394 13.7619 13.4515 13.75H13.4493H14.2495C14.4484 13.75 14.6392 13.829 14.7798 13.9696C14.9205 14.1103 14.9995 14.3011 14.9995 14.5C14.9995 14.6989 14.9205 14.8897 14.7798 15.0303C14.6392 15.171 14.4492 15.25 14.2502 15.25ZM11.5 3.75023C11.2527 3.75023 11.011 3.82355 10.8054 3.96093C10.5998 4.09831 10.4395 4.29357 10.3449 4.52203C10.2503 4.75048 10.2255 5.00186 10.2738 5.24439C10.322 5.48691 10.4411 5.70969 10.6159 5.88454C10.7908 6.05939 11.0136 6.17846 11.2561 6.2267C11.4986 6.27494 11.75 6.25019 11.9785 6.15556C12.2069 6.06093 12.4022 5.90068 12.5395 5.69508C12.6769 5.48948 12.7502 5.24775 12.7502 5.00048C12.7502 4.31048 12.1908 3.75023 11.5 3.75023Z" fill="#5A5A5D"/>
    </symbol>
    <symbol id="arrow" viewBox="0 0 13 13" xmlns="http://www.w3.org/2000/svg">
        <path d="M2.49951 6.99949L9.56826 6.99949L7.62463 9.16586C7.54588 9.25399 7.49751 9.37136 7.49751 9.49961C7.49751 9.77674 7.72213 10.0017 7.99963 10.0017C8.14851 10.0017 8.28238 9.93686 8.37426 9.83411L8.37463 9.83374L10.7259 7.20874C10.8958 7.02461 10.9996 6.77786 10.9996 6.50636C10.9996 6.50411 10.9996 6.50186 10.9996 6.49961L10.9996 6.49999C10.9996 6.49774 10.9996 6.49474 10.9996 6.49211C10.9996 6.22249 10.8961 5.97686 10.7266 5.79311L10.7274 5.79386L8.37501 3.16624C8.28276 3.06274 8.14888 2.99786 8.00001 2.99786C7.72288 2.99786 7.49788 3.22249 7.49788 3.49999C7.49788 3.62824 7.54588 3.74561 7.62538 3.83411L7.62501 3.83374L9.57126 6.00011L2.49988 6.00011C2.22388 6.00011 2.00001 6.22399 2.00001 6.49999C2.00001 6.77599 2.22388 6.99986 2.49988 6.99986L2.49951 6.99949Z" />
    </symbol>
    <symbol id="toggler" viewBox="0 0 13 13" xmlns="http://www.w3.org/2000/svg">
        <path d="M6.00001 9.62487C5.90153 9.62496 5.80401 9.60555 5.71307 9.56777C5.62213 9.52999 5.53956 9.47458 5.47013 9.40475L0.108758 4.01487C0.0393029 3.94408 0.000650096 3.8487 0.00122707 3.74953C0.00180405 3.65036 0.041564 3.55544 0.111838 3.48546C0.182113 3.41548 0.277202 3.37612 0.376376 3.37597C0.475549 3.37581 0.570763 3.41487 0.641258 3.48462L6.00001 8.8745L11.3588 3.48462C11.3935 3.44923 11.4349 3.42106 11.4805 3.40174C11.5262 3.38242 11.5752 3.37232 11.6248 3.37203C11.6744 3.37174 11.7235 3.38127 11.7694 3.40006C11.8153 3.41885 11.857 3.44653 11.8921 3.48152C11.9272 3.5165 11.9551 3.55809 11.9741 3.60389C11.9931 3.64969 12.0028 3.69879 12.0027 3.74837C12.0026 3.79795 11.9928 3.84702 11.9736 3.89276C11.9545 3.9385 11.9265 3.98 11.8913 4.01487L6.53138 9.40362C6.39676 9.54012 6.20963 9.62487 6.00263 9.62487H6.00001Z" />
    </symbol>
    <symbol id="content-draft" viewBox="0 0 16 16" xmlns="http://www.w3.org/2000/svg">
        <path d="M4.55005 12.2033C4.47484 12.203 4.40072 12.1854 4.33347 12.1517C4.26621 12.1181 4.20763 12.0694 4.1623 12.0093C4.11698 11.9493 4.08612 11.8797 4.07214 11.8058C4.05816 11.7319 4.06144 11.6558 4.08172 11.5833L4.73005 9.31667C4.75249 9.23726 4.79496 9.16495 4.85338 9.10667L9.48005 4.48C9.55517 4.40441 9.6445 4.34443 9.7429 4.30349C9.84129 4.26256 9.94681 4.24148 10.0534 4.24148C10.16 4.24148 10.2655 4.26256 10.3639 4.30349C10.4623 4.34443 10.5516 4.40441 10.6267 4.48L11.7934 5.64667C11.9447 5.79877 12.0297 6.0046 12.0297 6.21917C12.0297 6.43373 11.9447 6.63957 11.7934 6.79167L7.16672 11.4133C7.10748 11.4714 7.03474 11.5137 6.95505 11.5367L4.68338 12.1833C4.64016 12.1965 4.59523 12.2032 4.55005 12.2033ZM5.63005 9.705L5.25672 11.0083L6.56005 10.6367L10.9851 6.21167L10.0534 5.28167L5.63005 9.705Z" />
        <path d="M10.3767 8C10.313 8.00028 10.2498 7.98791 10.1908 7.96359C10.1319 7.93927 10.0784 7.90349 10.0334 7.85833L8.41505 6.23333C8.36633 6.18907 8.3271 6.13539 8.29972 6.07553C8.27235 6.01567 8.2574 5.95088 8.25578 5.88507C8.25416 5.81927 8.26591 5.75383 8.29032 5.69269C8.31472 5.63156 8.35127 5.57602 8.39776 5.52942C8.44425 5.48282 8.4997 5.44613 8.56077 5.42158C8.62185 5.39703 8.68726 5.38512 8.75307 5.38658C8.81888 5.38803 8.8837 5.40282 8.94363 5.43005C9.00356 5.45728 9.05734 5.49639 9.10172 5.545L10.72 7.16667C10.7653 7.21186 10.8011 7.26551 10.8256 7.32457C10.85 7.38362 10.8626 7.44691 10.8626 7.51083C10.8626 7.57475 10.85 7.63805 10.8256 7.6971C10.8011 7.75615 10.7653 7.80981 10.72 7.855C10.6753 7.90076 10.6219 7.93716 10.563 7.96205C10.504 7.98695 10.4407 7.99985 10.3767 8Z" />
        <path d="M6.81505 11.555C6.75132 11.5551 6.6882 11.5426 6.62928 11.5183C6.57037 11.494 6.51683 11.4583 6.47172 11.4133L4.85338 9.795C4.8083 9.74991 4.77253 9.69639 4.74813 9.63748C4.72373 9.57857 4.71117 9.51543 4.71117 9.45167C4.71117 9.3879 4.72373 9.32477 4.74813 9.26586C4.77253 9.20695 4.8083 9.15342 4.85338 9.10833C4.89847 9.06325 4.952 9.02748 5.01091 9.00308C5.06981 8.97868 5.13295 8.96612 5.19672 8.96612C5.26048 8.96612 5.32362 8.97868 5.38253 9.00308C5.44144 9.02748 5.49496 9.06325 5.54005 9.10833L7.16672 10.7267C7.23656 10.7943 7.28446 10.8814 7.3042 10.9766C7.32394 11.0718 7.31461 11.1707 7.27742 11.2606C7.24023 11.3504 7.17689 11.427 7.09563 11.4804C7.01437 11.5338 6.91894 11.5615 6.82172 11.56L6.81505 11.555Z" />
        <path d="M2.00001 16C1.46958 16 0.960867 15.7893 0.585795 15.4142C0.210722 15.0391 8.21321e-06 14.5304 8.21321e-06 14V2C-0.000747941 1.7368 0.050715 1.47607 0.151417 1.23289C0.25212 0.98972 0.400061 0.768939 0.586675 0.583333C0.96265 0.210454 1.47048 0.000852348 2.00001 4.02488e-08H11.5867C11.9841 -9.19668e-05 12.3654 0.15756 12.6467 0.438333L15.5617 3.35333C15.8424 3.63464 16.0001 4.01588 16 4.41333V14C16 14.5304 15.7893 15.0391 15.4142 15.4142C15.0391 15.7893 14.5304 16 14 16H2.00001ZM2.00001 1C1.73534 1.00087 1.48158 1.10561 1.29334 1.29167C1.20026 1.38464 1.12643 1.49506 1.0761 1.61661C1.02576 1.73815 0.999905 1.86844 1.00001 2V14C1.00001 14.2652 1.10537 14.5196 1.2929 14.7071C1.48044 14.8946 1.73479 15 2.00001 15H14C14.2652 15 14.5196 14.8946 14.7071 14.7071C14.8947 14.5196 15 14.2652 15 14V4.41333C14.9995 4.28135 14.9467 4.15494 14.8533 4.06167L11.94 1.14667C11.8463 1.05287 11.7192 1.00012 11.5867 1H2.00001Z" />
        <path d="M15.5 5H12.5C12.1022 5 11.7207 4.84197 11.4394 4.56066C11.1581 4.27936 11 3.89783 11 3.5V0.5C11 0.367392 11.0527 0.240215 11.1465 0.146447C11.2403 0.0526787 11.3674 2.41498e-07 11.5 2.41498e-07C11.6327 2.41498e-07 11.7598 0.0526787 11.8536 0.146447C11.9474 0.240215 12 0.367392 12 0.5V3.5C12 3.63261 12.0527 3.75979 12.1465 3.85355C12.2403 3.94732 12.3674 4 12.5 4H15.5C15.6327 4 15.7598 4.05268 15.8536 4.14645C15.9474 4.24022 16 4.36739 16 4.5C16 4.63261 15.9474 4.75979 15.8536 4.85355C15.7598 4.94732 15.6327 5 15.5 5Z" />
        <path d="M13.745 13.7667H12.8951V12.9167H13.745V13.7667Z" />
        <path d="M11.8067 13.7667H10.72V13.0667H11.8067V13.7667ZM9.63172 13.7667H8.54338V13.0667H9.63172V13.7667ZM7.46505 13.7667H6.36838V13.0667H7.45672L7.46505 13.7667ZM5.28838 13.7667H4.19338V13.0667H5.28005L5.28838 13.7667Z" />
        <path d="M3.12172 13.7667H2.25505V12.9167H3.12172V13.7667Z" />
        <path d="M3.12172 11.8233H2.25505V10.7317H3.12172V11.8233ZM3.12172 9.63833H2.25505V8.54667H3.12172V9.63833ZM3.12172 7.45333H2.25505V6.36167H3.12172V7.45333ZM3.12172 5.26833H2.25505V4.17667H3.12172V5.26833Z" />
        <path d="M2.25505 3.08333V2.23333H3.10505V3.08333H2.25505Z" />
        <path d="M11.8067 2.93333H10.72V2.23333H11.8067V2.93333ZM9.63172 2.93333H8.54338V2.23333H9.63172V2.93333ZM7.46505 2.93333H6.36838V2.23333H7.45672L7.46505 2.93333ZM5.28838 2.93333H4.19338V2.23333H5.28005L5.28838 2.93333Z" />
        <path d="M13.745 11.8233H13.045V10.7317H13.745V11.8233ZM13.745 9.63833H13.045V8.54667H13.745V9.63833ZM13.745 7.45333H13.045V6.36167H13.745V7.45333ZM13.745 5.26833H13.045V4.17667H13.745V5.26833Z" />
    </symbol>
    <symbol id="product" viewBox="0 0 17 16" xmlns="http://www.w3.org/2000/svg">
        <path d="M15.7483 4.501C15.7506 4.48173 15.7506 4.46227 15.7483 4.443V4.444L15.7488 4.4225C15.7488 4.415 15.7488 4.4075 15.7478 4.4V4.401C15.7445 4.38528 15.7403 4.36976 15.7353 4.3545L15.7363 4.3575C15.7363 4.341 15.7248 4.3225 15.7163 4.304V4.3V4.2955L14.063 0.802C13.9307 0.559522 13.7356 0.35711 13.4982 0.215999C13.2608 0.074888 12.9898 0.000279316 12.7136 0L12.6851 0.0005H12.6866H3.78726C3.50954 0.000474106 3.23697 0.0754386 2.99832 0.217479C2.75967 0.35952 2.56379 0.563367 2.43137 0.8075L2.42737 0.8155L0.795996 4.287V4.2955C0.795996 4.314 0.782497 4.332 0.775998 4.349C0.771425 4.36224 0.767751 4.37577 0.764999 4.3895L0.764499 4.392L0.763999 4.4135C0.763999 4.421 0.763999 4.4285 0.764999 4.436V4.435C0.757725 4.45556 0.752696 4.47685 0.75 4.4985V15.5C0.75 15.6326 0.802674 15.7598 0.896435 15.8536C0.990196 15.9473 1.11736 16 1.24996 16H15.2489C15.3815 16 15.5086 15.9473 15.6024 15.8536C15.6962 15.7598 15.7488 15.6326 15.7488 15.5V4.5L15.7483 4.501ZM12.6851 1.001L12.7131 1.0005C12.9005 1.0005 13.066 1.095 13.164 1.2395L13.165 1.2415L14.4614 4.0015H8.74837V1.0015L12.6851 1.001ZM3.3258 1.256C3.37694 1.17378 3.44918 1.10676 3.53499 1.06192C3.6208 1.01707 3.71706 0.996037 3.81376 1.001H3.81226H7.74845V4.001H2.0354L3.3258 1.256ZM14.7484 15.001H1.74942V5.001H14.7484V15.001ZM12.7486 13.001H9.7488C9.6162 13.001 9.48903 12.9483 9.39527 12.8546C9.30151 12.7608 9.24884 12.6336 9.24884 12.501C9.24884 12.3684 9.30151 12.2412 9.39527 12.1474C9.48903 12.0537 9.6162 12.001 9.7488 12.001H12.7486C12.8812 12.001 13.0083 12.0537 13.1021 12.1474C13.1958 12.2412 13.2485 12.3684 13.2485 12.501C13.2485 12.6336 13.1958 12.7608 13.1021 12.8546C13.0083 12.9483 12.8812 13.001 12.7486 13.001Z" />
    </symbol>
    <symbol id="cart" viewBox="0 0 17 16" xmlns="http://www.w3.org/2000/svg">
        <path d="M9.66643 16.0005C9.3038 16.0005 8.94931 15.893 8.64779 15.6915C8.34627 15.49 8.11127 15.2037 7.9725 14.8686C7.83372 14.5336 7.79741 14.165 7.86816 13.8093C7.93891 13.4536 8.11353 13.1269 8.36995 12.8705C8.62637 12.6141 8.95307 12.4395 9.30873 12.3687C9.66439 12.298 10.033 12.3343 10.3681 12.4731C10.7031 12.6118 10.9895 12.8468 11.1909 13.1483C11.3924 13.4499 11.4999 13.8044 11.4999 14.167C11.4999 14.6533 11.3068 15.1196 10.9629 15.4635C10.6191 15.8073 10.1527 16.0005 9.66643 16.0005ZM9.66643 13.334C9.50158 13.334 9.34043 13.3829 9.20336 13.4745C9.06629 13.566 8.95946 13.6962 8.89637 13.8485C8.83329 14.0008 8.81678 14.1684 8.84894 14.3301C8.8811 14.4918 8.96049 14.6403 9.07705 14.7569C9.19362 14.8734 9.34214 14.9528 9.50382 14.985C9.6655 15.0171 9.83309 15.0006 9.9854 14.9375C10.1377 14.8745 10.2679 14.7676 10.3595 14.6306C10.451 14.4935 10.4999 14.3323 10.4999 14.1675C10.4999 13.7075 10.1269 13.334 9.66643 13.334ZM4.66643 16.0005C4.3038 16.0005 3.94931 15.893 3.64779 15.6915C3.34627 15.49 3.11127 15.2037 2.9725 14.8686C2.83372 14.5336 2.79741 14.165 2.86816 13.8093C2.93891 13.4536 3.11353 13.1269 3.36995 12.8705C3.62637 12.6141 3.95307 12.4395 4.30873 12.3687C4.66439 12.298 5.03305 12.3343 5.36808 12.4731C5.70311 12.6118 5.98946 12.8468 6.19093 13.1483C6.3924 13.4499 6.49993 13.8044 6.49993 14.167C6.49993 14.6533 6.30676 15.1196 5.96291 15.4635C5.61906 15.8073 5.1527 16.0005 4.66643 16.0005ZM4.66643 13.334C4.50158 13.334 4.34043 13.3829 4.20336 13.4745C4.06629 13.566 3.95946 13.6962 3.89638 13.8485C3.83329 14.0008 3.81678 14.1684 3.84894 14.3301C3.88111 14.4918 3.96049 14.6403 4.07706 14.7569C4.19362 14.8734 4.34214 14.9528 4.50382 14.985C4.6655 15.0171 4.83309 15.0006 4.9854 14.9375C5.1377 14.8745 5.26787 14.7676 5.35946 14.6306C5.45105 14.4935 5.49993 14.3323 5.49993 14.1675C5.49993 13.7075 5.12693 13.334 4.66643 13.334ZM12.1814 10.217L14.3479 2.08048C14.4039 1.86809 14.5282 1.67998 14.7015 1.5451C14.8749 1.41022 15.0878 1.33604 15.3074 1.33398H15.9994C16.132 1.33398 16.2592 1.28131 16.353 1.18754C16.4467 1.09377 16.4994 0.966593 16.4994 0.833984C16.4994 0.701376 16.4467 0.574199 16.353 0.480431C16.2592 0.386663 16.132 0.333984 15.9994 0.333984H15.3079C14.8689 0.334182 14.442 0.478791 14.0933 0.745521C13.7445 1.01225 13.4931 1.38629 13.3779 1.80998L13.3749 1.82398L11.2084 9.96048C11.1509 10.175 10.9599 10.3305 10.7319 10.334H3.51843C3.40612 10.3339 3.2971 10.2961 3.20894 10.2265C3.12077 10.1569 3.0586 10.0597 3.03243 9.95048L3.03193 9.94698L1.48043 4.66698C1.46162 4.60402 1.43059 4.54537 1.38911 4.49439C1.34763 4.44342 1.29652 4.40111 1.23869 4.36988C1.18087 4.33866 1.11745 4.31913 1.05208 4.31241C0.986705 4.3057 0.920648 4.31192 0.857679 4.33073C0.79471 4.34955 0.736063 4.38058 0.685086 4.42205C0.63411 4.46353 0.591802 4.51464 0.560578 4.57247C0.529354 4.6303 0.509827 4.69371 0.503109 4.75908C0.496392 4.82446 0.502617 4.89052 0.521429 4.95348L0.520429 4.94998L2.07043 10.215C2.15513 10.5347 2.34292 10.8176 2.6047 11.0199C2.86648 11.2221 3.18765 11.3323 3.51843 11.3335H10.7319C11.0611 11.3334 11.3811 11.225 11.6426 11.0252C11.9042 10.8253 12.0928 10.545 12.1794 10.2275L12.1819 10.217H12.1814Z" />
    </symbol>
    <symbol id="profile" viewBox="0 0 17 16" xmlns="http://www.w3.org/2000/svg">
        <path d="M8.25007 11.9976C10.4218 11.9976 12.4057 13.2286 13.3701 15.1744C13.5102 15.4572 13.3946 15.8 13.1118 15.9402C12.829 16.0803 12.4862 15.9647 12.3461 15.6819C11.5746 14.1253 9.98741 13.1405 8.25007 13.1405C6.51273 13.1405 4.92555 14.1253 4.15407 15.6819C4.01393 15.9647 3.6711 16.0803 3.38833 15.9402C3.10556 15.8 2.98993 15.4572 3.13007 15.1744C4.09441 13.2286 6.07839 11.9976 8.25007 11.9976ZM13.4625 2.02738C16.4117 4.73056 16.8051 9.23979 14.3684 12.4128C14.1762 12.6631 13.8175 12.7102 13.5672 12.518C13.3169 12.3257 13.2698 11.967 13.462 11.7167C15.5377 9.01379 15.2026 5.17259 12.6903 2.86989C10.178 0.56718 6.32218 0.56718 3.80986 2.86989C1.29754 5.17259 0.962468 9.01379 3.03814 11.7167C3.23036 11.967 3.18327 12.3257 2.93297 12.518C2.68266 12.7102 2.32393 12.6631 2.13172 12.4128C-0.304942 9.23979 0.0884042 4.73056 3.03765 2.02738C5.98689 -0.675795 10.5132 -0.675795 13.4625 2.02738ZM8.25007 4.57104C9.98582 4.57104 11.3929 5.97814 11.3929 7.7139C11.3929 9.44965 9.98582 10.8568 8.25007 10.8568C6.51432 10.8568 5.10721 9.44965 5.10721 7.7139C5.10721 5.97814 6.51432 4.57104 8.25007 4.57104ZM8.25007 5.7139C7.1455 5.7139 6.25007 6.60933 6.25007 7.7139C6.25007 8.81847 7.1455 9.71389 8.25007 9.71389C9.35464 9.71389 10.2501 8.81847 10.2501 7.7139C10.2501 6.60933 9.35464 5.7139 8.25007 5.7139Z" />
    </symbol>
    <symbol id="notification-image" width="301" height="276" viewBox="0 0 301 276" fill="none" xmlns="http://www.w3.org/2000/svg">
        <path fill-rule="evenodd" clip-rule="evenodd" d="M18.575 234.674C11.3603 232.121 5.16817 226.767 1.57963 219.98C0.582567 218.095 -0.236725 215.984 0.062504 213.87C0.125442 213.429 0.272296 212.945 0.662067 212.734C1.02755 212.536 1.47584 212.646 1.87444 212.762C13.9253 216.239 26.6498 221.957 39.3698 221.569C39.9329 221.552 40.5203 221.528 41.0337 221.763C41.6421 222.042 42.043 222.64 42.3201 223.251C43.2344 225.271 44.0139 229.11 43.665 231.345C43.2476 234.021 40.6451 234.394 38.3606 234.94C31.8095 236.504 25.0222 236.956 18.575 234.674" fill="#A8186B"/>
        <path fill-rule="evenodd" clip-rule="evenodd" d="M17.7876 219.677C16.8381 219.252 15.8713 218.78 14.8411 218.751C13.8109 218.722 12.6839 219.271 12.3527 220.308C12.1269 221.013 12.3054 221.794 12.5786 222.48C13.2829 224.256 14.5766 225.689 15.9434 226.955C21.1556 231.787 27.8669 234.761 34.7643 235.297C37.8258 235.536 41.0132 235.279 43.75 233.8C42.437 232.052 42.7445 229.561 42.6327 227.327C42.3112 220.872 37.0892 223.25 32.9147 223.134C27.7293 222.99 22.5676 221.823 17.7876 219.677" fill="#B8715F"/>
        <path fill-rule="evenodd" clip-rule="evenodd" d="M178.309 177.211C178.385 177.438 178.46 177.666 178.535 177.893C180.137 182.811 181.378 187.871 181.826 193.033C182.654 202.535 180.633 213.635 173.373 220.415C163.694 229.456 148.368 230.644 135.927 228.275C130.867 227.311 126.054 225.088 122.044 221.863C117.922 225.46 113.518 229.405 109.81 233.428C102.567 230.782 95.663 227.214 89.3194 222.834C74.0389 229.551 58.4596 234.006 42.0571 237.125C40.2619 232.457 39.014 227.571 38.3506 222.615C38.2433 221.811 48.5474 215.086 49.7242 214.128C53.3059 211.21 60.7705 204.553 60.7705 204.553C60.7705 204.553 51.6388 196.534 47.6104 192.78C43.3948 188.852 39.3161 184.776 35.4486 180.505C32.2522 176.974 29.1609 173.249 27.2321 168.897C25.3044 164.546 24.6421 159.448 26.3848 155.02C31.8319 141.183 52.9556 146.393 62.6993 151.346C70.7779 155.454 77.7827 161.359 84.5729 167.357C87.2833 169.752 89.9729 172.17 92.6417 174.612C94.7971 172.462 97.1911 169.655 99.2228 167.387C101.418 164.936 103.927 162.65 106.919 161.21C110.078 159.691 112.937 159.932 116.296 159.506C117.787 159.317 119.24 158.9 120.723 158.659C125.104 157.949 129.727 158.846 133.521 161.145C137.133 163.333 140.07 165.894 144.331 166.765C149.181 167.759 154.81 167.286 159.685 166.71C164.072 166.19 168.54 165.247 172.863 166.177C174.677 166.567 175.313 169.097 175.885 170.563C176.742 172.761 177.563 174.973 178.309 177.211" fill="#131C26"/>
        <path fill-rule="evenodd" clip-rule="evenodd" d="M118.921 33.9841C118.774 34.7505 118.713 35.5725 118.748 36.4654C118.964 41.8215 120.044 47.1426 121.939 52.1607C123.073 55.1609 124.513 58.0793 126.539 60.5693C127.369 61.5886 128.351 62.5698 129.612 62.9503C130.92 63.346 132.551 63.4027 133.884 63.1138C134.973 67.8528 134.34 76.7956 130.186 80.0662C128.933 81.0528 127.429 81.6644 125.928 82.2051C122.999 83.2593 119.989 84.09 116.934 84.6864C113.493 85.359 109.725 85.867 107.266 88.357C106.96 88.6666 106.661 89.0809 106.775 89.5006C106.845 89.7557 107.054 89.9465 107.259 90.1144C109.157 91.6657 111.492 92.5727 113.806 93.3871C117.929 94.837 122.134 96.0744 126.422 96.9204C130.929 97.81 135.553 98.2646 140.126 97.8383C143.661 97.5102 147.168 96.6435 150.375 95.1096C153.77 93.4874 157.227 92.2053 160.686 90.6856C163.638 89.3872 166.562 87.8871 169.75 87.3955C168.289 84.5392 165.173 82.8777 162.055 82.0928C158.936 81.3079 155.681 81.2272 152.533 80.5753C151.497 80.3616 150.446 80.0727 149.594 79.4458C147.175 77.6634 147.91 73.7562 147.91 71.1986V63.0735C148.335 59.2175 150.001 55.9938 151.45 52.4715C153.671 47.0707 154.21 40.9003 152.421 35.3414C150.633 29.7826 146.401 24.94 140.915 22.8992C135.428 20.8572 128.782 21.8809 124.497 25.8601C121.787 28.3762 119.557 30.6547 118.921 33.9841" fill="#B8715F"/>
        <path fill-rule="evenodd" clip-rule="evenodd" d="M148.02 36.3134C147.13 37.0013 146.372 37.8615 145.797 38.8347C146.604 37.4698 148.688 37.6706 149.555 38.7677C150.668 40.1765 150.237 42.2775 149.382 43.6973C148.435 45.2706 146.996 46.4906 146.032 48.053C143.291 52.4954 145.592 59.4195 150.125 61.6994C152.671 62.9798 155.633 63.1828 158.459 62.8712C162.97 62.3753 167.543 60.4443 170.181 56.7139C172.637 53.2425 173.072 48.415 171.279 44.552C169.486 40.6878 165.536 37.9416 161.324 37.6311C163.989 33.181 164.078 27.5669 162.923 22.4969C162.197 19.3053 160.958 16.1334 158.71 13.7756C156.783 11.7536 154.217 10.4447 151.552 9.65362C143.215 7.17734 133.587 9.90816 127.738 16.4044C126.351 17.9448 125.172 19.6652 124.069 21.425C121.946 24.8152 120.082 28.3996 118.902 32.2298C116.663 39.505 116.58 48.4962 119.394 55.6354C117.876 50.7048 117.324 45.4725 117.779 40.3279C117.826 39.8002 117.884 39.2659 118.076 38.7732C118.746 37.0485 120.868 36.1049 122.02 34.6907C123.349 33.0571 124.349 31.1502 124.97 29.1325C126.064 31.6307 129.698 33.5277 132.087 34.5141C137.096 36.5866 142.682 37.2603 148.02 36.3134" fill="#072A3D"/>
        <path d="M128.725 43.75C128.783 46.3754 128.75 49.0051 128.625 51.625C129.234 51.4904 129.828 51.2079 130.375 50.7929" stroke="#072A3D" stroke-width="0.702"/>
        <path d="M133.875 56.875C134.926 56.2066 135.829 55.3034 136.5 54.25" stroke="#072A3D" stroke-width="0.702"/>
        <path fill-rule="evenodd" clip-rule="evenodd" d="M110.143 86.9573C109.402 86.6142 108.518 86.8469 108.035 87.5079C102.468 95.1134 100.184 104.681 98.2095 113.951C95.97 124.455 93.9289 135.001 91.9782 145.564C91.879 146.1 91.7864 146.679 92.0294 147.166C92.2735 147.657 92.7966 147.931 93.287 148.172C96.4408 149.729 99.5947 151.285 102.748 152.842C106.272 145.121 108.855 136.97 110.422 128.627C112.369 133.793 115.986 138.312 120.595 141.336C117.038 146.277 112.614 156.222 108.348 160.559C107.686 161.231 103.761 160.082 102.864 159.792C102.297 161.35 104.903 159.727 104.845 161.317C107.217 161.716 110.265 160.319 112.713 160.059C115.66 159.746 118.644 159.779 121.585 160.142C126.487 160.75 131.211 162.37 135.535 164.752C137.684 165.935 139.731 167.297 141.682 168.786C143.373 170.074 147.553 173.173 147.554 173.174C147.842 173.387 149.32 173.092 149.657 173.039C150.669 172.882 151.642 172.766 152.685 172.702C155.225 172.545 157.756 172.256 160.266 171.836C165.287 170.996 170.219 169.633 174.959 167.768C175.411 167.427 173.867 164.064 173.774 163.392C173.859 164.016 183.162 163.403 184.068 163.231C187.732 162.536 191.46 162.209 195.125 161.465C193.693 146.669 189.436 132.317 185.201 118.072C183.542 112.49 181.874 106.89 179.501 101.576C176.979 95.9317 173.667 90.6426 169.693 85.9139C169.582 85.7806 169.404 85.7216 169.235 85.7631C167.285 86.2395 155.388 89.0845 149.451 91.2282C146.417 92.3229 143.358 93.3532 140.28 94.3147C139.055 94.6982 137.8 95.0751 136.518 95.0435C135.671 95.0238 134.84 94.826 134.02 94.6217C125.902 92.5972 117.726 90.4765 110.143 86.9573" fill="#AE1164"/>
        <path d="M163.625 117.25C163.935 119.406 164.305 121.552 164.736 123.683C165.715 128.528 167.003 133.304 168.588 137.966C169.379 140.296 170.246 142.599 171.185 144.868C171.654 146.003 172.142 147.128 172.647 148.245C172.899 148.804 173.157 149.36 173.419 149.914C173.638 150.378 173.906 150.801 174.125 151.252C172.553 151.187 170.966 151.246 169.379 151.375" stroke="white" stroke-width="0.702"/>
        <path fill-rule="evenodd" clip-rule="evenodd" d="M162.45 152.976C162.621 154.093 162.812 155.208 163.023 156.318C163.235 157.428 163.47 158.534 163.723 159.635C163.939 160.575 164.499 161.794 164.5 162.75C164.5 162.562 157.964 161.876 157.351 161.803C150.553 160.994 143.734 160.482 136.913 159.922C132.514 159.56 128.146 159.611 123.727 159.584C122.418 159.578 120.88 159.444 120.19 158.298C119.623 157.359 120.123 156.143 119.67 155.276C119.376 155.336 115.803 156.244 115.817 156.161C115.682 156.997 115.349 158.742 114.506 159.146C114.216 159.285 113.884 159.292 113.565 159.295C113.113 159.301 112.65 159.212 112.202 159.145C112.137 159.135 112.067 159.121 112.028 159.068C111.962 158.979 112.026 158.855 112.088 158.763C113.152 157.188 113.742 155.277 113.757 153.358C114.887 152.62 115.989 151.752 116.949 150.789C117.724 150.015 118.31 148.979 119.139 148.277C120.02 147.531 120.853 148.005 121.815 148.259C122.926 148.553 124.032 148.864 125.122 149.227C127.233 149.929 129.338 150.816 131.113 152.211C131.717 152.685 132.317 153.192 133.033 153.453C133.733 153.707 134.491 153.707 135.233 153.699C139.718 153.646 144.208 153.506 148.675 153.06C153.245 152.605 156.361 152.737 162.337 151.908C162.354 151.938 162.345 152.292 162.45 152.976" fill="#B8715F"/>
        <path d="M148.75 174.125C154.504 178.783 159.546 184.42 163.625 190.75" stroke="white" stroke-width="0.702"/>
        <path d="M112 116.375C111.211 120.117 110.625 123.919 110.25 127.75" stroke="white" stroke-width="0.702"/>
        <path fill-rule="evenodd" clip-rule="evenodd" d="M22.8311 106.95L35.1645 166.25H135.625C135.625 162.759 132.8 159.931 129.317 159.931H105.271L94.1435 105.414C93.7824 103.645 92.2282 102.375 90.426 102.375H26.5453C24.1383 102.375 22.3405 104.59 22.8311 106.95" fill="#E0E0E8"/>
        <path fill-rule="evenodd" clip-rule="evenodd" d="M151.251 252.694C150.831 250.005 149.578 247.206 148.398 244.782C143.536 234.812 134.659 227.722 125.073 222.757C124.095 222.25 123.099 221.762 122.071 221.375C122.136 221.494 122.205 221.626 122.282 221.769C122.285 221.783 122.289 221.798 122.293 221.812C122.3 221.816 122.306 221.822 122.312 221.827H122.314C122.217 221.752 122.121 221.678 122.027 221.601C118.067 225.119 113.849 228.969 110.25 232.899C112.56 234.861 115.935 236.496 117.644 237.823C121.59 240.885 125.411 244.119 129.495 246.997C135.009 250.883 140.89 253.771 147.5 255.06C150.03 255.555 151.359 256.048 151.375 254.049C151.377 253.686 151.337 253.239 151.251 252.694" fill="#A8186B"/>
        <path fill-rule="evenodd" clip-rule="evenodd" d="M145.284 244.62C142.781 239.776 138.864 236.045 134.564 232.735C131.536 230.402 128.318 228.282 125.273 226.129C124.397 225.51 122.696 223.925 121.243 223.125C118.121 225.866 114.9 228.785 112 231.772C121.373 237.659 129.676 245.232 139.993 249.47C140.945 249.861 141.931 250.227 142.96 250.249C143.988 250.272 145.078 249.89 145.665 249.048C146.556 247.767 146 246.006 145.284 244.62" fill="#B8715F"/>
        <path fill-rule="evenodd" clip-rule="evenodd" d="M118.125 202.08H115.479L112 222.205H114.645L118.125 202.08ZM117.25 202.955L114.201 222.205H112.875L115.924 202.955H117.25Z" fill="#0A2A3C"/>
        <path fill-rule="evenodd" clip-rule="evenodd" d="M230.151 77.4765V126.732V132.963C230.151 138.3 225.83 142.625 220.5 142.625H281.259C286.27 142.625 290.388 138.801 290.863 133.91H290.91V132.963V126.732V77.4765C290.91 71.8977 295.427 67.375 301 67.375H240.241C234.669 67.375 230.151 71.8977 230.151 77.4765Z" fill="#808285"/>
        <path fill-rule="evenodd" clip-rule="evenodd" d="M279.125 97.9997C279.125 109.115 270.115 118.125 259 118.125C247.885 118.125 238.875 109.115 238.875 97.9997C238.875 86.8853 247.885 77.875 259 77.875C270.115 77.875 279.125 86.8853 279.125 97.9997Z" fill="#A9186B"/>
        <path fill-rule="evenodd" clip-rule="evenodd" d="M270.921 130.952C270.921 137.398 276.161 142.625 282.625 142.625H236.25L249.987 110.25H259.218C265.681 110.25 270.921 115.476 270.921 121.923V130.952Z" fill="#011625"/>
        <path fill-rule="evenodd" clip-rule="evenodd" d="M188.151 120.351V169.606V175.838C188.151 181.174 183.831 185.5 178.5 185.5H239.259C244.27 185.5 248.388 181.676 248.863 176.785H248.91V175.838V169.606V120.351C248.91 114.772 253.427 110.25 259 110.25H198.241C192.669 110.25 188.151 114.772 188.151 120.351Z" fill="#D5D7E0"/>
        <path fill-rule="evenodd" clip-rule="evenodd" d="M237.125 140C237.125 151.115 228.115 160.125 217 160.125C205.885 160.125 196.875 151.115 196.875 140C196.875 128.885 205.885 119.875 217 119.875C228.115 119.875 237.125 128.885 237.125 140Z" fill="#DF1C40"/>
        <path fill-rule="evenodd" clip-rule="evenodd" d="M228.046 173.827C228.046 180.273 233.286 185.5 239.75 185.5H193.375L207.112 153.125H216.343C222.806 153.125 228.046 158.35 228.046 164.797V173.827Z" fill="#011625"/>
        <path fill-rule="evenodd" clip-rule="evenodd" d="M145.276 163.226V212.482V218.713C145.276 224.049 140.956 228.375 135.625 228.375H196.384C201.395 228.375 205.514 224.551 205.988 219.66H206.035V218.713V212.482V163.226C206.035 157.647 210.553 153.125 216.125 153.125H155.366C149.794 153.125 145.276 157.647 145.276 163.226Z" fill="#D5D7E0"/>
        <path fill-rule="evenodd" clip-rule="evenodd" d="M191.625 185.5C191.625 196.615 182.615 205.625 171.5 205.625C160.385 205.625 151.375 196.615 151.375 185.5C151.375 174.385 160.385 165.375 171.5 165.375C182.615 165.375 191.625 174.385 191.625 185.5Z" fill="#F15632"/>
        <path fill-rule="evenodd" clip-rule="evenodd" d="M186.046 216.702C186.046 223.148 191.286 228.375 197.75 228.375H151.375L165.112 196H174.343C180.807 196 186.046 201.226 186.046 207.673V216.702Z" fill="#011625"/>
        <path fill-rule="evenodd" clip-rule="evenodd" d="M103.276 206.101V255.357V261.588C103.276 266.924 98.9556 271.25 93.625 271.25H154.384C159.395 271.25 163.513 267.426 163.988 262.535H164.035V261.588V255.357V206.101C164.035 200.522 168.552 196 174.125 196H113.366C107.794 196 103.276 200.522 103.276 206.101Z" fill="#D5D7E0"/>
        <path fill-rule="evenodd" clip-rule="evenodd" d="M151.375 232.75C151.375 243.865 142.365 252.875 131.25 252.875C120.135 252.875 111.125 243.865 111.125 232.75C111.125 221.635 120.135 212.625 131.25 212.625C142.365 212.625 151.375 221.635 151.375 232.75Z" fill="#DF1C40"/>
        <path fill-rule="evenodd" clip-rule="evenodd" d="M209.125 11.8131C209.125 18.3364 203.641 23.625 196.875 23.625C190.109 23.625 184.625 18.3364 184.625 11.8131C184.625 5.28919 190.109 0 196.875 0C203.641 0 209.125 5.28919 209.125 11.8131Z" fill="#A8186B"/>
        <path fill-rule="evenodd" clip-rule="evenodd" d="M224 57.7494C224 64.5149 218.711 70 212.188 70C205.664 70 200.375 64.5149 200.375 57.7494C200.375 50.9845 205.664 45.5 212.188 45.5C218.711 45.5 224 50.9845 224 57.7494Z" fill="#A8186B"/>
        <path fill-rule="evenodd" clip-rule="evenodd" d="M84.875 17.0628C84.875 23.5859 79.5864 28.875 73.0631 28.875C66.5386 28.875 61.25 23.5859 61.25 17.0628C61.25 10.5391 66.5386 5.25 73.0631 5.25C79.5864 5.25 84.875 10.5391 84.875 17.0628Z" fill="#A8186B"/>
        <path fill-rule="evenodd" clip-rule="evenodd" d="M96.25 79.1875C96.25 85.7114 90.9609 91 84.4372 91C77.9141 91 72.625 85.7114 72.625 79.1875C72.625 72.6636 77.9141 67.375 84.4372 67.375C90.9609 67.375 96.25 72.6636 96.25 79.1875Z" fill="#A8186B"/>
        <path fill-rule="evenodd" clip-rule="evenodd" d="M266 215.25C266 219.116 262.866 222.25 259 222.25C255.134 222.25 252 219.116 252 215.25C252 211.384 255.134 208.25 259 208.25C262.866 208.25 266 211.384 266 215.25Z" fill="#A8186B"/>
        <path fill-rule="evenodd" clip-rule="evenodd" d="M246.75 207.812C246.75 211.92 243.42 215.25 239.312 215.25C235.205 215.25 231.875 211.92 231.875 207.812C231.875 203.705 235.205 200.375 239.312 200.375C243.42 200.375 246.75 203.705 246.75 207.812Z" fill="#A8186B"/>
        <path fill-rule="evenodd" clip-rule="evenodd" d="M252.875 238C252.875 244.766 247.391 250.25 240.625 250.25C233.859 250.25 228.375 244.766 228.375 238C228.375 231.234 233.859 225.75 240.625 225.75C247.391 225.75 252.875 231.234 252.875 238Z" fill="#A8186B"/>
        <path d="M195.417 16.625V10.6752C195.417 10.0949 194.959 9.625 194.396 9.625C193.832 9.625 193.375 10.0949 193.375 10.6752C193.375 11.2549 193.832 11.7254 194.396 11.7254H198.479C199.043 11.7254 199.5 11.2549 199.5 10.6752C199.5 10.0949 199.043 9.625 198.479 9.625C197.915 9.625 197.459 10.0949 197.459 10.6752V16.625" stroke="white" stroke-width="1.141" stroke-linecap="round" stroke-linejoin="round"/>
        <path d="M198.109 16.625C200.586 15.8098 202.235 13.2895 202.119 10.5003C202.119 7.11687 199.575 4.375 196.437 4.375C193.3 4.375 190.756 7.11687 190.756 10.5003C190.64 13.2895 192.289 15.8098 194.766 16.625" stroke="white" stroke-width="1.141" stroke-linecap="round" stroke-linejoin="round"/>
        <path fill-rule="evenodd" clip-rule="evenodd" d="M254.625 215.25C254.625 217.667 256.583 219.625 259 219.625C261.416 219.625 263.375 217.667 263.375 215.25C263.375 212.835 261.416 210.875 259 210.875C256.583 210.875 254.625 212.835 254.625 215.25Z" stroke="white" stroke-width="0.66" stroke-linecap="round" stroke-linejoin="round"/>
        <path fill-rule="evenodd" clip-rule="evenodd" d="M257.25 217.875H258.125V213.5H257.25V217.875Z" stroke="white" stroke-width="0.66" stroke-linecap="round" stroke-linejoin="round"/>
        <path fill-rule="evenodd" clip-rule="evenodd" d="M259.875 217.875H260.75V213.5H259.875V217.875Z" stroke="white" stroke-width="0.66" stroke-linecap="round" stroke-linejoin="round"/>
        <path fill-rule="evenodd" clip-rule="evenodd" d="M235.375 208.249C235.375 210.666 237.334 212.625 239.75 212.625C242.167 212.625 244.125 210.666 244.125 208.249C244.125 205.833 242.167 203.875 239.75 203.875C237.334 203.875 235.375 205.833 235.375 208.249Z" stroke="white" stroke-width="0.645" stroke-linecap="round" stroke-linejoin="round"/>
        <path fill-rule="evenodd" clip-rule="evenodd" d="M238.372 206.545C238.267 206.468 238.12 206.492 238.044 206.599C238.008 206.651 237.993 206.715 238.003 206.778V209.722C237.983 209.852 238.069 209.976 238.197 209.997C238.258 210.007 238.322 209.992 238.372 209.955L241.348 208.438C241.551 208.334 241.551 208.165 241.348 208.062L238.372 206.545Z" stroke="white" stroke-width="0.645" stroke-linecap="round" stroke-linejoin="round"/>
        <path fill-rule="evenodd" clip-rule="evenodd" d="M244.125 238C244.125 239.933 242.558 241.5 240.625 241.5C238.692 241.5 237.125 239.933 237.125 238V234.5C237.125 232.566 238.692 231 240.625 231C242.558 231 244.125 232.566 244.125 234.5V238Z" stroke="white" stroke-width="1.003" stroke-linecap="round" stroke-linejoin="round"/>
        <path d="M236.25 237.125V238.35C236.227 241.032 238.342 243.226 240.976 243.25C241.005 243.25 241.034 243.25 241.062 243.25C243.697 243.273 245.851 241.118 245.875 238.436C245.875 238.408 245.875 238.379 245.875 238.35V237.125" stroke="white" stroke-width="1.003" stroke-linecap="round" stroke-linejoin="round"/>
        <path d="M240.844 243.25V245" stroke="white" stroke-width="1.003" stroke-linecap="round" stroke-linejoin="round"/>
        <path d="M240.844 231V232.75" stroke="white" stroke-width="1.003" stroke-linecap="round" stroke-linejoin="round"/>
        <path d="M241.938 231L241.937 232.75" stroke="white" stroke-width="1.003" stroke-linecap="round" stroke-linejoin="round"/>
        <path d="M239.312 231V232.75" stroke="white" stroke-width="1.003" stroke-linecap="round" stroke-linejoin="round"/>
        <path d="M236.25 238.219H245.875" stroke="white" stroke-width="1.003" stroke-linecap="round" stroke-linejoin="round"/>
        <path d="M237.125 234.719H239.75" stroke="white" stroke-width="1.003" stroke-linecap="round" stroke-linejoin="round"/>
        <path d="M237.125 235.812H239.75" stroke="white" stroke-width="1.003" stroke-linecap="round" stroke-linejoin="round"/>
        <path d="M244.125 234.719H242.375" stroke="white" stroke-width="1.003" stroke-linecap="round" stroke-linejoin="round"/>
        <path d="M244.125 235.812H242.375" stroke="white" stroke-width="1.003" stroke-linecap="round" stroke-linejoin="round"/>
        <path d="M237.125 236.688H239.75" stroke="white" stroke-width="1.003" stroke-linecap="round" stroke-linejoin="round"/>
        <path d="M244.125 236.688H242.375" stroke="white" stroke-width="1.003" stroke-linecap="round" stroke-linejoin="round"/>
        <path fill-rule="evenodd" clip-rule="evenodd" d="M78.75 83.125H81.375V76.125H78.75V83.125Z" stroke="white" stroke-width="0.872" stroke-linecap="round" stroke-linejoin="round"/>
        <path d="M84 75.25L81.375 76.125" stroke="white" stroke-width="0.872" stroke-linecap="round" stroke-linejoin="round"/>
        <path d="M88.375 77L87.6459 75.0066C87.5103 74.6327 87.0741 74.375 86.5781 74.375H84.9213C84.4252 74.375 83.9891 74.6327 83.8528 75.0066L83.125 77" stroke="white" stroke-width="0.872" stroke-linecap="round" stroke-linejoin="round"/>
        <path d="M84 75.4688H87.5" stroke="white" stroke-width="0.872" stroke-linecap="round" stroke-linejoin="round"/>
        <path fill-rule="evenodd" clip-rule="evenodd" d="M82.25 79.6253C82.25 81.5581 83.8169 83.125 85.7497 83.125C87.6831 83.125 89.25 81.5581 89.25 79.6253C89.25 77.6925 87.6831 76.125 85.7497 76.125C83.8169 76.125 82.25 77.6925 82.25 79.6253Z" stroke="white" stroke-width="0.872" stroke-linecap="round" stroke-linejoin="round"/>
        <path fill-rule="evenodd" clip-rule="evenodd" d="M83.125 79.625C83.125 81.0746 84.1044 82.25 85.3122 82.25C86.5206 82.25 87.5 81.0746 87.5 79.625C87.5 78.1748 86.5206 77 85.3122 77C84.1044 77 83.125 78.1748 83.125 79.625Z" stroke="white" stroke-width="0.872" stroke-linecap="round" stroke-linejoin="round"/>
        <path d="M81.375 82.6875H84" stroke="white" stroke-width="0.872" stroke-linecap="round" stroke-linejoin="round"/>
        <path fill-rule="evenodd" clip-rule="evenodd" d="M209.125 56C209.125 56.4833 209.713 56.875 210.437 56.875C211.163 56.875 211.75 56.4833 211.75 56C211.75 55.5167 211.163 55.125 210.437 55.125C209.713 55.125 209.125 55.5167 209.125 56Z" stroke="white" stroke-width="1.023" stroke-linecap="round" stroke-linejoin="round"/>
        <path fill-rule="evenodd" clip-rule="evenodd" d="M213.353 57.8861C213.265 57.7503 213.077 57.7095 212.936 57.7939C212.896 57.8171 212.864 57.8488 212.84 57.8861L211.241 60.3299L210.59 59.3336C210.501 59.1978 210.314 59.1564 210.172 59.2414C210.133 59.2651 210.1 59.2963 210.075 59.3336L208.25 62.125H216.125L213.353 57.8861Z" stroke="white" stroke-width="1.023" stroke-linecap="round" stroke-linejoin="round"/>
        <path fill-rule="evenodd" clip-rule="evenodd" d="M218.561 53.1846C218.681 53.2989 218.75 53.4536 218.75 53.6155V64.1406C218.75 64.4774 218.461 64.75 218.105 64.75H207.145C206.789 64.75 206.5 64.4774 206.5 64.1406V51.3588C206.5 51.0226 206.789 50.75 207.145 50.75H215.714C215.886 50.75 216.05 50.8143 216.171 50.9285L218.561 53.1846Z" stroke="white" stroke-width="1.023" stroke-linecap="round" stroke-linejoin="round"/>
        <path fill-rule="evenodd" clip-rule="evenodd" d="M68.25 23.625H77.875V11.375H68.25V23.625Z" stroke="white" stroke-width="0.884" stroke-linecap="round" stroke-linejoin="round"/>
        <path fill-rule="evenodd" clip-rule="evenodd" d="M70.875 16.625H75.25V13.125H70.875V16.625Z" stroke="white" stroke-width="0.884" stroke-linecap="round" stroke-linejoin="round"/>
        <path fill-rule="evenodd" clip-rule="evenodd" d="M70.875 21.875H75.25V18.375H70.875V21.875Z" stroke="white" stroke-width="0.884" stroke-linecap="round" stroke-linejoin="round"/>
        <path d="M69.7559 13.3438C69.7559 13.3971 69.6684 13.4409 69.5616 13.4409C69.4549 13.4409 69.3691 13.3971 69.3691 13.3438C69.3691 13.2904 69.4549 13.2466 69.5616 13.2466C69.6684 13.2466 69.7559 13.2904 69.7559 13.3438" stroke="white" stroke-width="0.884" stroke-linecap="round" stroke-linejoin="round"/>
        <path d="M69.7559 15.3121C69.7559 15.4188 69.6684 15.5063 69.5616 15.5063C69.4549 15.5063 69.3691 15.4188 69.3691 15.3121C69.3691 15.2053 69.4549 15.1187 69.5616 15.1187C69.6684 15.1187 69.7559 15.2053 69.7559 15.3121" stroke="white" stroke-width="0.884" stroke-linecap="round" stroke-linejoin="round"/>
        <path d="M69.7559 17.0629C69.7559 17.1688 69.6684 17.2563 69.5616 17.2563C69.4549 17.2563 69.3691 17.1688 69.3691 17.0629C69.3691 16.9562 69.4549 16.8687 69.5616 16.8687C69.6684 16.8687 69.7559 16.9562 69.7559 17.0629" stroke="white" stroke-width="0.884" stroke-linecap="round" stroke-linejoin="round"/>
        <path d="M69.7559 19.6871C69.7559 19.7938 69.6684 19.8813 69.5616 19.8813C69.4549 19.8813 69.3691 19.7938 69.3691 19.6871C69.3691 19.5812 69.4549 19.4937 69.5616 19.4937C69.6684 19.4937 69.7559 19.5812 69.7559 19.6871" stroke="white" stroke-width="0.884" stroke-linecap="round" stroke-linejoin="round"/>
        <path d="M69.7559 21.4371C69.7559 21.5438 69.6684 21.6313 69.5616 21.6313C69.4549 21.6313 69.3691 21.5438 69.3691 21.4371C69.3691 21.3312 69.4549 21.2437 69.5616 21.2437C69.6684 21.2437 69.7559 21.3312 69.7559 21.4371" stroke="white" stroke-width="0.884" stroke-linecap="round" stroke-linejoin="round"/>
    </svg>
</svg>