<?xml version="1.0" encoding="UTF-8"?><svg id="Layer_1" xmlns="http://www.w3.org/2000/svg" viewBox="0 0 48 48"><defs><style>.cls-1{stroke:#db0032;}.cls-1,.cls-2{fill:none;stroke-linecap:round;stroke-linejoin:round;stroke-width:2px;}.cls-2{stroke:#ae1164;}</style></defs><g><path class="cls-2" d="M30,34.66v4.34c0,3.31-2.69,6-6,6s-6-2.69-6-6v-4.34"/><line class="cls-2" x1="24" y1="45" x2="24" y2="47"/><path class="cls-1" d="M26,35.86v-11.86c0-1.66,1.34-3,3-3s3,1.34,3,3-1.34,3-3,3h-10c-1.66,0-3-1.34-3-3s1.34-3,3-3,3,1.34,3,3v11.86"/><line class="cls-2" x1="18.08" y1="40" x2="29.92" y2="40"/></g><circle class="cls-2" cx="24" cy="22" r="14"/><line class="cls-1" x1="24" y1="1" x2="24" y2="3"/><line class="cls-1" x1="9.16" y1="7.16" x2="10.56" y2="8.56"/><line class="cls-1" x1="3" y1="22" x2="5" y2="22"/><line class="cls-1" x1="9.16" y1="36.86" x2="10.56" y2="35.44"/><line class="cls-1" x1="38.84" y1="36.86" x2="37.44" y2="35.44"/><line class="cls-1" x1="45" y1="22" x2="43" y2="22"/><line class="cls-1" x1="38.84" y1="7.16" x2="37.44" y2="8.56"/></svg>