<?xml version="1.0" encoding="utf-8"?>
<!-- Generator: Adobe Illustrator 22.1.0, SVG Export Plug-In . SVG Version: 6.00 Build 0)  -->
<svg version="1.1" id="Regular" xmlns="http://www.w3.org/2000/svg" xmlns:xlink="http://www.w3.org/1999/xlink" x="0px" y="0px"
	 viewBox="0 0 24 24" style="enable-background:new 0 0 24 24;" xml:space="preserve">
<title>light-bulb-shine</title>
<g>
	<path d="M10.5,23.25c-0.414,0-0.75-0.336-0.75-0.75s0.336-0.75,0.75-0.75h3c0.414,0,0.75,0.336,0.75,0.75s-0.336,0.75-0.75,0.75
		H10.5z"/>
	<path d="M10.5,20.25c-0.414,0-0.75-0.336-0.75-0.75v-1.157c-2.713-0.954-4.51-3.487-4.5-6.389C5.263,8.246,8.291,5.229,12,5.229
		c1.828,0.006,3.52,0.715,4.79,1.994c1.27,1.279,1.966,2.977,1.96,4.78c-0.005,2.882-1.802,5.396-4.5,6.341V19.5
		c0,0.414-0.336,0.75-0.75,0.75H10.5z M12.75,18.75v-0.962c0-0.343,0.232-0.642,0.564-0.727c2.313-0.593,3.932-2.675,3.936-5.063
		c0.005-1.403-0.536-2.724-1.524-3.719c-0.988-0.995-2.304-1.546-3.707-1.551l-0.021-0.375v0.375c-2.883,0-5.237,2.347-5.247,5.231
		c-0.009,2.403,1.61,4.501,3.937,5.102c0.331,0.085,0.562,0.384,0.562,0.726v0.962H12.75z"/>
	<path d="M12,3.75c-0.414,0-0.75-0.336-0.75-0.75V1.5c0-0.414,0.336-0.75,0.75-0.75s0.75,0.336,0.75,0.75V3
		C12.75,3.414,12.414,3.75,12,3.75z"/>
	<path d="M21,11.25c-0.414,0-0.75-0.336-0.75-0.75S20.586,9.75,21,9.75h1.5c0.414,0,0.75,0.336,0.75,0.75s-0.336,0.75-0.75,0.75H21z
		"/>
	<path d="M1.5,12.75c-0.414,0-0.75-0.336-0.75-0.75s0.336-0.75,0.75-0.75H3c0.414,0,0.75,0.336,0.75,0.75S3.414,12.75,3,12.75H1.5z"
		/>
	<path d="M19.425,19.425c-0.2,0-0.389-0.078-0.53-0.22l-1.061-1.061c-0.292-0.292-0.292-0.768,0-1.061
		c0.142-0.142,0.33-0.22,0.53-0.22s0.389,0.078,0.53,0.22l1.061,1.061c0.292,0.292,0.292,0.768,0,1.061
		C19.814,19.347,19.625,19.425,19.425,19.425z"/>
	<path d="M5.636,5.636c-0.2,0-0.389-0.078-0.53-0.22L4.045,4.355c-0.142-0.141-0.22-0.33-0.22-0.53s0.078-0.389,0.22-0.53
		c0.141-0.142,0.33-0.22,0.53-0.22s0.389,0.078,0.53,0.22l1.061,1.061c0.142,0.141,0.22,0.33,0.22,0.53s-0.078,0.389-0.22,0.53
		C6.025,5.558,5.836,5.636,5.636,5.636z"/>
	<path d="M18.364,5.636c-0.2,0-0.389-0.078-0.53-0.22c-0.142-0.141-0.22-0.33-0.22-0.53s0.078-0.389,0.22-0.53l1.061-1.061
		c0.142-0.142,0.33-0.22,0.53-0.22s0.389,0.078,0.53,0.22c0.142,0.141,0.22,0.33,0.22,0.53s-0.078,0.389-0.22,0.53l-1.061,1.061
		C18.753,5.558,18.564,5.636,18.364,5.636z"/>
	<path d="M4.575,19.425c-0.2,0-0.389-0.078-0.53-0.22c-0.292-0.292-0.292-0.768,0-1.061l1.061-1.061
		c0.142-0.142,0.33-0.22,0.53-0.22s0.389,0.078,0.53,0.22c0.292,0.292,0.292,0.768,0,1.061l-1.061,1.061
		C4.964,19.347,4.775,19.425,4.575,19.425z"/>
</g>
</svg>
