<?xml version="1.0" encoding="utf-8"?>
<svg version="1.1" id="loading" xmlns="http://www.w3.org/2000/svg" xmlns:xlink="http://www.w3.org/1999/xlink" x="0px" y="0px"
	 viewBox="0 0 14.3 15.8" xml:space="preserve">
<style type="text/css">
	.st0 { fill: #939393; }
</style>
<path class="st0" d="M13.2,11.8c0.3-0.4,0.1-1-0.4-1.3c-0.4-0.3-1-0.1-1.3,0.3c-1.3,2.2-4.1,2.9-6.4,1.6c-2.3-1.3-3.1-4.1-1.8-6.3
	c1-1.8,3.1-2.6,5.1-2.2L7.8,4.8L7.4,5.3L8,5.4l4.7,0.9l0.6,0.1l-0.2-0.6l-1.7-4.5l-0.2-0.6l-0.4,0.4L9.7,2.6c-3-1.2-6.4,0-8,2.7
	C0,8.4,1.1,12.3,4.3,14.1C7.5,16,11.5,14.9,13.2,11.8z"/>
</svg>
