<?xml version="1.0" encoding="utf-8"?>
<!-- Generator: Adobe Illustrator 22.1.0, SVG Export Plug-In . SVG Version: 6.00 Build 0)  -->
<svg version="1.1" id="Layer_1" xmlns="http://www.w3.org/2000/svg" xmlns:xlink="http://www.w3.org/1999/xlink" x="0px" y="0px"
	 viewBox="0 0 24 24" style="enable-background:new 0 0 24 24;" xml:space="preserve">
<title>notes-edit</title>
<g>
	<path d="M11.247,23.992c-0.2,0-0.389-0.078-0.53-0.22c-0.178-0.177-0.255-0.431-0.205-0.677l0.75-3.75
		c0.029-0.146,0.1-0.279,0.205-0.384l7.63-7.63c0.54-0.54,1.26-0.838,2.026-0.838c0.766,0,1.486,0.298,2.026,0.838
		c0.007,0.007,0.017,0.018,0.026,0.028c0.533,0.527,0.831,1.235,0.837,1.992c0.007,0.763-0.282,1.481-0.813,2.021
		c-0.041,0.042-0.085,0.078-0.133,0.11l-7.54,7.539c-0.104,0.105-0.238,0.176-0.384,0.205l-3.749,0.75
		C11.345,23.987,11.296,23.992,11.247,23.992z M12.203,22.286l2.424-0.485l7.469-7.469c0.031-0.031,0.064-0.059,0.1-0.084
		c0.455-0.538,0.417-1.338-0.096-1.842c-0.011-0.011-0.032-0.034-0.041-0.043c-0.235-0.234-0.572-0.371-0.933-0.371
		c-0.367,0-0.712,0.142-0.971,0.401l-7.469,7.469L12.203,22.286z"/>
	<path d="M2.201,20.993c-1.186,0-2.175-0.969-2.204-2.159c-0.001-0.036-0.001-0.073,0-0.11l0-14.875
		C-0.045,2.601,0.953,1.538,2.22,1.493l2.277,0v-0.75c0-0.414,0.336-0.75,0.75-0.75s0.75,0.336,0.75,0.75v0.75l3,0v-0.75
		c0-0.414,0.336-0.75,0.75-0.75s0.75,0.336,0.75,0.75v0.75l3,0v-0.75c0-0.414,0.336-0.75,0.75-0.75s0.75,0.336,0.75,0.75v0.75h2.25
		c1.288,0.046,2.291,1.114,2.25,2.382l0,4.368c0,0.414-0.336,0.75-0.75,0.75s-0.75-0.336-0.75-0.75V3.849
		c0.015-0.462-0.334-0.841-0.777-0.857l-2.223,0v2.25c0,0.414-0.336,0.75-0.75,0.75s-0.75-0.336-0.75-0.75v-2.25l-3,0v2.25
		c0,0.414-0.336,0.75-0.75,0.75s-0.75-0.336-0.75-0.75v-2.25l-3,0v2.25c0,0.414-0.336,0.75-0.75,0.75s-0.75-0.336-0.75-0.75v-2.25
		h-2.25c-0.422,0.016-0.765,0.389-0.75,0.832l0,14.971c0.01,0.391,0.326,0.697,0.72,0.697l6.03,0c0.414,0,0.75,0.336,0.75,0.75
		s-0.336,0.75-0.75,0.75L2.201,20.993z"/>
</g>
</svg>
