<svg width="243" height="240" viewBox="0 0 243 240" fill="none" xmlns="http://www.w3.org/2000/svg">
<path d="M284.435 313.326L284.389 386.282C284.389 389.913 281.279 392.862 277.433 392.862L237.087 392.862C233.256 392.862 230.145 389.913 230.13 386.282L230.069 361.3C230.038 352.382 233.762 343.827 240.412 337.524L271.319 308.185C276.161 303.609 284.435 306.848 284.435 313.326ZM0.558394 63.5073C0.527749 51.5683 5.55374 40.1086 14.4872 31.699L45.3787 2.63577C49.1022 -0.879127 55.446 1.64811 55.4307 6.62996L55.2621 39.8326C79.3501 21.9386 109.675 11.2632 142.589 11.2632C223.066 11.2633 288.113 75.1268 284.267 152.193L284.435 227.821C284.466 239.76 279.44 251.22 270.507 259.63L239.615 288.693C235.892 292.208 229.548 289.681 229.563 284.699L229.732 251.612C208.325 267.502 182.061 277.727 153.545 279.76C71.4434 285.643 2.47376 224.815 0.788224 148.576L0.757594 148.635L0.757594 145.73C0.757594 145.715 0.757594 145.701 0.757594 145.686C0.757594 145.672 0.757594 145.672 0.757594 145.657L0.558394 63.5073ZM55.1395 144.684C55.1395 190.958 94.8572 228.606 143.677 228.606C192.496 228.606 232.214 190.959 232.214 144.684C232.214 98.4093 192.496 60.7622 143.677 60.7622C94.8572 60.7622 55.1395 98.4093 55.1395 144.684Z" fill="#DBE6F6" fill-opacity="0.65"/>
<ellipse cx="201.079" cy="-45.2574" rx="172" ry="170.712" stroke="url(#paint0_linear_484_47323)" stroke-opacity="0.2" stroke-width="2"/>
<ellipse cx="120.579" cy="-44.761" rx="119.5" ry="118.605" stroke="url(#paint1_linear_484_47323)" stroke-opacity="0.2" stroke-width="2"/>
<circle cx="71" cy="114" r="4" fill="#B7CDED"/>
<circle cx="83" cy="114" r="4" fill="#B7CDED"/>
<circle cx="95" cy="114" r="4" fill="#B7CDED"/>
<circle cx="107" cy="114" r="4" fill="#B7CDED"/>
<circle cx="119" cy="114" r="4" fill="#B7CDED"/>
<circle cx="131" cy="114" r="4" fill="#B7CDED"/>
<circle cx="143" cy="114" r="4" fill="#B7CDED"/>
<circle cx="155" cy="114" r="4" fill="#B7CDED"/>
<circle cx="167" cy="114" r="4" fill="#B7CDED"/>
<circle cx="179" cy="114" r="4" fill="#B7CDED"/>
<circle cx="71" cy="126" r="4" fill="#B7CDED"/>
<circle cx="83" cy="126" r="4" fill="#B7CDED"/>
<circle cx="95" cy="126" r="4" fill="#B7CDED"/>
<circle cx="107" cy="126" r="4" fill="#B7CDED"/>
<circle cx="119" cy="126" r="4" fill="#B7CDED"/>
<circle cx="131" cy="126" r="4" fill="#B7CDED"/>
<circle cx="143" cy="126" r="4" fill="#B7CDED"/>
<circle cx="155" cy="126" r="4" fill="#B7CDED"/>
<circle cx="167" cy="126" r="4" fill="#B7CDED"/>
<circle cx="179" cy="126" r="4" fill="#B7CDED"/>
<circle cx="71" cy="138" r="4" fill="#B7CDED"/>
<circle cx="83" cy="138" r="4" fill="#B7CDED"/>
<circle cx="95" cy="138" r="4" fill="#B7CDED"/>
<circle cx="107" cy="138" r="4" fill="#B7CDED"/>
<circle cx="119" cy="138" r="4" fill="#B7CDED"/>
<circle cx="131" cy="138" r="4" fill="#B7CDED"/>
<circle cx="143" cy="138" r="4" fill="#B7CDED"/>
<circle cx="155" cy="138" r="4" fill="#B7CDED"/>
<circle cx="167" cy="138" r="4" fill="#B7CDED"/>
<circle cx="179" cy="138" r="4" fill="#B7CDED"/>
<circle cx="71" cy="150" r="4" fill="#B7CDED"/>
<circle cx="83" cy="150" r="4" fill="#B7CDED"/>
<circle cx="95" cy="150" r="4" fill="#B7CDED"/>
<circle cx="107" cy="150" r="4" fill="#B7CDED"/>
<circle cx="119" cy="150" r="4" fill="#B7CDED"/>
<circle cx="131" cy="150" r="4" fill="#B7CDED"/>
<circle cx="143" cy="150" r="4" fill="#B7CDED"/>
<circle cx="155" cy="150" r="4" fill="#B7CDED"/>
<circle cx="167" cy="150" r="4" fill="#B7CDED"/>
<circle cx="179" cy="150" r="4" fill="#B7CDED"/>
<circle cx="71" cy="162" r="4" fill="#B7CDED"/>
<circle cx="83" cy="162" r="4" fill="#B7CDED"/>
<circle cx="95" cy="162" r="4" fill="#B7CDED"/>
<circle cx="107" cy="162" r="4" fill="#B7CDED"/>
<circle cx="119" cy="162" r="4" fill="#B7CDED"/>
<circle cx="131" cy="162" r="4" fill="#B7CDED"/>
<circle cx="143" cy="162" r="4" fill="#B7CDED"/>
<circle cx="155" cy="162" r="4" fill="#B7CDED"/>
<circle cx="167" cy="162" r="4" fill="#B7CDED"/>
<circle cx="179" cy="162" r="4" fill="#B7CDED"/>
<circle cx="71" cy="174" r="4" fill="#B7CDED"/>
<circle cx="83" cy="174" r="4" fill="#B7CDED"/>
<circle cx="95" cy="174" r="4" fill="#B7CDED"/>
<circle cx="107" cy="174" r="4" fill="#B7CDED"/>
<circle cx="119" cy="174" r="4" fill="#B7CDED"/>
<circle cx="131" cy="174" r="4" fill="#B7CDED"/>
<circle cx="143" cy="174" r="4" fill="#B7CDED"/>
<circle cx="155" cy="174" r="4" fill="#B7CDED"/>
<circle cx="167" cy="174" r="4" fill="#B7CDED"/>
<circle cx="179" cy="174" r="4" fill="#B7CDED"/>
<circle cx="71" cy="186" r="4" fill="#B7CDED"/>
<circle cx="83" cy="186" r="4" fill="#B7CDED"/>
<circle cx="95" cy="186" r="4" fill="#B7CDED"/>
<circle cx="107" cy="186" r="4" fill="#B7CDED"/>
<circle cx="119" cy="186" r="4" fill="#B7CDED"/>
<circle cx="131" cy="186" r="4" fill="#B7CDED"/>
<circle cx="143" cy="186" r="4" fill="#B7CDED"/>
<circle cx="155" cy="186" r="4" fill="#B7CDED"/>
<circle cx="167" cy="186" r="4" fill="#B7CDED"/>
<circle cx="179" cy="186" r="4" fill="#B7CDED"/>
<circle cx="71" cy="198" r="4" fill="#B7CDED"/>
<circle cx="83" cy="198" r="4" fill="#B7CDED"/>
<circle cx="95" cy="198" r="4" fill="#B7CDED"/>
<circle cx="107" cy="198" r="4" fill="#B7CDED"/>
<circle cx="119" cy="198" r="4" fill="#B7CDED"/>
<circle cx="131" cy="198" r="4" fill="#B7CDED"/>
<circle cx="143" cy="198" r="4" fill="#B7CDED"/>
<circle cx="155" cy="198" r="4" fill="#B7CDED"/>
<circle cx="167" cy="198" r="4" fill="#B7CDED"/>
<circle cx="179" cy="198" r="4" fill="#B7CDED"/>
<circle cx="71" cy="210" r="4" fill="#B7CDED"/>
<circle cx="83" cy="210" r="4" fill="#B7CDED"/>
<circle cx="95" cy="210" r="4" fill="#B7CDED"/>
<circle cx="107" cy="210" r="4" fill="#B7CDED"/>
<circle cx="119" cy="210" r="4" fill="#B7CDED"/>
<circle cx="131" cy="210" r="4" fill="#B7CDED"/>
<circle cx="143" cy="210" r="4" fill="#B7CDED"/>
<circle cx="155" cy="210" r="4" fill="#B7CDED"/>
<circle cx="167" cy="210" r="4" fill="#B7CDED"/>
<circle cx="179" cy="210" r="4" fill="#B7CDED"/>
<path d="M145.6 134.428L111.97 109.874L145.6 84.0681V134.428Z" fill="url(#paint2_linear_484_47323)"/>
<path d="M187.25 109.329L145.6 164.73V84.0717L187.25 109.329Z" fill="url(#paint3_linear_484_47323)"/>
<path d="M111.97 157.382V109.873L153.073 133.894L153.607 183.004L111.97 157.382Z" fill="url(#paint4_linear_484_47323)"/>
<path d="M153.607 183.004L187.236 158.449V109.34L153.073 133.894L153.607 183.004Z" fill="url(#paint5_linear_484_47323)"/>
<path d="M92.0842 124.256L111.975 109.873L152.937 133.864L132.653 149.344L92.0842 124.256Z" fill="url(#paint6_linear_484_47323)"/>
<path d="M145.608 84.08L160.555 73.0582L203.648 97.0321L187.1 109.309L145.608 84.08Z" fill="url(#paint7_linear_484_47323)"/>
<path d="M145.608 84.0759L128.916 72.4774L92.6179 98.6335L111.979 109.873L145.608 84.0759Z" fill="url(#paint8_linear_484_47323)"/>
<path d="M207.084 120.988L187.283 109.464L152.937 133.864L174.823 147.743L207.084 120.988Z" fill="url(#paint9_linear_484_47323)"/>
<path d="M138.91 69.5779C138.912 69.5103 138.887 69.4447 138.84 69.3961C138.793 69.3475 138.728 69.3201 138.66 69.3201H127.915L147.201 40.1308L166.487 69.3201H156.809C156.671 69.3201 156.559 69.432 156.559 69.5701V103.483H137.851L138.91 69.5779Z" fill="url(#paint10_linear_484_47323)" stroke="white" stroke-width="0.5" stroke-linejoin="round"/>
<defs>
<linearGradient id="paint0_linear_484_47323" x1="29.0791" y1="140.454" x2="373.079" y2="140.454" gradientUnits="userSpaceOnUse">
<stop stop-color="#DB0133"/>
<stop offset="1" stop-color="#AE1063"/>
</linearGradient>
<linearGradient id="paint1_linear_484_47323" x1="1.0791" y1="84.265" x2="240.079" y2="84.265" gradientUnits="userSpaceOnUse">
<stop stop-color="#DB0133"/>
<stop offset="1" stop-color="#AE1063"/>
</linearGradient>
<linearGradient id="paint2_linear_484_47323" x1="162.483" y1="84.7849" x2="162.483" y2="134.428" gradientUnits="userSpaceOnUse">
<stop offset="0.245" stop-color="#2F6CBE"/>
<stop offset="0.905" stop-color="#3168B4"/>
</linearGradient>
<linearGradient id="paint3_linear_484_47323" x1="167.388" y1="86.9134" x2="167.388" y2="134.955" gradientUnits="userSpaceOnUse">
<stop offset="0.482948" stop-color="#23569B"/>
<stop offset="1" stop-color="#1A519D"/>
</linearGradient>
<linearGradient id="paint4_linear_484_47323" x1="110.036" y1="165.073" x2="161.783" y2="160.228" gradientUnits="userSpaceOnUse">
<stop stop-color="#5083C9"/>
<stop offset="1" stop-color="#8FB0DE"/>
</linearGradient>
<linearGradient id="paint5_linear_484_47323" x1="175.758" y1="109.34" x2="175.758" y2="183.004" gradientUnits="userSpaceOnUse">
<stop offset="0.482948" stop-color="#3D74BE"/>
<stop offset="1" stop-color="#3F76C1"/>
</linearGradient>
<linearGradient id="paint6_linear_484_47323" x1="132.119" y1="149.878" x2="107.25" y2="113.513" gradientUnits="userSpaceOnUse">
<stop stop-color="#5083C9"/>
<stop offset="1" stop-color="#8FB0DE"/>
</linearGradient>
<linearGradient id="paint7_linear_484_47323" x1="142.912" y1="100.421" x2="210.962" y2="82.506" gradientUnits="userSpaceOnUse">
<stop stop-color="#5083C9"/>
<stop offset="1" stop-color="#8FB0DE"/>
</linearGradient>
<linearGradient id="paint8_linear_484_47323" x1="148.07" y1="100.704" x2="85.0556" y2="86.0222" gradientUnits="userSpaceOnUse">
<stop stop-color="#5083C9"/>
<stop offset="1" stop-color="#8FB0DE"/>
</linearGradient>
<linearGradient id="paint9_linear_484_47323" x1="209.599" y1="138.357" x2="145.198" y2="123.378" gradientUnits="userSpaceOnUse">
<stop stop-color="#5083C9"/>
<stop offset="1" stop-color="#8FB0DE"/>
</linearGradient>
<linearGradient id="paint10_linear_484_47323" x1="127.45" y1="106.547" x2="166.952" y2="106.547" gradientUnits="userSpaceOnUse">
<stop stop-color="#DB0032"/>
<stop offset="1" stop-color="#AE1164"/>
</linearGradient>
</defs>
</svg>
