<svg width="243" height="240" viewBox="0 0 243 240" fill="none" xmlns="http://www.w3.org/2000/svg">
<path d="M280.539 313.326L280.494 386.282C280.494 389.913 277.426 392.862 273.633 392.862L233.841 392.862C230.062 392.862 226.995 389.913 226.979 386.282L226.919 361.3C226.889 352.382 230.561 343.827 237.12 337.524L267.603 308.185C272.378 303.609 280.539 306.848 280.539 313.326ZM0.55843 63.5073C0.528205 51.5683 5.48522 40.1086 14.296 31.699L44.7636 2.63577C48.436 -0.879126 54.6927 1.64811 54.6776 6.62996L54.5114 39.8326C78.2688 21.9386 108.177 11.2632 140.64 11.2632C220.012 11.2633 284.167 75.1268 280.373 152.193L280.539 227.821C280.57 239.76 275.613 251.22 266.802 259.63L236.334 288.693C232.662 292.208 226.405 289.681 226.42 284.699L226.587 251.612C205.474 267.502 179.57 277.727 151.445 279.76C70.4705 285.643 2.44751 224.815 0.785105 148.576L0.754896 148.635L0.754896 145.73C0.754896 145.715 0.754896 145.701 0.754896 145.686C0.754896 145.672 0.754896 145.672 0.754896 145.657L0.55843 63.5073ZM54.3905 144.684C54.3905 190.958 93.563 228.606 141.713 228.606C189.862 228.606 229.035 190.959 229.035 144.684C229.035 98.4093 189.862 60.7622 141.713 60.7622C93.563 60.7622 54.3905 98.4093 54.3905 144.684Z" fill="#DBE6F6" fill-opacity="0.45"/>
<ellipse cx="326.297" cy="-62.731" rx="172" ry="170.712" stroke="url(#paint0_linear_485_47937)" stroke-opacity="0.2" stroke-width="2"/>
<ellipse cx="245.797" cy="-62.2346" rx="119.5" ry="118.605" stroke="url(#paint1_linear_485_47937)" stroke-opacity="0.2" stroke-width="2"/>
<defs>
<linearGradient id="paint0_linear_485_47937" x1="154.297" y1="122.98" x2="498.297" y2="122.98" gradientUnits="userSpaceOnUse">
<stop stop-color="#DB0133"/>
<stop offset="1" stop-color="#AE1063"/>
</linearGradient>
<linearGradient id="paint1_linear_485_47937" x1="126.297" y1="66.7913" x2="365.297" y2="66.7913" gradientUnits="userSpaceOnUse">
<stop stop-color="#DB0133"/>
<stop offset="1" stop-color="#AE1063"/>
</linearGradient>
</defs>
</svg>
