<?xml version="1.0" encoding="UTF-8"?><svg id="Layer_1" xmlns="http://www.w3.org/2000/svg" viewBox="0 0 48 48"><defs><style>.cls-1{stroke:#db0032;}.cls-1,.cls-2{fill:none;stroke-linecap:round;stroke-linejoin:round;stroke-width:4px;}.cls-2{stroke:#ae1164;}</style></defs><path class="cls-2" d="M20,2.25l4.36,9.4h8.48c1.15-.05,2.11,.84,2.16,1.99,.03,.62-.23,1.22-.7,1.64l-7.35,7.24,4.08,9.37c.47,1.13-.07,2.43-1.2,2.9-.64,.27-1.37,.22-1.96-.13l-9.86-5.55-9.87,5.54c-1.06,.61-2.42,.25-3.03-.82-.34-.6-.39-1.32-.13-1.96l4.08-9.36L1.71,15.28c-.86-.76-.95-2.07-.19-2.93,.41-.47,1.02-.73,1.64-.71H11.64L16,2.25c.58-1.1,1.95-1.53,3.06-.94,.4,.21,.73,.54,.94,.94Z"/><line class="cls-1" x1="44" y1="27.96" x2="44" y2="33.96"/><line class="cls-1" x1="41" y1="30.96" x2="47" y2="30.96"/><line class="cls-1" x1="21" y1="40.96" x2="21" y2="46.96"/><line class="cls-1" x1="18" y1="43.96" x2="24" y2="43.96"/><line class="cls-1" x1="41" y1="2.96" x2="41" y2="8.96"/><line class="cls-1" x1="38" y1="5.96" x2="44" y2="5.96"/></svg>