<?xml version="1.0" encoding="UTF-8"?><svg id="Layer_1" xmlns="http://www.w3.org/2000/svg" viewBox="0 0 48 48"><defs><style>.cls-1{stroke:#ffffff;}.cls-1,.cls-2{fill:none;stroke-linecap:round;stroke-linejoin:round;stroke-width:4px;}.cls-2{stroke:#ffffff;}</style></defs><path class="cls-2" d="M43,11h1c.79,0,1.55,.32,2.12,.88,.56,.56,.88,1.32,.88,2.12v26c0,.79-.32,1.55-.88,2.12-.56,.56-1.32,.88-2.12,.88H4c-.79,0-1.55-.32-2.12-.88-.56-.56-.88-1.32-.88-2.12V14c0-.79,.32-1.55,.88-2.12,.56-.56,1.32-.88,2.12-.88h1"/><path class="cls-2" d="M14,47h20"/><path class="cls-2" d="M24,43v4"/><path class="cls-1" d="M9,31V3c0-.53,.21-1.04,.59-1.41,.38-.38,.88-.59,1.41-.59h26c.53,0,1.04,.21,1.41,.59,.38,.38,.59,.88,.59,1.41V31"/><path class="cls-1" d="M20,15h-6c-.55,0-1,.45-1,1v5c0,.55,.45,1,1,1h6c.55,0,1-.45,1-1v-5c0-.55-.45-1-1-1Z"/><path class="cls-1" d="M25.2,21h9.8"/><path class="cls-1" d="M25.2,15h9.8"/><path class="cls-1" d="M13,27h22"/><path class="cls-2" d="M1,37H47"/><path class="cls-1" d="M9,10h30"/><g><path class="cls-1" d="M13.5,6c-.28,0-.5-.22-.5-.5s.22-.5,.5-.5"/><path class="cls-1" d="M13.5,6c.28,0,.5-.22,.5-.5s-.22-.5-.5-.5"/></g><g><path class="cls-1" d="M18.5,6c-.28,0-.5-.22-.5-.5s.22-.5,.5-.5"/><path class="cls-1" d="M18.5,6c.28,0,.5-.22,.5-.5s-.22-.5-.5-.5"/></g><g><path class="cls-1" d="M23.5,6c-.28,0-.5-.22-.5-.5s.22-.5,.5-.5"/><path class="cls-1" d="M23.5,6c.28,0,.5-.22,.5-.5s-.22-.5-.5-.5"/></g></svg>