<svg width="32" height="30" viewBox="0 0 32 30" fill="none" xmlns="http://www.w3.org/2000/svg">
<path fill-rule="evenodd" clip-rule="evenodd" d="M12.4667 2H19.5334C21.1903 2 22.5334 3.34315 22.5334 5V6.40001H9.46673V5C9.46673 3.34315 10.8099 2 12.4667 2ZM7.46673 6.40001V5C7.46673 2.23858 9.70531 0 12.4667 0H19.5334C22.2948 0 24.5334 2.23858 24.5334 5V6.40001H30C31.1046 6.40001 32 7.29544 32 8.40001V27.8667C32 28.9713 31.1046 29.8667 30 29.8667H2C0.895431 29.8667 0 28.9712 0 27.8667V8.40001C0 7.29544 0.895431 6.40001 2 6.40001H7.46673ZM7.46673 8.40001H2V27.8667H30V8.40001H24.5334V8.53333H22.5334H9.46673H7.46673V8.40001ZM6.40008 12.8C5.81098 12.8 5.33342 13.2776 5.33342 13.8667C5.33342 14.4558 5.81098 14.9333 6.40008 14.9333H25.6001C26.1892 14.9333 26.6667 14.4558 26.6667 13.8667C26.6667 13.2776 26.1892 12.8 25.6001 12.8H6.40008ZM5.33342 21.3333C5.33342 20.7442 5.81098 20.2667 6.40008 20.2667H25.6001C26.1892 20.2667 26.6667 20.7442 26.6667 21.3333C26.6667 21.9224 26.1892 22.4 25.6001 22.4H6.40008C5.81098 22.4 5.33342 21.9224 5.33342 21.3333Z" fill="#131C26"/>
</svg>
