<svg width="54" height="54" viewBox="0 0 54 54" fill="none" xmlns="http://www.w3.org/2000/svg">
<path fill-rule="evenodd" clip-rule="evenodd" d="M33.0001 17.5714H21.0001C19.5799 17.5714 18.4286 18.7227 18.4286 20.1428V28.4455L15.5376 32.6014C15.0762 33.5046 15.1189 34.4508 15.5871 35.2087C16.0553 35.9666 16.8825 36.4281 17.7733 36.4286H36.2263C37.1176 36.4281 37.9448 35.9666 38.413 35.2087C38.8812 34.4508 38.9239 33.5046 38.5257 32.7077L35.5715 28.4462V20.1428C35.5715 18.7227 34.4202 17.5714 33.0001 17.5714ZM34.2669 29.5714H19.7315L17.0079 33.474C16.9017 33.6865 16.8896 33.9308 16.9689 34.1494L17.0455 34.3076C17.2016 34.5603 17.4773 34.7141 17.7738 34.7143H36.2259C36.5228 34.7141 36.7985 34.5603 36.9546 34.3076C37.1107 34.055 37.1249 33.7396 37.0553 33.5803L34.2669 29.5714ZM33.8572 27.8571V20.1428C33.8572 19.7221 33.554 19.3721 33.1541 19.2995L33.0001 19.2857H21.0001C20.5267 19.2857 20.1429 19.6695 20.1429 20.1428V27.8571H33.8572Z" fill="#131C26"/>
</svg>
