<svg width="54" height="54" viewBox="0 0 54 54" fill="none" xmlns="http://www.w3.org/2000/svg">
<path d="M23.25 36H17.25C16.6533 36 16.081 35.7629 15.659 35.341C15.2371 34.919 15 34.3467 15 33.75V17.25C15 16.6533 15.2371 16.081 15.659 15.659C16.081 15.2371 16.6533 15 17.25 15H27.8805C28.5007 15 29.0632 15.2512 29.4697 15.6577L32.3422 18.5302C32.5511 18.7388 32.7167 18.9866 32.8296 19.2593C32.9424 19.532 33.0003 19.8243 33 20.1195V21.75C33 21.9489 32.921 22.1397 32.7803 22.2803C32.6397 22.421 32.4489 22.5 32.25 22.5C32.0511 22.5 31.8603 22.421 31.7197 22.2803C31.579 22.1397 31.5 21.9489 31.5 21.75V20.1203C31.4995 19.9223 31.4205 19.7327 31.2803 19.593L28.4078 16.7205C28.2681 16.5803 28.0784 16.5013 27.8805 16.5007H17.25C17.0511 16.5007 16.8603 16.5798 16.7197 16.7204C16.579 16.8611 16.5 17.0518 16.5 17.2507V33.7507C16.5 33.9497 16.579 34.1404 16.7197 34.2811C16.8603 34.4217 17.0511 34.5007 17.25 34.5007H23.25C23.4489 34.5007 23.6397 34.5798 23.7803 34.7204C23.921 34.8611 24 35.0518 24 35.2507C24 35.4497 23.921 35.6404 23.7803 35.7811C23.6397 35.9217 23.4489 36.0007 23.25 36.0007V36ZM34.5 31.5C34.5 31.055 34.368 30.62 34.1208 30.25C33.8736 29.88 33.5222 29.5916 33.111 29.4213C32.6999 29.251 32.2475 29.2064 31.811 29.2932C31.3746 29.38 30.9737 29.5943 30.659 29.909C30.3443 30.2237 30.13 30.6246 30.0432 31.061C29.9564 31.4975 30.001 31.9499 30.1713 32.361C30.3416 32.7722 30.63 33.1236 31 33.3708C31.37 33.618 31.805 33.75 32.25 33.75C32.8467 33.75 33.419 33.5129 33.841 33.091C34.2629 32.669 34.5 32.0967 34.5 31.5V31.5ZM33 31.5C33 31.6483 32.956 31.7933 32.8736 31.9167C32.7912 32.04 32.6741 32.1361 32.537 32.1929C32.4 32.2497 32.2492 32.2645 32.1037 32.2356C31.9582 32.2067 31.8246 32.1352 31.7197 32.0303C31.6148 31.9254 31.5433 31.7918 31.5144 31.6463C31.4855 31.5008 31.5003 31.35 31.5571 31.213C31.6139 31.0759 31.71 30.9588 31.8333 30.8764C31.9567 30.794 32.1017 30.75 32.25 30.75C32.4489 30.75 32.6397 30.829 32.7803 30.9697C32.921 31.1103 33 31.3011 33 31.5ZM34.2502 37.5203L34.6927 36.0728C34.7119 36.0141 34.7521 35.9646 34.8055 35.9338C34.8589 35.9029 34.9219 35.8928 34.9822 35.9055H34.9808L36.4507 36.2505C36.8871 36.3529 37.3449 36.3121 37.7563 36.1342C38.1677 35.9562 38.5109 35.6505 38.735 35.2624C38.9592 34.8743 39.0525 34.4243 39.0011 33.979C38.9497 33.5337 38.7563 33.1168 38.4495 32.79L38.4503 32.7908L37.4078 31.6755C37.3636 31.6293 37.3391 31.5679 37.3392 31.504C37.3393 31.4401 37.3642 31.3787 37.4085 31.3328L38.4382 30.2228C38.744 29.8943 38.9359 29.4761 38.9856 29.0301C39.0354 28.5842 38.9402 28.134 38.7143 27.7463C38.4884 27.3585 38.1437 27.0538 37.7312 26.8771C37.3187 26.7005 36.8603 26.6612 36.4238 26.7653L36.438 26.7622L34.9755 27.105C34.915 27.118 34.8518 27.108 34.7983 27.0769C34.7448 27.0458 34.7048 26.996 34.686 26.937L34.6852 26.9355L34.2502 25.4857C34.1238 25.0575 33.8624 24.6815 33.5049 24.4139C33.1474 24.1463 32.713 24.0014 32.2665 24.0008H32.2493H32.25H32.2313C31.7884 24.0008 31.3572 24.143 31.0012 24.4064C30.6452 24.6698 30.3831 25.0405 30.2535 25.464L30.2498 25.479L29.8073 26.9318C29.7881 26.9904 29.7479 27.0399 29.6945 27.0707C29.6411 27.1016 29.5781 27.1117 29.5178 27.099H29.5192L28.0493 26.7517C27.6129 26.6493 27.1551 26.6901 26.7437 26.8681C26.3323 27.046 25.9891 27.3517 25.765 27.7398C25.5408 28.128 25.4475 28.578 25.4989 29.0233C25.5503 29.4685 25.7437 29.8854 26.0505 30.2123L27.0817 31.3215C27.1259 31.3677 27.1504 31.4291 27.1503 31.493C27.1502 31.5569 27.1253 31.6183 27.081 31.6642L26.0512 32.7742C25.7455 33.1027 25.5536 33.5209 25.5039 33.9669C25.4541 34.4128 25.5493 34.863 25.7752 35.2507C26.0011 35.6385 26.3458 35.9432 26.7583 36.1199C27.1708 36.2965 27.6292 36.3358 28.0657 36.2318L28.0515 36.2347L29.5215 35.892C29.582 35.879 29.6452 35.889 29.6987 35.9201C29.7522 35.9512 29.7922 36.001 29.811 36.06L29.8118 36.0615L30.249 37.5187C30.1538 37.8291 30.1326 38.1575 30.1871 38.4776C30.2416 38.7976 30.3702 39.1005 30.5628 39.3619C30.7553 39.6233 31.0064 39.836 31.2959 39.983C31.5854 40.13 31.9052 40.2071 32.2299 40.2083C32.5546 40.2094 32.875 40.1346 33.1655 39.9897C33.4561 39.8448 33.7086 39.6339 33.903 39.3739C34.0974 39.1138 34.2283 38.8119 34.285 38.4922C34.3418 38.1726 34.323 37.8441 34.23 37.533L34.2338 37.518L34.2502 37.5203ZM29.1877 34.4377L27.72 34.7775C27.597 34.8052 27.4683 34.7928 27.3529 34.7421C27.2374 34.6914 27.1413 34.605 27.0784 34.4957C27.0156 34.3863 26.9895 34.2597 27.0039 34.1345C27.0182 34.0092 27.0723 33.8918 27.1583 33.7995L28.191 32.6895C28.4812 32.3783 28.659 31.959 28.659 31.4985C28.659 31.038 28.4812 30.6188 28.1902 30.306L28.191 30.3068L27.1583 29.1945C27.0795 29.1111 27.0269 29.0064 27.007 28.8934C26.9871 28.7804 27.0008 28.664 27.0464 28.5587C27.092 28.4534 27.1674 28.3638 27.2634 28.301C27.3594 28.2382 27.4718 28.2049 27.5865 28.2053C27.6322 28.2053 27.6765 28.2105 27.7192 28.2203L27.7155 28.2195L29.1907 28.5593C29.619 28.6562 30.0681 28.5888 30.449 28.3703C30.8299 28.1518 31.1148 27.7982 31.2473 27.3795L31.251 27.3668L31.6935 25.9117C31.7291 25.7926 31.8022 25.6882 31.9019 25.6138C32.0017 25.5395 32.1227 25.4994 32.247 25.4992H32.2545C32.5148 25.4992 32.7352 25.6725 32.8057 25.9102L32.8065 25.914L33.2512 27.3713C33.3823 27.7953 33.6693 28.1538 34.0542 28.3747C34.4392 28.5956 34.8935 28.6623 35.3257 28.5615L35.3137 28.5637L36.7815 28.224C36.9045 28.1963 37.0332 28.2087 37.1486 28.2594C37.2641 28.3101 37.3602 28.3965 37.4231 28.5058C37.4859 28.6152 37.512 28.7418 37.4976 28.867C37.4833 28.9923 37.4292 29.1097 37.3433 29.202L36.3105 30.312C36.0202 30.6233 35.8425 31.0425 35.8425 31.503C35.8425 31.9635 36.0203 32.3827 36.3113 32.6955L36.3105 32.6948L37.3433 33.807C37.4285 33.8994 37.482 34.0166 37.496 34.1415C37.5101 34.2665 37.4838 34.3926 37.4211 34.5016C37.3584 34.6106 37.2626 34.6967 37.1475 34.7474C37.0325 34.7981 36.9042 34.8108 36.7815 34.7835L36.7853 34.7842L35.31 34.4415C34.8817 34.3445 34.4326 34.4119 34.0518 34.6305C33.6709 34.849 33.386 35.2026 33.2535 35.6213L33.2498 35.634L32.8073 37.0867C32.8349 37.174 32.8417 37.2666 32.827 37.3569C32.8123 37.4473 32.7766 37.5329 32.7227 37.6069C32.6687 37.6809 32.5982 37.7411 32.5167 37.7828C32.4352 37.8245 32.345 37.8464 32.2534 37.8467C32.1619 37.8471 32.0715 37.8259 31.9897 37.7849C31.9079 37.7439 31.8368 37.6842 31.7823 37.6107C31.7278 37.5371 31.6913 37.4518 31.6759 37.3616C31.6605 37.2713 31.6665 37.1787 31.6935 37.0912L31.6927 37.0867L31.2502 35.6295C31.1192 35.2055 30.8322 34.8469 30.4473 34.626C30.0623 34.4052 29.608 34.3384 29.1757 34.4393L29.1877 34.437V34.4377Z" fill="#131C26"/>
</svg>
