<svg width="54" height="54" viewBox="0 0 54 54" fill="none" xmlns="http://www.w3.org/2000/svg">
<path fill-rule="evenodd" clip-rule="evenodd" d="M15.75 15H38.25C38.6642 15 39 15.3358 39 15.75V38.25C39 38.6642 38.6642 39 38.25 39H15.75C15.3358 39 15 38.6642 15 38.25V15.75C15 15.3358 15.3358 15 15.75 15ZM37.5 37.5V16.5H16.5V37.5H37.5ZM33.75 19.5C34.1642 19.5 34.5 19.8358 34.5 20.25C34.5 20.652 34.1837 20.9802 33.7863 20.9991L33.75 21H29.25C28.8358 21 28.5 20.6642 28.5 20.25C28.5 19.848 28.8163 19.5198 29.2137 19.5009L29.25 19.5H33.75ZM34.5 24.75C34.5 24.3358 34.1642 24 33.75 24H27.75L27.7137 24.0009C27.3163 24.0198 27 24.348 27 24.75C27 25.1642 27.3358 25.5 27.75 25.5H33.75L33.7863 25.4991C34.1837 25.4802 34.5 25.152 34.5 24.75ZM33.75 28.5C34.1642 28.5 34.5 28.8358 34.5 29.25C34.5 29.652 34.1837 29.9802 33.7863 29.9991L33.75 30H27.75C27.3358 30 27 29.6642 27 29.25C27 28.848 27.3163 28.5198 27.7137 28.5009L27.75 28.5H33.75ZM33 33.75C33 33.3358 32.6642 33 32.25 33H27.75L27.7137 33.0009C27.3163 33.0198 27 33.348 27 33.75C27 34.1642 27.3358 34.5 27.75 34.5H32.25L32.2863 34.4991C32.6837 34.4802 33 34.152 33 33.75ZM20.25 19.5H24.75C25.1642 19.5 25.5 19.8358 25.5 20.25V24.75C25.5 25.1642 25.1642 25.5 24.75 25.5H20.25C19.8358 25.5 19.5 25.1642 19.5 24.75V20.25C19.5 19.8358 19.8358 19.5 20.25 19.5ZM24 24V21H21V24H24ZM24.75 28.5H20.25C19.8358 28.5 19.5 28.8358 19.5 29.25V33.75C19.5 34.1642 19.8358 34.5 20.25 34.5H24.75C25.1642 34.5 25.5 34.1642 25.5 33.75V29.25C25.5 28.8358 25.1642 28.5 24.75 28.5ZM24 30V32.9998H21V30H24Z" fill="#131C26"/>
</svg>
