<svg width="32" height="30" viewBox="0 0 32 30" fill="none" xmlns="http://www.w3.org/2000/svg">
<circle cx="16" cy="5" r="3" stroke="#131C26" stroke-width="2"/>
<circle cx="25" cy="9" r="3" stroke="#131C26" stroke-width="2"/>
<circle cx="7" cy="9" r="3" stroke="#131C26" stroke-width="2"/>
<path fill-rule="evenodd" clip-rule="evenodd" d="M20 19V16C20 13.7909 18.2091 12 16 12C13.7909 12 12 13.7909 12 16V19V24V26V27H20V26V24V19ZM21.9262 15.0562C21.4734 12.1909 18.9926 10 16 10C13.0074 10 10.5266 12.1909 10.0738 15.0562C9.22587 14.3943 8.15899 14 7 14C4.23858 14 2 16.2386 2 19V24V26H4H10V27V29H12H20H22V27V26H28H30V24V19C30 16.2386 27.7614 14 25 14C23.841 14 22.7741 14.3943 21.9262 15.0562ZM22 19V24H28V19C28 17.3431 26.6569 16 25 16C23.3431 16 22 17.3431 22 19ZM10 24V19C10 17.3431 8.65685 16 7 16C5.34315 16 4 17.3431 4 19V24H10Z" fill="#131C26"/>
</svg>
